<svg id="图层_1" data-name="图层 1" xmlns="http://www.w3.org/2000/svg" viewBox="0 0 1462.49 394.29"><path d="M596.17,1121H505.26v-54.41h90.91Zm0,256.66H505.26V1147.26h90.91ZM722.9,1263.77c0,17.91,5.12,32,17.28,41.59,10.25,10.9,26.24,16,46.73,16q65.28,0,65.29-57.6,0-59.55-65.29-59.55c-20.49,0-36.48,5.13-46.73,16C728,1229.83,722.9,1244.56,722.9,1263.77Zm184.35-90.91c25,22.41,36.48,54.41,36.48,94.1,0,33.91-11.52,62.08-35.2,84.48-24.32,24.32-57.61,35.85-97.95,35.85q-59.51,0-86.4-30.72H722.9v104.34H633.29V1147.26h86.4v30.08H721c19.85-24.32,48.65-36.49,88.33-36.49,41.6,0,73.62,10.88,97.94,32Z" transform="translate(-505.26 -1066.61)" style="fill:#e7ab5a;fill-rule:evenodd"/><path d="M1419.78,1186.31v247.06h-35.21V1186.31Zm-35.21-94.09h35.21v52.48h-35.21Zm-139,158.47c-12.55-44.66-37.35-49.85-85.14-50.56-48,0-71.65,14.08-71.65,41.6,0,12.17,6.38,20.49,17.91,25.6,60.26,17.89,183.8,8.59,180.52,85.78-1.43,61.51-56.15,78.61-117.12,78.71-83.22,0-124.84-27.51-124.84-84.49h32c9.43,50.65,39.82,52.58,92.83,54.42,54.38,0,81.91-16,81.91-46.74,0-11.53-6.4-21.13-17.93-27.51-46.12-24.9-185,.09-180.49-84.51-1.54-104.15,228-94.36,224,7.68h-32v0Zm339.67-158.47v341.15H1550V1092.22ZM1904.93,1228c-33.16-37.94-120.87-37.06-154.91,0-35.49,33.09-34.87,113.07,0,145.93,34.06,36.12,121.7,37,154.91,0,36.21-33.15,36.83-112.56,0-145.93Zm62.72,72.34c5.38,175.36-284.47,175.37-279.08,0C1682.25,1126.44,1974,1126.46,1967.65,1300.32Z" transform="translate(-505.26 -1066.61)" style="fill:#295ca7;fill-rule:evenodd"/></svg>