<svg id="图层_1" data-name="图层 1" xmlns="http://www.w3.org/2000/svg" viewBox="0 0 662 298.74"><path d="M351.77,87l-10.13,17.84L307,43.84,200.61,231.16h72A17.7,17.7,0,0,0,290.18,249H200.61a17.51,17.51,0,0,1-15.2-8.92,18.12,18.12,0,0,1,0-17.84L291.79,34.92a17.4,17.4,0,0,1,30.39,0L351.77,87Z" style="fill:#00c58e"/><path d="M428.56,222.24,361.9,104.87,351.77,87l-10.13,17.84L275,222.24a18.12,18.12,0,0,0,0,17.84,17.51,17.51,0,0,0,15.2,8.92H413.35a17.48,17.48,0,0,0,15.19-8.92,18.1,18.1,0,0,0,0-17.84Zm-138.38,8.92,61.59-108.45,61.58,108.45Z" style="fill:#2f495e"/><path d="M476.22,240.08A17.48,17.48,0,0,1,461,249H413.35a17.69,17.69,0,0,0,17.54-17.84H461l-85.4-150.4L361.9,104.87,351.77,87l8.63-15.19a17.4,17.4,0,0,1,30.39,0l85.43,150.4a18.12,18.12,0,0,1,0,17.84Z" style="fill:#108775"/></svg>