<svg id="图层_1" data-name="图层 1" xmlns="http://www.w3.org/2000/svg" viewBox="0 0 1462.49 394.29"><defs><style>.cls-1{fill:#f63;}.cls-2{fill:#fff;}</style></defs><path class="cls-1" d="M261.05,308.17H204.8L186.68,252.7h-88L80.9,308.17H25l88.59-242h60.63Zm-86.56-95.31L147,129q-2.66-8-3.75-21.09h-1.41a89,89,0,0,1-4.22,20.47L110,212.86Z"/><path class="cls-1" d="M506.83,308.17H454L351.52,151.61A182.85,182.85,0,0,1,340,131.92h-.78q1.4,12.51,1.4,38.6V308.17h-48.9v-242h56.25l98.75,152.19q9.84,15.15,12,19.22h.78q-1.56-8.76-1.56-33.44v-138h48.9Z"/><path class="cls-1" d="M742.93,66.14,663.86,221.77v86.4H612.3V222.7L535.43,66.14h58.9L635,158.64q1.24,2.82,5.78,19.06h.62a83,83,0,0,1,5.16-18.59l41.72-93Z"/><path class="cls-2" d="M822,66.14v242H770.43v-242Z"/><path class="cls-2" d="M929.49,223.8v84.37H877.93v-242h83.28q90.31,0,90.31,76.56,0,37.2-27.27,59.61t-68.2,21.49Zm0-117.66v78.13h22.34q45.48,0,45.47-39.54,0-38.58-45-38.59Z"/><path class="cls-2" d="M1230.27,308.17h-142v-242h51.56V266h90.47Z"/><path class="cls-2" d="M1427,299.42q-26.41,13-68.91,13-54.69,0-86.79-32.73t-32.11-87.27q0-57.34,35.86-93.83t92.57-36.48q35.48,0,59.38,9.22v49.84q-24.54-14.37-55.63-14.37-35.46,0-56.71,22.65t-21.25,59.22q0,35.63,20.15,57.35t54.53,21.71q32.36,0,58.91-15.62Z"/></svg>