<svg id="图层_1" data-name="图层 1" xmlns="http://www.w3.org/2000/svg" viewBox="0 0 1462.49 394.29"><defs><style>.cls-1{fill:#f67a3c;}.cls-2{font-size:370px;fill:#fff;font-family:MicrosoftYaHei-Bold, Microsoft YaHei;font-weight:700;}</style></defs><path class="cls-1" d="M309.59,294.73h-66.8l-21.52-65.86H116.8L95.65,294.73H29.23L134.43,7.32h72ZM206.79,181.55,174.14,81.91q-3.16-9.47-4.45-25H168a106.8,106.8,0,0,1-5,24.31L130.16,181.55Z"/><path class="cls-1" d="M535,294.73H475.47V180.25q0-49.73-35.81-49.72-17.09,0-28.39,13.26T400,177.65V294.73H340V89.52H400v32.66h.74q22.46-37.67,66.06-37.67,68.28,0,68.28,84.61Z"/><path class="cls-1" d="M778.09,89.52,693.49,313.1Q664,391,605.17,391q-23.2,0-36-4.82V338.15A52.65,52.65,0,0,0,595.7,345q24.49,0,34.51-23.75l11.32-26.91L558.59,89.52H625L665.1,218.1a140.44,140.44,0,0,1,5.38,26.17h1.11q1.3-9.84,6.12-25.8l41-128.95Z"/><text class="cls-2" transform="translate(796.67 299.73)">iplc</text></svg>