<?xml version="1.0" encoding="utf-8"?>
<!-- Generator: Adobe Illustrator 26.5.0, SVG Export Plug-In . SVG Version: 6.00 Build 0)  -->
<svg version="1.1" id="图层_1" xmlns="http://www.w3.org/2000/svg" xmlns:xlink="http://www.w3.org/1999/xlink" x="0px" y="0px"
	 viewBox="0 0 1462.5 394.3" style="enable-background:new 0 0 1462.5 394.3;" xml:space="preserve">
<style type="text/css">
	.st0{display:none;fill-rule:evenodd;clip-rule:evenodd;fill:#F67A3C;}
	.st1{display:none;fill-rule:evenodd;clip-rule:evenodd;fill:#FFFFFF;}
	.st2{fill:#F67A3C;}
	.st3{fill:#FFFFFF;}
</style>
<path class="st0" d="M90.9,54.4H0V0h90.9L90.9,54.4z M90.9,311.1H0V80.7h90.9L90.9,311.1z M217.6,197.2c0,17.9,5.1,32,17.3,41.6
	c10.2,10.9,26.2,16,46.7,16c43.5,0,65.3-19.2,65.3-57.6c0-39.7-21.8-59.6-65.3-59.6c-20.5,0-36.5,5.1-46.7,16
	C222.7,163.2,217.6,178,217.6,197.2z M402,106.2c25,22.4,36.5,54.4,36.5,94.1c0,33.9-11.5,62.1-35.2,84.5
	c-24.3,24.3-57.6,35.8-98,35.8c-39.7,0-68.5-10.2-86.4-30.7h-1.3v104.3H128V80.7h86.4v30.1h1.3c19.8-24.3,48.7-36.5,88.3-36.5
	C345.7,74.2,377.7,85.1,402,106.2L402,106.2z"/>
<path class="st1" d="M914.5,119.7v247.1h-35.2V119.7H914.5z M879.3,25.6h35.2v52.5h-35.2V25.6z M740.3,184.1
	c-12.6-44.7-37.3-49.8-85.1-50.6c-48,0-71.7,14.1-71.7,41.6c0,12.2,6.4,20.5,17.9,25.6c60.3,17.9,183.8,8.6,180.5,85.8
	c-1.4,61.5-56.2,78.6-117.1,78.7c-83.2,0-124.8-27.5-124.8-84.5h32c9.4,50.7,39.8,52.6,92.8,54.4c54.4,0,81.9-16,81.9-46.7
	c0-11.5-6.4-21.1-17.9-27.5c-46.1-24.9-185,0.1-180.5-84.5c-1.5-104.2,228-94.4,224,7.7L740.3,184.1L740.3,184.1L740.3,184.1z
	 M1080,25.6v341.2h-35.2V25.6L1080,25.6z M1399.7,161.4c-33.2-37.9-120.9-37.1-154.9,0c-35.5,33.1-34.9,113.1,0,145.9
	c34.1,36.1,121.7,37,154.9,0C1435.9,274.2,1436.5,194.8,1399.7,161.4z M1462.4,233.7c5.4,175.4-284.5,175.4-279.1,0
	C1177,59.8,1468.7,59.8,1462.4,233.7L1462.4,233.7z"/>
<g>
	<path class="st2" d="M160.5,239.3l39.6-5c1,5.5,2.8,9.4,5.3,11.7c2.5,2.3,5.5,3.4,9.1,3.4c6.4,0,11.4-3.2,14.9-9.7
		c2.6-4.8,4.6-14.8,5.9-30.2c-4.8,4.9-9.6,8.5-14.6,10.7c-5,2.3-10.8,3.4-17.4,3.4c-12.8,0-23.6-4.6-32.5-13.7
		c-8.8-9.1-13.2-20.6-13.2-34.6c0-9.5,2.2-18.2,6.7-26s10.7-13.7,18.6-17.7c7.9-4,17.8-6,29.7-6c14.3,0,25.8,2.5,34.5,7.4
		c8.7,4.9,15.6,12.7,20.8,23.4c5.2,10.7,7.8,24.9,7.8,42.4c0,25.8-5.4,44.8-16.3,56.8c-10.9,12-25.9,18-45.2,18
		c-11.4,0-20.4-1.3-27-4c-6.6-2.6-12-6.5-16.4-11.6C166.2,253.2,162.8,246.9,160.5,239.3z M233.7,175.4c0-7.7-2-13.8-5.9-18.2
		s-8.7-6.6-14.3-6.6c-5.3,0-9.7,2-13.1,6c-3.5,4-5.2,9.9-5.2,17.9c0,8,1.8,14.1,5.4,18.4c3.6,4.2,8.1,6.3,13.5,6.3
		c5.6,0,10.3-2.1,14-6.2S233.7,183,233.7,175.4z"/>
	<path class="st2" d="M382.2,125.8v145.6H342V176c-6.5,4.9-12.8,9-18.9,12c-6.1,3.1-13.7,6-22.9,8.8v-32.6
		c13.5-4.4,24.1-9.6,31.5-15.7c7.5-6.1,13.3-13.7,17.6-22.7H382.2z"/>
	<path class="st2" d="M441.6,128.2H536V160h-64l-3.4,21.5c4.4-2.1,8.8-3.6,13.1-4.7c4.3-1,8.6-1.6,12.8-1.6c14.3,0,25.9,4.3,34.9,13
		c8.9,8.7,13.4,19.6,13.4,32.7c0,9.2-2.3,18.1-6.9,26.7c-4.6,8.5-11.1,15-19.5,19.5c-8.4,4.5-19.2,6.7-32.4,6.7
		c-9.4,0-17.5-0.9-24.3-2.7s-12.5-4.5-17.2-8c-4.7-3.5-8.5-7.6-11.5-12.1s-5.4-10.1-7.3-16.8l40.2-4.4c1,6.4,3.3,11.3,6.8,14.7
		c3.6,3.4,7.8,5,12.8,5c5.5,0,10.1-2.1,13.7-6.3s5.4-10.5,5.4-18.8c0-8.5-1.8-14.8-5.5-18.8c-3.6-4-8.5-6-14.6-6
		c-3.8,0-7.6,0.9-11.1,2.8c-2.7,1.4-5.6,3.8-8.8,7.4l-33.9-4.9L441.6,128.2z"/>
	<path class="st2" d="M582.8,194.4c-6.2-3.3-10.8-7-13.7-11.1c-3.9-5.6-5.9-12-5.9-19.3c0-12,5.6-21.8,16.9-29.4
		c8.8-5.9,20.4-8.8,34.9-8.8c19.1,0,33.3,3.6,42.4,10.9c9.1,7.3,13.7,16.5,13.7,27.5c0,6.4-1.8,12.5-5.5,18.1
		c-2.7,4.2-7,8.2-12.9,12.1c7.7,3.7,13.5,8.6,17.3,14.7c3.8,6.1,5.7,12.9,5.7,20.3c0,7.2-1.6,13.9-4.9,20.1
		c-3.3,6.2-7.3,11-12.1,14.4c-4.8,3.4-10.7,5.9-17.9,7.5s-14.7,2.4-22.8,2.4c-15.2,0-26.8-1.8-34.8-5.4s-14.1-8.9-18.3-15.8
		c-4.2-7-6.2-14.7-6.2-23.3c0-8.4,2-15.5,5.9-21.3C568.7,202.1,574.7,197.6,582.8,194.4z M598.5,227.9c0,6.3,1.9,11.5,5.8,15.5
		c3.8,4,8.2,6,13.2,6c4.8,0,9-2,12.8-6.1c3.8-4.1,5.7-9.2,5.7-15.5c0-6.3-1.9-11.5-5.7-15.5c-3.8-4-8.2-6.1-13.2-6.1
		c-4.9,0-9.3,2-12.9,5.9C600.4,216,598.5,221.3,598.5,227.9z M600.7,166.3c0,4.9,1.5,8.9,4.6,12c3.1,3,7.2,4.5,12.4,4.5
		c4.6,0,8.3-1.5,11.2-4.5c2.9-3,4.4-6.9,4.4-11.6c0-4.9-1.5-9-4.6-12.1c-3.1-3.1-7-4.6-11.7-4.6c-4.8,0-8.7,1.5-11.8,4.5
		S600.7,161.5,600.7,166.3z"/>
</g>
<g>
	<path class="st3" d="M839.4,229.6l37.8,4.3c-2.1,7.9-5.5,14.7-10.3,20.5c-4.8,5.8-10.8,10.2-18.2,13.4c-7.4,3.2-16.8,4.8-28.2,4.8
		c-11,0-20.2-1-27.5-3.1c-7.3-2-13.6-5.4-18.9-10s-9.4-10-12.4-16.1c-3-6.2-4.5-14.4-4.5-24.6c0-10.7,1.8-19.5,5.5-26.6
		c2.7-5.2,6.3-9.9,10.9-14c4.6-4.1,9.4-7.2,14.3-9.2c7.7-3.2,17.7-4.8,29.8-4.8c16.9,0,29.8,3,38.7,9.1s15.1,14.9,18.7,26.6l-37.4,5
		c-1.2-4.4-3.3-7.8-6.4-10c-3.1-2.2-7.2-3.4-12.5-3.4c-6.6,0-11.9,2.4-16,7.1c-4.1,4.7-6.1,11.8-6.1,21.4c0,8.5,2,15,6.1,19.4
		c4,4.4,9.2,6.6,15.4,6.6c5.2,0,9.6-1.3,13.1-4C835,239.2,837.7,235.1,839.4,229.6z"/>
	<path class="st3" d="M891.7,127h39.8v143.2h-39.8V127z"/>
	<path class="st3" d="M952,218.6c0-15.8,5.3-28.9,16-39.1c10.7-10.3,25.1-15.4,43.3-15.4c20.8,0,36.5,6,47.1,18.1
		c8.5,9.7,12.8,21.6,12.8,35.8c0,16-5.3,29-15.9,39.2c-10.6,10.2-25.2,15.3-43.9,15.3c-16.7,0-30.1-4.2-40.4-12.7
		C958.3,249.4,952,235.6,952,218.6z M991.9,218.5c0,9.2,1.9,16.1,5.6,20.5c3.7,4.4,8.4,6.6,14.1,6.6c5.7,0,10.4-2.2,14.1-6.5
		c3.7-4.4,5.5-11.4,5.5-21c0-9-1.9-15.7-5.6-20.1c-3.7-4.4-8.3-6.6-13.8-6.6c-5.8,0-10.6,2.2-14.4,6.7
		C993.8,202.6,991.9,209.4,991.9,218.5z"/>
	<path class="st3" d="M1199.6,270.2h-37.1v-16.8c-5.5,6.9-11.1,11.8-16.7,14.7c-5.6,2.9-12.5,4.4-20.8,4.4
		c-10.9,0-19.5-3.3-25.7-9.8c-6.2-6.5-9.3-16.6-9.3-30.2v-66h39.9v57c0,6.5,1.2,11.1,3.6,13.9c2.4,2.7,5.8,4.1,10.2,4.1
		c4.8,0,8.6-1.8,11.7-5.5s4.5-10.2,4.5-19.6v-49.9h39.7V270.2z"/>
	<path class="st3" d="M1332.9,127v143.2h-37.2v-15.3c-5.2,6.5-10,10.9-14.3,13.2c-5.7,3-12.1,4.5-19.1,4.5
		c-14.1,0-24.9-5.4-32.4-16.1c-7.5-10.7-11.2-23.8-11.2-39.2c0-17.2,4.1-30.3,12.4-39.5c8.2-9.1,18.7-13.7,31.4-13.7
		c6.2,0,11.8,1,16.8,3.1c5,2.1,9.5,5.2,13.4,9.4V127H1332.9z M1293,218.1c0-8.1-1.7-14.2-5.2-18.2c-3.5-4-7.8-6-13.1-6
		c-4.6,0-8.5,1.9-11.6,5.8c-3.1,3.8-4.7,10.3-4.7,19.3c0,8.5,1.6,14.7,4.8,18.6s7.2,5.9,12,5.9c5.1,0,9.3-2,12.7-6
		C1291.4,233.5,1293,227,1293,218.1z"/>
</g>
</svg>
