<?xml version="1.0" encoding="utf-8"?>
<!-- Generator: Adobe Illustrator 26.5.0, SVG Export Plug-In . SVG Version: 6.00 Build 0)  -->
<svg version="1.1" id="图层_1" xmlns="http://www.w3.org/2000/svg" xmlns:xlink="http://www.w3.org/1999/xlink" x="0px" y="0px"
	 viewBox="0 0 1462.5 394.3" style="enable-background:new 0 0 1462.5 394.3;" xml:space="preserve">
<style type="text/css">
	.st0{display:none;fill-rule:evenodd;clip-rule:evenodd;fill:#FFFFFF;}
	.st1{fill:#F67A3C;}
	.st2{fill:#F9F8F7;}
	.st3{display:none;}
	.st4{display:inline;fill:#F67A3C;}
	.st5{display:inline;}
	.st6{display:inline;fill:#F9F8F7;}
	.st7{fill:#FFFFFF;}
</style>
<path class="st0" d="M879.1,119.4v247.1h-35.2V119.4H879.1z M843.9,25.3h35.2v52.5h-35.2V25.3z M704.9,183.8
	c-12.6-44.7-37.3-49.8-85.1-50.6c-48,0-71.7,14.1-71.7,41.6c0,12.2,6.4,20.5,17.9,25.6c60.3,17.9,183.8,8.6,180.5,85.8
	c-1.4,61.5-56.2,78.6-117.1,78.7c-83.2,0-124.8-27.5-124.8-84.5h32c9.4,50.7,39.8,52.6,92.8,54.4c54.4,0,81.9-16,81.9-46.7
	c0-11.5-6.4-21.1-17.9-27.5c-46.1-24.9-185,0.1-180.5-84.5c-1.5-104.2,228-94.4,224,7.7L704.9,183.8L704.9,183.8L704.9,183.8z
	 M1044.6,25.3v341.2h-35.2V25.3H1044.6z M1364.3,161.1c-33.2-37.9-120.9-37.1-154.9,0c-35.5,33.1-34.9,113.1,0,145.9
	c34.1,36.1,121.7,37,154.9,0C1400.5,273.9,1401.1,194.5,1364.3,161.1z M1427,233.4c5.4,175.4-284.5,175.4-279.1,0
	C1141.6,59.5,1433.3,59.5,1427,233.4L1427,233.4z"/>
<g>
	<g>
		<circle class="st1" cx="181" cy="213.1" r="177.8"/>
	</g>
	<path class="st2" d="M210.9,183.7c0-11.5-2.5-20.4-7.6-26.7c-5-6.3-10.9-9.5-17.5-9.5c-6.3,0-11.5,2.6-15.7,7.8
		c-4.2,5.2-6.3,13.7-6.3,25.5c0,12,2.3,20.8,6.8,26.4c4.5,5.6,10.2,8.4,16.9,8.4c6.5,0,12-2.7,16.5-8.1S210.9,194.2,210.9,183.7z
		 M134,261.4l32.9-3.8c0.8,7,2.9,12.2,6.3,15.6c3.4,3.4,7.9,5.1,13.4,5.1c7,0,13-3.4,17.9-10.1c4.9-6.7,8.1-20.8,9.4-42
		c-8.6,10.4-19.2,15.6-32.1,15.6c-14,0-26-5.6-36.1-16.9c-10.1-11.3-15.2-25.9-15.2-44c0-18.8,5.3-34,16-45.5
		c10.7-11.5,24.3-17.3,40.9-17.3c18,0,32.8,7.3,44.3,21.8c11.5,14.6,17.3,38.5,17.3,71.8c0,33.9-6,58.4-18,73.4
		c-12,15-27.7,22.5-47,22.5c-13.9,0-25.1-3.9-33.7-11.6S136.4,276.8,134,261.4z"/>
</g>
<g class="st3">
	<circle class="st4" cx="549.1" cy="197.6" r="177.8"/>
</g>
<g class="st3">
	<g class="st5">
		<circle class="st1" cx="914.4" cy="197.9" r="177.8"/>
	</g>
	<path class="st6" d="M944.3,168.5c0-11.5-2.5-20.4-7.6-26.7c-5-6.3-10.9-9.5-17.5-9.5c-6.3,0-11.5,2.6-15.7,7.8
		c-4.2,5.2-6.3,13.7-6.3,25.5c0,12,2.3,20.8,6.8,26.4c4.5,5.6,10.2,8.4,16.9,8.4c6.5,0,12-2.7,16.5-8.1S944.3,179,944.3,168.5z
		 M867.3,246.2l32.9-3.8c0.8,7,2.9,12.2,6.3,15.6c3.4,3.4,7.9,5.1,13.4,5.1c7,0,13-3.4,17.9-10.1c4.9-6.7,8.1-20.8,9.4-42
		c-8.6,10.4-19.2,15.6-32.1,15.6c-14,0-26-5.6-36.1-16.9c-10.1-11.3-15.2-25.9-15.2-44c0-18.8,5.3-34,16-45.5
		c10.7-11.5,24.3-17.3,40.9-17.3c18,0,32.8,7.3,44.3,21.8c11.5,14.6,17.3,38.5,17.3,71.8c0,33.9-6,58.4-18,73.4
		c-12,15-27.7,22.5-47,22.5c-13.9,0-25.1-3.9-33.7-11.6C875.2,273.1,869.7,261.6,867.3,246.2z"/>
</g>
<g class="st3">
	<g class="st5">
		<circle class="st1" cx="1279.6" cy="197.9" r="177.8"/>
	</g>
	<path class="st6" d="M1309.5,168.5c0-11.5-2.5-20.4-7.6-26.7c-5-6.3-10.9-9.5-17.5-9.5c-6.3,0-11.5,2.6-15.7,7.8
		c-4.2,5.2-6.3,13.7-6.3,25.5c0,12,2.3,20.8,6.8,26.4c4.5,5.6,10.2,8.4,16.9,8.4c6.5,0,12-2.7,16.5-8.1S1309.5,179,1309.5,168.5z
		 M1232.5,246.2l32.9-3.8c0.8,7,2.9,12.2,6.3,15.6c3.4,3.4,7.9,5.1,13.4,5.1c7,0,13-3.4,17.9-10.1c4.9-6.7,8.1-20.8,9.4-42
		c-8.6,10.4-19.2,15.6-32.1,15.6c-14,0-26-5.6-36.1-16.9c-10.1-11.3-15.2-25.9-15.2-44c0-18.8,5.3-34,16-45.5
		c10.7-11.5,24.3-17.3,40.9-17.3c18,0,32.8,7.3,44.3,21.8c11.5,14.6,17.3,38.5,17.3,71.8c0,33.9-6,58.4-18,73.4
		c-12,15-27.7,22.5-47,22.5c-13.9,0-25.1-3.9-33.7-11.6C1240.4,273.1,1235,261.6,1232.5,246.2z"/>
</g>
<g>
	<ellipse class="st1" cx="548.3" cy="160.7" rx="148.7" ry="153.3"/>
	<path class="st7" d="M578.1,242.4h-30.3V124.8c-11.1,10.7-24.1,18.5-39.1,23.7v-28.3c7.9-2.7,16.5-7.7,25.7-15.2
		c9.3-7.4,15.6-16.1,19.1-26h24.6V242.4z"/>
</g>
<g>
	<g>
		<ellipse class="st1" cx="938" cy="212.7" rx="172.6" ry="176.8"/>
	</g>
	<path class="st7" d="M880.4,255.4l32.7-3.7c0.9,8.1,3.7,14.5,8.3,19.3c4.6,4.8,9.9,7.1,15.9,7.1c6.8,0,12.6-3.1,17.4-9.2
		c4.7-6.1,7.1-15.3,7.1-27.6c0-11.5-2.4-20.2-7.1-25.9c-4.7-5.8-10.8-8.7-18.4-8.7c-9.4,0-17.9,4.6-25.3,13.7l-26.6-4.2l16.8-97.8
		h86.7v33.7h-61.8l-5.1,31.9c7.3-4,14.8-6,22.4-6c14.5,0,26.9,5.8,37,17.4c10.1,11.6,15.2,26.7,15.2,45.2c0,15.5-4.1,29.3-12.2,41.4
		c-11.1,16.6-26.6,24.9-46.3,24.9c-15.8,0-28.7-4.7-38.6-14C888.3,283.7,882.4,271.1,880.4,255.4z"/>
</g>
<g>
	<ellipse class="st1" cx="1312.1" cy="242.4" rx="142.7" ry="146.8"/>
	<path class="st7" d="M1294.5,205.7c0,5.9,1.6,10.4,4.7,13.7c3.1,3.3,7.3,4.9,12.5,4.9c5.3,0,9.5-1.7,12.6-5
		c3.2-3.3,4.7-7.9,4.7-13.7c0-5.5-1.6-9.9-4.7-13.2c-3.1-3.3-7.3-5-12.4-5c-5.3,0-9.6,1.7-12.7,5
		C1296.1,195.8,1294.5,200.2,1294.5,205.7z M1291.9,271.4c0,8.1,2,14.4,5.9,18.9c3.9,4.5,8.8,6.8,14.6,6.8c5.7,0,10.5-2.2,14.2-6.5
		c3.7-4.4,5.6-10.6,5.6-18.9c0-7.2-1.9-12.9-5.7-17.3c-3.8-4.4-8.6-6.5-14.5-6.5c-6.8,0-11.8,2.5-15.1,7.4
		C1293.6,260.2,1291.9,265.6,1291.9,271.4z M1288.8,235.3c-7.2-3.2-12.4-7.6-15.6-13.2c-3.3-5.6-4.9-11.8-4.9-18.4
		c0-11.4,3.8-20.9,11.3-28.3c7.5-7.5,18.2-11.2,32.1-11.2c13.7,0,24.4,3.7,32,11.2c7.6,7.5,11.4,16.9,11.4,28.3
		c0,7.1-1.7,13.4-5.2,19c-3.5,5.5-8.4,9.8-14.7,12.7c8,3.4,14.1,8.4,18.3,15c4.2,6.6,6.3,14.1,6.3,22.7c0,14.2-4.3,25.7-12.8,34.5
		c-8.5,8.9-19.9,13.3-34,13.3c-13.2,0-24.1-3.7-32.9-11c-10.3-8.7-15.5-20.5-15.5-35.6c0-8.3,1.9-15.9,5.8-22.8
		C1274.3,244.4,1280.4,239.1,1288.8,235.3z"/>
</g>
</svg>
