<?xml version="1.0" encoding="utf-8"?>
<!-- Generator: Adobe Illustrator 26.5.0, SVG Export Plug-In . SVG Version: 6.00 Build 0)  -->
<svg version="1.1" id="图层_1" xmlns="http://www.w3.org/2000/svg" xmlns:xlink="http://www.w3.org/1999/xlink" x="0px" y="0px"
	 viewBox="0 0 1462.5 394.3" style="enable-background:new 0 0 1462.5 394.3;" xml:space="preserve">
<style type="text/css">
	.st0{display:none;fill-rule:evenodd;clip-rule:evenodd;fill:#F67A3C;}
	.st1{display:none;fill-rule:evenodd;clip-rule:evenodd;fill:#FFFFFF;}
	.st2{fill:#F67A3C;}
	.st3{display:none;}
	.st4{display:inline;fill:#FFFFFF;}
</style>
<path class="st0" d="M90.9,54.4H0V0h90.9L90.9,54.4z M90.9,311.1H0V80.7h90.9L90.9,311.1z M217.6,197.2c0,17.9,5.1,32,17.3,41.6
	c10.2,10.9,26.2,16,46.7,16c43.5,0,65.3-19.2,65.3-57.6c0-39.7-21.8-59.6-65.3-59.6c-20.5,0-36.5,5.1-46.7,16
	C222.7,163.2,217.6,178,217.6,197.2z M402,106.2c25,22.4,36.5,54.4,36.5,94.1c0,33.9-11.5,62.1-35.2,84.5
	c-24.3,24.3-57.6,35.8-98,35.8c-39.7,0-68.5-10.2-86.4-30.7h-1.3v104.3H128V80.7h86.4v30.1h1.3c19.8-24.3,48.7-36.5,88.3-36.5
	C345.7,74.2,377.7,85.1,402,106.2L402,106.2z"/>
<path class="st1" d="M914.5,119.7v247.1h-35.2V119.7H914.5z M879.3,25.6h35.2v52.5h-35.2V25.6z M740.3,184.1
	c-12.6-44.7-37.3-49.8-85.1-50.6c-48,0-71.7,14.1-71.7,41.6c0,12.2,6.4,20.5,17.9,25.6c60.3,17.9,183.8,8.6,180.5,85.8
	c-1.4,61.5-56.2,78.6-117.1,78.7c-83.2,0-124.8-27.5-124.8-84.5h32c9.4,50.7,39.8,52.6,92.8,54.4c54.4,0,81.9-16,81.9-46.7
	c0-11.5-6.4-21.1-17.9-27.5c-46.1-24.9-185,0.1-180.5-84.5c-1.5-104.2,228-94.4,224,7.7L740.3,184.1L740.3,184.1L740.3,184.1z
	 M1080,25.6v341.2h-35.2V25.6L1080,25.6z M1399.7,161.4c-33.2-37.9-120.9-37.1-154.9,0c-35.5,33.1-34.9,113.1,0,145.9
	c34.1,36.1,121.7,37,154.9,0C1435.9,274.2,1436.5,194.8,1399.7,161.4z M1462.4,233.7c5.4,175.4-284.5,175.4-279.1,0
	C1177,59.8,1468.7,59.8,1462.4,233.7L1462.4,233.7z"/>
<path class="st2" d="M108.6,300.1l102.2-12.9c2.7,14.3,7.2,24.4,13.6,30.3c6.4,5.9,14.2,8.8,23.5,8.8c16.5,0,29.3-8.3,38.6-25
	c6.7-12.3,11.8-38.3,15.1-78c-12.3,12.6-24.9,21.9-37.8,27.8c-13,5.9-27.9,8.8-44.9,8.8c-33.1,0-61.1-11.8-83.9-35.3
	c-22.8-23.5-34.2-53.3-34.2-89.3c0-24.6,5.8-46.9,17.4-67.1s27.6-35.4,47.9-45.8C186.4,12.2,212,7,242.8,7c37,0,66.7,6.3,89.1,19
	c22.4,12.7,40.2,32.9,53.6,60.5c13.4,27.7,20.1,64.2,20.1,109.6c0,66.8-14,115.7-42.1,146.7c-28.1,31-67,46.5-116.8,46.5
	c-29.4,0-52.6-3.4-69.6-10.2c-17-6.8-31.1-16.8-42.4-29.9C123.3,336.2,114.6,319.8,108.6,300.1z M297.8,135.2c0-20-5-35.7-15.1-47
	s-22.4-17-36.8-17c-13.6,0-24.9,5.1-33.9,15.4c-9,10.3-13.5,25.6-13.5,46.2c0,20.7,4.7,36.5,14,47.4c9.3,10.9,21,16.4,34.9,16.4
	c14.5,0,26.5-5.3,36.1-15.9S297.8,154.8,297.8,135.2z"/>
<path class="st2" d="M601.9,6v382.6H496.2V137.9c-17.1,13-33.7,23.5-49.6,31.6c-16,8-36.1,15.7-60.2,23.1v-85.7
	c35.6-11.5,63.2-25.2,82.9-41.3c19.7-16.1,35.1-35.9,46.2-59.5H601.9z"/>
<path class="st2" d="M811.7,18.5l203.6,85.4l-28.7,68.4l-137.9-57.8l-26.8,43.2c11.4-0.5,22.3,0.1,32.6,1.8
	c10.3,1.7,20,4.4,29.1,8.2c30.9,12.9,52,32.8,63.4,59.5c11.4,26.7,11.2,54.3-0.7,82.6c-8.4,19.9-21.3,37-38.9,51.3
	c-17.6,14.2-37.5,22.4-59.8,24.5c-22.2,2.1-47.5-2.9-75.9-14.7c-20.4-8.5-37-17.8-49.9-27.7s-22.8-20.9-29.8-32.8
	c-7-11.9-11.6-24-13.8-36.4c-2.3-12.3-2.5-26.6-0.6-42.8l90.7,26.9c-3.7,14.8-3.2,27.4,1.5,37.9c4.7,10.5,12.4,17.9,23,22.4
	c11.9,5,23.7,4.6,35.3-1.2c11.6-5.8,21.1-17.7,28.7-35.6c7.7-18.4,9.4-33.5,5.2-45.4c-4.3-11.9-12.9-20.5-26-26
	c-8.3-3.5-17.1-4.8-26.6-4c-7,0.5-15.5,3.2-25.7,8.1L715,173L811.7,18.5z"/>
<path class="st2" d="M1113.2,185.1c-15.7-8.3-27.2-17.7-34.4-28c-9.8-14.1-14.7-30.3-14.7-48.6c0-30.1,14.1-54.7,42.5-73.9
	c22.1-14.7,51.3-22.1,87.6-22.1c48.1,0,83.6,9.2,106.6,27.5c23,18.3,34.5,41.4,34.5,69.2c0,16.2-4.6,31.3-13.7,45.4
	c-6.9,10.5-17.7,20.6-32.4,30.4c19.5,9.3,34,21.7,43.6,37.1c9.6,15.4,14.4,32.4,14.4,51c0,18-4.1,34.8-12.4,50.4
	c-8.3,15.6-18.4,27.7-30.4,36.2c-12,8.5-27,14.8-44.9,18.8c-17.9,4-37,6-57.3,6c-38.1,0-67.2-4.5-87.4-13.5
	c-20.1-9-35.4-22.2-45.9-39.8c-10.5-17.5-15.7-37.1-15.7-58.6c0-21.1,4.9-39,14.7-53.6C1077.6,204.5,1092.8,193.1,1113.2,185.1z
	 M1152.7,269.3c0,15.9,4.8,28.8,14.5,38.9c9.7,10.1,20.7,15.1,33.1,15.1c11.9,0,22.7-5.1,32.1-15.3c9.5-10.2,14.2-23.2,14.2-38.9
	c0-15.9-4.8-28.9-14.4-39c-9.6-10.1-20.7-15.2-33.3-15.2c-12.4,0-23.3,4.9-32.5,14.7C1157.4,239.4,1152.7,252.6,1152.7,269.3z
	 M1158.1,114.4c0,12.4,3.9,22.5,11.7,30.1c7.8,7.6,18.1,11.4,31,11.4c11.4,0,20.9-3.8,28.2-11.3c7.4-7.5,11-17.3,11-29.2
	c0-12.4-3.8-22.5-11.5-30.3c-7.7-7.8-17.5-11.7-29.4-11.7c-12.1,0-22,3.8-29.6,11.4S1158.1,102.3,1158.1,114.4z"/>
<g class="st3">
	<path class="st4" d="M839.4,229.6l37.8,4.3c-2.1,7.9-5.5,14.7-10.3,20.5c-4.8,5.8-10.8,10.2-18.2,13.4c-7.4,3.2-16.8,4.8-28.2,4.8
		c-11,0-20.2-1-27.5-3.1c-7.3-2-13.6-5.4-18.9-10s-9.4-10-12.4-16.1c-3-6.2-4.5-14.4-4.5-24.6c0-10.7,1.8-19.5,5.5-26.6
		c2.7-5.2,6.3-9.9,10.9-14c4.6-4.1,9.4-7.2,14.3-9.2c7.7-3.2,17.7-4.8,29.8-4.8c16.9,0,29.8,3,38.7,9.1s15.1,14.9,18.7,26.6l-37.4,5
		c-1.2-4.4-3.3-7.8-6.4-10c-3.1-2.2-7.2-3.4-12.5-3.4c-6.6,0-11.9,2.4-16,7.1c-4.1,4.7-6.1,11.8-6.1,21.4c0,8.5,2,15,6.1,19.4
		c4,4.4,9.2,6.6,15.4,6.6c5.2,0,9.6-1.3,13.1-4C835,239.2,837.7,235.1,839.4,229.6z"/>
	<path class="st4" d="M891.7,127h39.8v143.2h-39.8V127z"/>
	<path class="st4" d="M952,218.6c0-15.8,5.3-28.9,16-39.1c10.7-10.3,25.1-15.4,43.3-15.4c20.8,0,36.5,6,47.1,18.1
		c8.5,9.7,12.8,21.6,12.8,35.8c0,16-5.3,29-15.9,39.2c-10.6,10.2-25.2,15.3-43.9,15.3c-16.7,0-30.1-4.2-40.4-12.7
		C958.3,249.4,952,235.6,952,218.6z M991.9,218.5c0,9.2,1.9,16.1,5.6,20.5c3.7,4.4,8.4,6.6,14.1,6.6c5.7,0,10.4-2.2,14.1-6.5
		c3.7-4.4,5.5-11.4,5.5-21c0-9-1.9-15.7-5.6-20.1c-3.7-4.4-8.3-6.6-13.8-6.6c-5.8,0-10.6,2.2-14.4,6.7
		C993.8,202.6,991.9,209.4,991.9,218.5z"/>
	<path class="st4" d="M1199.6,270.2h-37.1v-16.8c-5.5,6.9-11.1,11.8-16.7,14.7c-5.6,2.9-12.5,4.4-20.8,4.4
		c-10.9,0-19.5-3.3-25.7-9.8c-6.2-6.5-9.3-16.6-9.3-30.2v-66h39.9v57c0,6.5,1.2,11.1,3.6,13.9c2.4,2.7,5.8,4.1,10.2,4.1
		c4.8,0,8.6-1.8,11.7-5.5s4.5-10.2,4.5-19.6v-49.9h39.7V270.2z"/>
	<path class="st4" d="M1332.9,127v143.2h-37.2v-15.3c-5.2,6.5-10,10.9-14.3,13.2c-5.7,3-12.1,4.5-19.1,4.5
		c-14.1,0-24.9-5.4-32.4-16.1c-7.5-10.7-11.2-23.8-11.2-39.2c0-17.2,4.1-30.3,12.4-39.5c8.2-9.1,18.7-13.7,31.4-13.7
		c6.2,0,11.8,1,16.8,3.1c5,2.1,9.5,5.2,13.4,9.4V127H1332.9z M1293,218.1c0-8.1-1.7-14.2-5.2-18.2c-3.5-4-7.8-6-13.1-6
		c-4.6,0-8.5,1.9-11.6,5.8c-3.1,3.8-4.7,10.3-4.7,19.3c0,8.5,1.6,14.7,4.8,18.6s7.2,5.9,12,5.9c5.1,0,9.3-2,12.7-6
		C1291.4,233.5,1293,227,1293,218.1z"/>
</g>
</svg>
