<svg id="Layer_1" data-name="Layer 1" xmlns="http://www.w3.org/2000/svg" xmlns:xlink="http://www.w3.org/1999/xlink" viewBox="0 0 1400 1000"><defs><style>.cls-1{fill:url(#未命名的渐变_99);}.cls-10,.cls-11,.cls-12,.cls-2,.cls-3,.cls-4,.cls-5,.cls-6,.cls-7,.cls-8,.cls-9{fill-rule:evenodd;}.cls-3{fill:#444445;}.cls-4{fill:#282827;}.cls-5{fill:#b62024;}.cls-6{fill:#f16c5d;}.cls-7{fill:#909090;}.cls-8{fill:#d53d2a;}.cls-9{fill:#660b0b;}.cls-10{fill:#f05e4e;}.cls-11{fill:#535353;}.cls-12{fill:#f27a6c;}</style><radialGradient id="未命名的渐变_99" cx="700" cy="500" r="1078.16" gradientUnits="userSpaceOnUse"><stop offset="0.03" stop-color="#fff"/><stop offset="0.03" stop-color="#f6f6f6"/><stop offset="0.07" stop-color="#c8c8c8"/><stop offset="0.11" stop-color="#9d9d9d"/><stop offset="0.16" stop-color="#777"/><stop offset="0.2" stop-color="#575757"/><stop offset="0.26" stop-color="#3b3b3b"/><stop offset="0.32" stop-color="#252525"/><stop offset="0.39" stop-color="#141414"/><stop offset="0.48" stop-color="#090909"/><stop offset="0.6" stop-color="#020202"/><stop offset="0.94"/></radialGradient></defs><rect class="cls-1" width="1400" height="1000"/><path class="cls-2" d="M164.3,676.88S75.87,692.64,59.54,697.72s7.32,5.62,29.29,4.5S83.2,704.48,64,713.48s48.44,42.81,116.59,60.83,193.18,40.55,250.07,43.37l56.88,2.82S311.3,797.4,246.52,779.94s131.8,15.78,209,22.53S627.26,814.3,723,785s368.34-117.15,368.34-117.15-185.86,47.88-227.54,56.32,64.2-20.84,141.93-44.48,169-33.8,205-47.32,97.43-40.55,97.43-40.55-42.23,13.51-57.44,19.71,7.88-3.38,20.84-11.83-25.91-11.26-25.91-11.26,11.81-34.63,7-71.81,7.32-48.44,5.35-55.47-6.48-29-15.77-35.2-41.11-11.27-53-10.71-104.75,36.33-203.87,38-211.21-16.34-261.9-15.77Z"/><path class="cls-3" d="M744.53,532.13c-39.23,0-75.3,48.51-80.57,108.35s22.24,108.35,61.46,108.35,75.31-48.5,80.58-108.35-22.25-108.35-61.47-108.35Z"/><path class="cls-2" d="M744.16,532.13c-39,0-75,48-80.21,107.29s22.15,107.29,61.2,107.29,75-48,80.2-107.29-22.14-107.29-61.19-107.29Z"/><path class="cls-3" d="M742.68,537.69c-37.7,0-72.39,46-77.45,102.79s21.38,102.79,59.09,102.79,72.38-46,77.45-102.79-21.38-102.79-59.09-102.79Z"/><path class="cls-2" d="M742.48,540c-36.87,0-70.78,45-75.74,100.51S687.65,741,724.52,741s70.79-45,75.74-100.51S779.35,540,742.48,540Z"/><path class="cls-3" d="M742.48,541.38a42.45,42.45,0,0,1,13.6,2.22c15.82,5.34,26.9,19.23,33.58,34,8.72,19.28,11.08,41.83,9.2,62.77-2.2,24.7-10.6,50.41-25.63,70.34-11.55,15.35-28.63,28.88-48.71,28.88a42.45,42.45,0,0,1-13.6-2.22c-15.82-5.33-26.91-19.22-33.57-34-8.74-19.29-11.08-41.84-9.21-62.77,2.2-24.71,10.6-50.41,25.62-70.35,11.56-15.35,28.64-28.88,48.72-28.88Z"/><path class="cls-2" d="M798.39,644.9c-2.79,23.29-11,47.08-25.16,65.8-6.32,8.4-14.31,16.26-23.52,21.65,7.4-5.91,17.37-15.91,21.31-21.82s1.55-10-6.75-.29-26.15,18.93-26.15,18.93,17.28-15,19.39-17.94A93.2,93.2,0,0,0,770,689.13c5.36-13,18.13-41,16.66-32.46s-4,19.36-1.87,16.83,2,4.64,5.07,1.54,8.46-29.93,8.5-30.14Z"/><path class="cls-2" d="M737.16,547.55c-33.13,0-63.6,41.48-68,92.65s18.78,92.64,51.91,92.64,63.59-41.48,68.05-92.64-18.79-92.65-51.91-92.65Z"/><path class="cls-3" d="M718.11,552.12c-25,12.11-45.42,47-49,88.08-3,33.95,6.29,63.63,22.51,79.76A40.33,40.33,0,0,0,715,727.5c32.9,0,63.17-39.72,67.59-88.71S763.93,550.08,731,550.08a43,43,0,0,0-12.92,2Z"/><path class="cls-2" d="M742.34,718.25c20.29-14.09,36.13-42.87,39.94-76.37-.19,1-2.75,14.52-4.78,16.69s-2.68,3.1-3.66-1.68-2.54,3.65-2.68-1.84,3.08-19,1.26-30-7.73,24.5-14.06,40.41-19.72,39.14-25.5,41.82-16.05,13.26-16.05,13.26,16.48-.59,29.86-16.92,3.66-2.82,1.12,1.83.56-.28,2.4,1.55-3.77,7.45-7.85,11.24Z"/><path class="cls-2" d="M704.35,561.44C685.89,577.79,672,607,669.11,640.2c-2.18,25.09,2.29,47.84,11.33,64.53C688.48,715,699,721,711,721c29.67,0,57-37.13,60.94-82.93s-16.82-82.94-46.49-82.94a40.74,40.74,0,0,0-21.1,6.29Z"/><path class="cls-3" d="M704.35,561.44C685.89,577.79,672,607,669.11,640.2c-2.18,25.09,2.29,47.84,11.33,64.53A48.15,48.15,0,0,0,690,714,36.35,36.35,0,0,0,701.67,716c29.82,0,57.25-35.56,61.26-79.42S746,557.12,716.19,557.12c-1,0-2,0-3,.12a46.36,46.36,0,0,0-8.89,4.2Z"/><path class="cls-2" d="M704.35,561.44C685.89,577.79,672,607,669.11,640.2c-2.18,25.09,2.29,47.84,11.33,64.53a54.19,54.19,0,0,0,4.36,4.89,35.42,35.42,0,0,0,17,4.36c29.09,0,55.83-34.67,59.74-77.44S745.09,559.09,716,559.09a38.06,38.06,0,0,0-9.94,1.36c-.58.31-1.15.65-1.73,1Z"/><path class="cls-3" d="M727.23,632.52c.15,3-1.27,9.86-1.55,11.69s-2.25-2.53-2.67-4.92-1.83.7-4.51,0-4.08-3.24-5.76.42-.72-1.84-7.33-3.81-12,10.28-16.62,7-9-5.77-13.09-6.47-4.79-.85-4.79-.85,1.42-9.57,2-10.84,6.48.85,9.3-1.12,5.06-6.63,6.05-6.76,3.24,1.55,7.46,1.55,4.79-3.11,5.07-5.92-1.4-5.07-.7-6.9,3.8-4.08,5.21-3.94,4.23-9.86,5.77-10.42-1.26,9.71-1.26,13,2.53,4.23.7,8-3.52,4.36-3,8.17,4.49,3.79,5.48,4.36,3.8,3.52,6.19,5.77,8,2,8,2Z"/><path class="cls-2" d="M700.73,617.52c-6.17,0-11.84,7.54-12.68,16.84s3.5,16.82,9.67,16.82,11.86-7.53,12.69-16.82-3.5-16.84-9.68-16.84Z"/><path class="cls-3" d="M703.16,623.45c-4,0-7.73,4.91-8.28,11s2.29,11,6.31,11,7.74-4.92,8.29-11-2.29-11-6.32-11Z"/><path class="cls-2" d="M694.85,634.85c-.07,8.09,3.59,7.53,3.52,4.08a25.62,25.62,0,0,1,1.41-7.6,23.33,23.33,0,0,0-.36,9c.85,4.44,5.36,4.65,8,.67-1.57,2.67-3.85,4.4-6.24,4.4-3.93,0-6.72-4.69-6.34-10.56Zm13.48,4.33a13.52,13.52,0,0,1-.9,1.83Z"/><path class="cls-3" d="M698.72,610.28c.64.35,1.13,3.24.64,4.57s-1-.42-1.55-1.33-1.2,1.61-2,.35-1.83,1-1.83,1,.15-3.94,1.13-4.85,3-1,3.66.28Z"/><path class="cls-3" d="M695.27,608.24c-1.69.63-2.6,2.32-2.6,4.57s-.64.92-.92-1.2.49-.55-1.41-1.33-3.1-1.91-3.23.06-1.84.22-.78-2a5.05,5.05,0,0,1,3.66-2.89c.92-.29-.56.28-.42,1.48s.49,1.55,1.83,1.55,3.87-.21,3.87-.21Z"/><path class="cls-3" d="M724.28,616.9c.64.35,1.13,3.23.64,4.58s-1-.43-1.56-1.35-1.19,1.62-2,.36-1.83,1-1.83,1,.14-4,1.13-4.87,3-1,3.66.29Z"/><path class="cls-3" d="M720.83,614.85c-1.69.64-2.6,2.33-2.6,4.58s-.64.91-.92-1.19.49-.57-1.41-1.34-3.1-1.9-3.24.07-1.83.21-.77-2.05a5,5,0,0,1,3.65-2.88c.93-.28-.55.27-.41,1.48s.49,1.54,1.83,1.54,3.87-.21,3.87-.21Z"/><path class="cls-3" d="M716.39,655.2c.63.34,1.13,3.24.63,4.57s-1-.42-1.54-1.33-1.2,1.61-2,.34-1.84,1-1.84,1,.15-3.94,1.14-4.85,3-1,3.65.28Z"/><path class="cls-3" d="M712.94,653.15c-1.68.63-2.61,2.32-2.61,4.57s-.62.93-.91-1.19.5-.57-1.4-1.33-3.1-1.91-3.24.06-1.84.21-.78-2a5.07,5.07,0,0,1,3.66-2.9c.91-.28-.56.29-.42,1.48s.5,1.55,1.83,1.55,3.87-.21,3.87-.21Z"/><path class="cls-3" d="M691.47,649.84c.64.36,1.13,3.24.64,4.58s-1-.43-1.56-1.34-1.19,1.63-2,.36-1.82,1-1.82,1,.13-3.94,1.12-4.86,3-1,3.66.28Z"/><path class="cls-3" d="M688,647.8c-1.69.64-2.6,2.33-2.6,4.58s-.64.91-.91-1.2.49-.56-1.42-1.34-3.09-1.9-3.24.08-1.82.21-.77-2a5,5,0,0,1,3.66-2.88c.92-.28-.56.28-.43,1.48s.5,1.55,1.84,1.55,3.87-.22,3.87-.22Z"/><path class="cls-3" d="M701.68,661.11c2.4.91,10.77,9.72,13.52,17s2.46,23.87,2.46,27.53-7.18,5.36-10.28,4.51-11.41-3.38-12.53-4,9.57,1.27,12,1.13,1.26-22,.14-27.59-5.07-9.58-6.34-11.56-2.68-8.72,1.06-7Z"/><path class="cls-3" d="M687.24,664.77c2.19,1.61,4.09,8.79,3.39,14.72s-8,21.33-9.51,22.6-5.56-9.72-5.56-11.91,5.35-8.66,6.83-13.23,1.19-8.45,1.61-10.7a2,2,0,0,1,3.24-1.48Z"/><path class="cls-3" d="M721.18,646.39c-6.9-2.67-8.73.71-5.07,4.65s15.63,9.15,19.72,11.27,5.76,3,7.88,5.49-17.32-8.31-19.85-9.44,19.29,13.52,22.66,14.37,6.34-3.24,1-8.87-11.83-11.55-26.33-17.47Z"/><path class="cls-3" d="M755.25,608c2.33,2,4.3,7.47,3.81,11s-.85-1.2-2.12-3.31-2-.5-8.45,3.94-16.18,4.72-20.06,4.37-2.89-3.18,1.19-4.51,11.91-2.95,17.47-6.55,6.76-5.91,8.16-4.93Z"/><path class="cls-3" d="M737.37,572.4c-.14,3.8-10.56,23.37-17.32,28.16s-8.73,1.41-1.55-6.89S731.74,574,733,569.59s5.34-3.24,4.36,2.81Z"/><path class="cls-3" d="M703.58,566.35c1,3.66,2.25,21.54,1.54,29.57s0-6.91-1.54-9.72-3.38-2.67-4,2.54-1.69,12.66-1.69,12.66-.7-25.48,0-29.42,5.5-7.6,5.64-5.63Z"/><path class="cls-3" d="M679.22,604.64c1.83,1.27,6.33,7.46,4.36,12.82s-8.73.14-8.73-2,3.1-12,4.37-10.85Z"/><path class="cls-3" d="M670.21,658.57c3.1-2.82,5.21-4.22,6.34-9.29s-3-5.21-5.07-4.08l-2.12,1.12s-.14,14.51.85,12.25Z"/><path class="cls-4" d="M806.65,548.47S782.14,495,727.23,500,639.37,573,629.8,603.66c0,0,32.38-68.43,66.74-85s8.17,13.8,8.17,13.8,27-15.77,51.81-8.44,38.29,26.18,44.77,42.23c0,0-10.42-27-25.62-40.26s5.91-15.21,31,22.53Z"/><path class="cls-4" d="M784.12,732.35s-25.35,43.37-73.22,47.59-80.82-46.46-85.61-92.64c0,0,3.09,34.35,10.7,52.38s-11,7.31-16.61-3.39-2,9-11.55,7.61-28.73-8.73-36.61-17.18-13.52-24.21-13.52-24.21c11.54,55.39,50.19,72.12,103.91,79.4,33.23,4.51,85.9,9.3,122.51-49.56Z"/><path class="cls-3" d="M1226.25,474.9c-15.79,0-30.56,31.21-33,69.7s8.42,69.7,24.22,69.7,30.57-31.21,33-69.7-8.42-69.7-24.22-69.7Z"/><path class="cls-2" d="M1226.11,474.9c-15.73,0-30.43,30.9-32.85,69s8.38,69,24.1,69,30.44-30.89,32.85-69-8.38-69-24.1-69Z"/><path class="cls-3" d="M1225.49,478.48c-15.19,0-29.39,29.61-31.72,66.12s8.09,66.12,23.28,66.12,29.38-29.6,31.71-66.12-8.09-66.12-23.27-66.12Z"/><path class="cls-2" d="M1225.39,479.94c-14.85,0-28.73,28.95-31,64.66s7.91,64.65,22.76,64.65,28.74-28.94,31-64.65-7.91-64.66-22.76-64.66Z"/><path class="cls-3" d="M1225.38,480.85a11.28,11.28,0,0,1,5.46,1.43c6.35,3.44,10.75,12.37,13.36,21.87,3.42,12.41,4.25,26.9,3.39,40.37-1,15.9-4.52,32.43-10.68,45.25-4.72,9.87-11.67,18.58-19.76,18.58a11.46,11.46,0,0,1-5.47-1.43c-6.34-3.43-10.73-12.37-13.34-21.86-3.42-12.41-4.26-26.92-3.4-40.38,1-15.89,4.53-32.42,10.68-45.25,4.73-9.87,11.68-18.58,19.76-18.58Z"/><path class="cls-2" d="M1247.38,547.45c-1.24,15-4.69,30.28-10.47,42.32-2.58,5.41-5.83,10.46-9.58,13.93a76.48,76.48,0,0,0,8.69-14c1.63-3.8.68-6.43-2.71-.19s-10.63,12.18-10.63,12.18,7-9.64,7.9-11.54a75.21,75.21,0,0,0,5.16-14.22c2.21-8.34,7.5-26.34,6.87-20.88s-1.7,12.46-.84,10.83.77,3,2,1,3.55-19.25,3.58-19.38Z"/><path class="cls-2" d="M1223.2,484.83c-13.33,0-25.82,26.67-27.86,59.59s7.1,59.59,20.43,59.59,25.82-26.68,27.87-59.59-7.09-59.59-20.44-59.59Z"/><path class="cls-3" d="M1207.88,600.56h.43c13.25,0,25.64-25.54,27.67-57.05,1.94-30.23-6.35-55-18.73-56.94-10.91,6.45-20.17,29.89-21.91,57.84-1.61,25.89,3.7,47.91,12.54,56.14Z"/><path class="cls-2" d="M1204.2,596a9,9,0,0,0,2.54.37c11.93,0,23.12-23.89,25-53.35s-6.36-53.35-18.31-53.35h-.07c-9.14,9.16-16.45,30.21-18,54.71-1.37,22.05,2.28,41.31,8.86,51.62Z"/><path class="cls-3" d="M1202.54,593.13h.46c12,0,23.23-22.86,25.07-51.08,1.72-26.43-5.41-48.16-16.19-50.81-8.46,9.84-15.09,30-16.54,53.17-1.26,20.13,1.68,37.93,7.2,48.71Z"/><path class="cls-2" d="M1201.89,591.8a9.39,9.39,0,0,0,1.19.08c11.72,0,22.66-22.3,24.45-49.82,1.72-26.39-5.62-48-16.56-49.7-8,10.19-14.24,29.68-15.63,52.06-1.2,19.32,1.45,36.49,6.55,47.38Z"/><path class="cls-3" d="M1213.72,539.48c0,1.9-.57,6.34-.68,7.52s-.91-1.63-1.06-3.17-.74.45-1.82,0-1.62-2.08-2.32.27-.28-1.18-2.93-2.45-4.87,6.62-6.73,4.53a25.68,25.68,0,0,0-2.78-2.76q.4-5.73,1.2-11.17c.68-1.31,1.21-2.76,1.49-2.82s1.3,1,3,1,1.94-2,2.07-3.81-.53-3.26-.24-4.43,1.55-2.64,2.12-2.54,1.75-6.34,2.38-6.71-.57,6.26-.58,8.33,1,2.72.24,5.17-1.44,2.81-1.24,5.25,1.81,2.45,2.19,2.81,1.52,2.27,2.47,3.71,3.23,1.27,3.23,1.27Z"/><path class="cls-2" d="M1203.12,529.84c-2.49,0-4.81,4.84-5.19,10.82s1.32,10.82,3.8,10.82,4.82-4.84,5.19-10.82-1.32-10.82-3.8-10.82Z"/><path class="cls-3" d="M1204.06,533.64c-1.61,0-3.13,3.16-3.38,7.07s.87,7.06,2.48,7.06,3.15-3.16,3.4-7.06-.87-7.07-2.5-7.07Z"/><path class="cls-3" d="M1200.67,541c-.08,5.2,1.4,4.84,1.39,2.62a25.14,25.14,0,0,1,.61-4.88,22.92,22.92,0,0,0-.19,5.79c.31,2.85,2.13,3,3.22.42-.65,1.72-1.58,2.84-2.54,2.84-1.58,0-2.68-3-2.49-6.79Zm5.4,2.78c-.11.42-.24.81-.37,1.17Z"/><path class="cls-3" d="M1202.34,525.17a5.71,5.71,0,0,1,.23,3c-.2.86-.38-.27-.62-.86s-.48,1-.81.22-.75.64-.75.64a10.37,10.37,0,0,1,.49-3.12.77.77,0,0,1,1.46.17Z"/><path class="cls-3" d="M1201,523.86c-.69.4-1.07,1.49-1.08,2.94s-.25.59-.36-.77.2-.36-.56-.86c-.44-.29-.78-.65-1-.66q.24-1.14.48-2.25a3.22,3.22,0,0,1,.41-.21c.37-.19-.23.18-.18.94s.19,1,.74,1,1.56-.13,1.56-.13Z"/><path class="cls-3" d="M1212.61,529.43a5.68,5.68,0,0,1,.23,2.94c-.21.86-.4-.27-.62-.85s-.5,1-.83.22-.73.63-.73.63a10.59,10.59,0,0,1,.47-3.12.79.79,0,0,1,1.48.18Z"/><path class="cls-3" d="M1211.22,528.12c-.68.4-1.06,1.49-1.07,2.93s-.26.6-.36-.76.21-.37-.56-.86-1.24-1.23-1.31,0-.73.14-.29-1.31,1.11-1.68,1.48-1.85-.23.17-.17,1,.19,1,.72,1,1.56-.14,1.56-.14Z"/><path class="cls-3" d="M1209.23,554.06a5.7,5.7,0,0,1,.24,3c-.21.86-.4-.27-.62-.86s-.49,1-.83.22-.74.64-.74.64a10.73,10.73,0,0,1,.48-3.13.78.78,0,0,1,1.47.18Z"/><path class="cls-3" d="M1207.86,552.75c-.68.41-1.06,1.49-1.07,3s-.26.59-.37-.78.2-.35-.55-.86-1.25-1.22-1.32.05-.73.13-.3-1.32a2.46,2.46,0,0,1,1.49-1.85c.38-.18-.22.18-.18.95s.2,1,.73,1,1.57-.14,1.57-.14Z"/><path class="cls-3" d="M1199.23,550.62a5.82,5.82,0,0,1,.23,3c-.21.86-.4-.27-.62-.87s-.49,1-.83.23-.74.64-.74.64a10.73,10.73,0,0,1,.48-3.13.79.79,0,0,1,1.48.18Z"/><path class="cls-3" d="M1197.85,549.3c-.69.41-1.06,1.5-1.07,3s-.27.59-.37-.77.2-.36-.56-.86c-.3-.19-.55-.42-.75-.55,0-.74,0-1.5.06-2.25a2.66,2.66,0,0,1,.57-.32c.38-.19-.22.18-.17.94s.19,1,.72,1,1.57-.14,1.57-.14Z"/><path class="cls-3" d="M1203.28,557.87c1,.59,4.28,6.25,5.35,10.91s.88,15.36.86,17.71-2.92,3.44-4.16,2.9a52.38,52.38,0,0,1-5-2.54c-.45-.36,3.86.82,4.82.73s.62-14.13.19-17.75a23.53,23.53,0,0,0-2.5-7.43c-.49-1.27-1-5.62.47-4.53Z"/><path class="cls-3" d="M1197.45,560.23c.87,1,1.6,5.66,1.29,9.46a48.47,48.47,0,0,1-1.53,7.18q-1-4.83-1.52-10.25c.33-2.32.3-4.24.45-5.45.18-1.45,1.09-1.4,1.31-.94Z"/><path class="cls-3" d="M1211.21,548.4c-2.77-1.72-3.52.45-2.06,3s6.24,5.89,7.88,7.24a9.89,9.89,0,0,1,3.14,3.54c.84,1.63-6.94-5.34-7.94-6.06s7.69,8.69,9,9.23,2.57-2.08.45-5.71a30.86,30.86,0,0,0-10.52-11.23Z"/><path class="cls-3" d="M1225.12,523.67c.92,1.27,1.7,4.81,1.48,7.07s-.34-.77-.84-2.13-.82-.31-3.42,2.54a9.76,9.76,0,0,1-8.1,2.81c-1.56-.23-1.14-2,.5-2.91s4.82-1.89,7.07-4.2,2.76-3.8,3.31-3.18Z"/><path class="cls-3" d="M1218.1,500.81c-.08,2.44-4.37,15-7.12,18.12s-3.52.9-.59-4.45a67.84,67.84,0,0,0,6-15.48c.53-2.81,2.17-2.09,1.74,1.81Z"/><path class="cls-3" d="M1204.92,502.54c.19,4.4.28,10.15.07,13.39-.32,5.17,0-4.44-.57-6.25s-1.34-1.72-1.59,1.64-.75,8.14-.75,8.14,0-4.93,0-9.8c.89-2.53,1.85-4.92,2.88-7.12Z"/><path class="cls-4" d="M1244,478.85s-10.23-28.82-26.82-25.14-35.49,40.55-42.25,72.38c0,0,6.48-22.11,12.39-29.58s5.21,15.78,5.21,15.78,7.47-27.46,21-38,24.08-1.13,28,7.18a30.24,30.24,0,0,0-12.67-14.79c-9.58-5.63,1.69-12.53,15.14,12.19Z"/><path class="cls-4" d="M1114.43,597.34s6.76,19.42,14.92,26.46,27.46,9.72,51.82,9.72,35.76-3.8,43.93-11.83,16.62-26.61,16.62-26.61-10.29,20.14-19,26.19-22.1,7.46-33-4.93-18.44-40.69-18.44-40.69,3.38,20.42,6.76,30-7.47-9.72-8.17-1.84-1.54,6.34-13.8,6.76-22.95-11.68-24.07-2.1-17.6-11.12-17.6-11.12Z"/><path class="cls-2" d="M1273.2,384.63c-5.53-11-17.06-30.37-30.39-32-6.4-.77-12.86-1.28-19.29-1.56a7,7,0,0,0-5,12.24c5.54,5.05,11.28,10.09,16.69,15.26,2.26,2.15,6,4,8.87,5.34,3.74,1.83,7.54,3.57,11.26,5.45a89.43,89.43,0,0,1,7.84,4.36,7,7,0,0,0,10.07-9.1Z"/><path class="cls-2" d="M582.58,628.76A28.53,28.53,0,0,0,594.36,623a42.08,42.08,0,0,0,5.57-6.33c2.63-3.38,5.16-6.85,7.67-10.33,6.79-9.44,13.42-19,20.08-28.52q7.44-10.68,14.94-21.3c3.84-5.42,7.72-10.87,11.78-16.13,14.54-18.82,36.4-37.53,57.69-48a98.88,98.88,0,0,1,25.83-8.82c35.8-6.55,65.7,15.32,77.46,48.57a134.91,134.91,0,0,1,7.39,47.23A115,115,0,0,1,821,598.88a73.39,73.39,0,0,0-3,6.91,79.09,79.09,0,0,0-2.83,10.46c-1.29,5.48-2.51,11-3.7,16.46q-2.89,13.26-5.62,26.56a7,7,0,0,0,7.64,8.41c8.92-.94,18-2.27,26.8-3.75,5.13-.85,10.64-2.33,15.71-3.53q15.7-3.74,31.38-7.62,44.77-11,89.49-22.24,68.14-17,136.26-34.26c7.58-1.59,16.3-13.25,20.71-19s8.29-11.47,12.38-17.26a57.42,57.42,0,0,0,7.13-14.3,24.3,24.3,0,0,0,8.54-4.26c2.71-2.28,5.35-7.59,7-10.75,2.64-5.16,5.12-10.41,7.6-15.63,1.25-2.61,2.49-5.22,3.76-7.82,7.07-20.91,18-40.81,29-49.39,6-7.44,14-15.59,20.11-14.35,8.33,1.71,10.86,15.87,11.32,27.73a65.54,65.54,0,0,1,3.43,7.64h0c6.21,15.39,8.4,31.74,9.17,40.79a7.14,7.14,0,0,0,3.59-2.88l13.42-21.13c3.23-.64,6.43-1.33,9.63-2,4.24-.95,13-2.54,15.88-5.89,2.19-2.57,2.83-6.73,3.09-10,.31-3.9.37-9-2.6-11.93-1.85-1.87-7.46-3.92-12.21-5.47q1.41-9.15,2.57-18.33c.59-4.57,1.13-9.16,1.53-13.75a60.13,60.13,0,0,0,.28-10.56c-1.11-10.9-2.07-19.5-9.2-28.61-4-5.16-11.74-9.3-17.55-12.24-3.65-1.84-7.36-3.55-11-5.33a40.24,40.24,0,0,1-5.75-3.12c-3.81-3.63-7.82-7.18-11.72-10.73q-11-10-22.11-20.08-15.84-14.4-31.71-28.77c-1.21-4.59-6-8.2-9.5-11-2.08-1.66-4.39-3.22-6.59-4.73-3.13-2.16-6.3-4.28-9.47-6.4q-8.4-5.58-16.86-11.08c-26.4-17.52-55.75-27.65-86.69-33.72-37.52-7.36-77.14-9-115.31-9.33a1097.28,1097.28,0,0,0-114.8,4.9c-25.73,2.5-51.46,6-76.84,10.89-10.42,2-25.37,5.17-34.71,10.49a18,18,0,0,0-6.75,6.08C687.7,275.55,674,287,660.53,298.4c-21.42,18.2-42.65,36.86-63.45,55.78a20.82,20.82,0,0,0-5.6,2.11c-3.42,2-5.27,4.95-7.4,7.94q-14.18.81-28.33,1.82c-33.43,2.37-67,5.26-100.31,8.65-27.87,1.77-55.84,3.68-83.65,6.17-26,2.32-52.14,5.62-77.94,9.39-21,3.06-42.25,6.48-62.92,11.17-17.5,4-35.07,8-52.44,12.54-6.11,1.61-12.24,3.28-18.27,5.2a71,71,0,0,0-11.91,4.69c-7.21,4-11.86,12.74-13.94,20.87-14.8,6.78-29.45,14-43.86,21.63-5.61,2.95-11.21,6-16.73,9.11a89.67,89.67,0,0,0-9.28,5.69c-7.43,5.56-8.47,9.43-6.54,18.38A65.1,65.1,0,0,0,60.73,508c1.43,3.84,2.94,7.65,4.47,11.43q2.42,6,4.91,12c-1.41.41-2.82.84-4.19,1.3-4.78,1.58-11.4,4.07-14,8.64-4,6.9-3.62,17.59-1.09,25,1.58,4.58,8.67,9,12.62,11.55,6.55,4.25,13.39,8.19,20.2,12,9,5.06,18,10,27.14,14.8-1.6,9-4.84,24.14-8.07,28.1-3.85,4.75-7.86,9.14-11.83,13.75-6.34,7.34-3.91,17-.69,25.15,6.39,16.14,29.92,28,44.87,34.19,11.45,4.7,24,8.48,35.82,12.08,16.63,5,33.38,9.74,50.15,14.25,21.75,5.85,43.67,11.49,65.65,16.44,40.58,9.14,81.64,11.35,123.1,9.68,17.13-.7,34.27-2.22,51.25-4.55a419.47,419.47,0,0,0,44.33-8.34c27.12-6.78,38.65-20.35,48.34-45.67,4.19-10.91,8.62-21.76,13-32.58q7.88-19.26,15.88-38.47Z"/><path class="cls-5" d="M1111.54,589.41S853.87,654.53,839.09,657s-26.4,3.7-26.4,3.7,9.68-47,11.79-52.27a57.22,57.22,0,0,1,3.18-7s7.55-34.32-5.64-71.63-46.82-60.2-85.36-53.15-72.87,40.12-87.83,59.49-52.81,76.38-59,81.49-12.15,4.57-12.15,4.57-22,52.63-30.62,75.16-18.13,35-43.47,41.36-59.5,11.26-94.16,12.67-76.75.53-121.28-9.5S163.41,710,137.72,699.4s-37.68-21.82-41-30.26-3.87-14.09-.53-18,5.81-6.34,12-13.91,10.38-36.42,10.38-36.42-58.95-30.63-61.07-36.79-2.11-14.61.54-19.18,21.82-8.63,21.82-8.63-13.55-31.67-15-38.19-1.05-7.57,3.88-11.26,38-21.83,71.81-37.14c0,0,2.37-14.78,11.17-19.63s40.48-12.59,80.79-21.74S339,390.87,372.41,387.88,456,381.72,456,381.72s72.68-7.39,130.41-10.56a4,4,0,0,0,2.34-1.41c.92-1.19,3.74-5.93,6.2-7.35a13.91,13.91,0,0,1,5.29-1.58s67.58-61.6,107.36-91.53c0,0-.53-6.86,37-14.07s102.26-16.38,190.26-15.66,149.95,9.85,198.18,41.88c0,0,27.11,17.6,32.38,21.83s8.11,6.86,6.87,8.62c0,0,63.71,57.73,67.76,61.6s27.28,11.79,33.62,19.89,6.86,16.37,7.74,25-5.28,46.81-5.28,46.81,13.91,4.31,15.14,5.55.61,10.64-.89,12.4-24.46,6.16-24.46,6.16l-13.68,21.53a156.05,156.05,0,0,0-3.17-16.39l-.22-3.82-1.58-4.75s4.93-44.88-16.55-49.28-46.46,47.35-53.33,60.54-16.72,36.08-20.06,38.9-9.69,3.69-9.69,3.69a48.94,48.94,0,0,1-7.21,16.2c-5.46,7.75-22,32.39-28.87,33.49Z"/><path class="cls-6" d="M1147,542.05s-2.33,3.25-21.87,7.83S837,611.65,831.93,612.36s-1.41-5.45-1.41-5.45l313.81-66.36s4.94-1.41,2.69,1.5Z"/><path class="cls-3" d="M583.31,518.83a23.33,23.33,0,0,1,3.37,9c1.06,5.84.93,8.24-.34,12.88s-2.75,7.81-4.51,8.66-33.65,5.77-33.65,5.77-10.91-3-11.55-4.16-3.17-11.75-3-15.2,1.62-11.27,1.62-11.27,45.91-6.76,48.09-5.7Z"/><path class="cls-7" d="M578.73,524.4a3.45,3.45,0,0,1,2.53,2.39c.36,1,2.12,8.31,2.54,10.13s-1.4,10.78-2.75,12-39.84,6.12-41.47,5.21-5.49-13-5-16.34,5.71-7.74,5.71-7.74Z"/><path class="cls-8" d="M65,490.13a17,17,0,0,1,3.68-3.33c4.93-3.7,38-21.83,71.81-37.14,0,0,2.37-14.78,11.17-19.63s40.48-12.59,80.79-21.74S339,390.87,372.41,387.88,456,381.72,456,381.72s72.68-7.39,130.41-10.56a4,4,0,0,0,2.34-1.41c.92-1.19,3.74-5.93,6.2-7.35a13.91,13.91,0,0,1,5.29-1.58s67.58-61.6,107.36-91.53c0,0-.53-6.86,37-14.07s102.26-16.38,190.26-15.66,149.95,9.85,198.18,41.88c0,0,27.11,17.6,32.38,21.83s8.11,6.86,6.87,8.62c0,0,63.71,57.73,67.76,61.6s27.28,11.79,33.62,19.89c6.22,7.94,6.84,16.07,7.69,24.52-15.31,1.49-61.66,5.12-61.66,5.12l-37.74,1.41-105.6,8.73L968.49,445l-89.27,9.58L795,464.42s-120.53,14.64-158.26,20.84S505,511.17,505,511.17l-2.39.28s.06-15-2.25-22.67a46.13,46.13,0,0,0-11.48-18.66c-4.72-4.85-16.47-7.53-23.09-7.25a75.2,75.2,0,0,0-19.92,3.23,402.07,402.07,0,0,0-51.75,19.65c-20,9.43-56.18,28.3-63.93,33.65S306.64,536.73,305,537s-8.87-.27-8.87-.27-35.62-4-57.17-6.2-89.55-13.1-108.28-17S78.26,495.6,72.9,493.35s-5.13-2.5-6.43-3a4.41,4.41,0,0,0-1.43-.26Z"/><path class="cls-9" d="M1248.8,378.41c-15.23-6.78-50.64-15-67-13.22-12.47,1.38-28.79,8.18-42.27,11-31.35,6.65-77.11,6.86-110.19,7.93-71.41,2.33-140.48,4.5-211.76,11-101.57,9.27-203.09,24.62-300,57.66a115.67,115.67,0,0,0-11.44,4.3,71.76,71.76,0,0,0,7.61-2.11c43.94-12.94,88.39-24.43,133.43-32.95,123-23.29,257.25-28.29,382.27-33.56,30.87-1.31,72.15-2.07,101.68-7.43,37-6.73,41.26-18.95,81.37-11.36,12.61,2.39,24.36,6.28,36.29,8.7Z"/><path class="cls-10" d="M881.14,379.15S750.47,382,622.62,405.62,408,468.7,374.24,484.47s-74.62,43.93-80.54,47,37.17-30.41,52.94-40-42,21.68-31.54,8.17-16.61-10.7-56.6-15.21-43.65-4.22-66.46,2.82-53.79,23.09-53.79,23.09,83.36-52.38,127.86-71c0,0,31.25,2.25,59.69,1.12s114.34-25.07,183.33-40-101.37,27-123.35,35.76,22.81,9.58,55.48,5.64,190.37-63.65,439.88-62.8Z"/><path class="cls-9" d="M717.24,371.82S586,381.41,500.4,400s-154.32,34.35-172.91,37.17-52.38.28-62.8,0-23.65-.85-4.22-9,54.91-18.59,94.34-27.6,102.51-17.74,102.51-17.74-94.91,16.33-128.7,25.63-57.45,15.77-50.41,17.45,36.61,2.82,50.69.29,212.9-54.07,388.34-54.36Z"/><path class="cls-2" d="M1274.36,463.63a23.87,23.87,0,0,1-3.62,1.57c-2.33.88-4.69,1.67-7.06,2.43q-6,1.94-12.06,3.68a2.29,2.29,0,0,0-1.57,1.51c-.47,1.41-.93,2.82-1.37,4.24a24,24,0,0,0-1.22,4.86c0,.6-.07,1.25-.13,1.85q-.12,1.73-.27,3.45v.1c.84,2.68,1.57,5.36,2.21,8l.2,0,16.93-3.65.17,0,.25-.06q6-1.15,12-2.5c2.69-.61,5.38-1.24,8-2,1.48-.42,4.3-1.18,5.32-2.37,1.37-1.62,1.82-5.27,2-7.35s.43-6.58-1.23-8.24c-1.28-1.27-6.51-3-8.31-3.58-2.58-.88-5.19-1.73-7.79-2.54a2.31,2.31,0,0,0-2.45.68Z"/><path class="cls-11" d="M1276.11,465.19s13.91,4.31,15.14,5.55.61,10.64-.89,12.4-20.76,5.44-24,6.08h0l-.46.08h0L1249,493v-.23c.12-1.51.85-9.93.85-10.81s2.46-8.35,2.46-8.35,22.61-6.51,23.84-8.38Z"/><path class="cls-2" d="M1291,472.21a48.12,48.12,0,0,1-.15,5.6c-.27,2.6-.66,4.58-2.11,5.37s-36.13,7.7-37.14,8.09l-1,.4,1.5-10.95s32.7-7.27,35.42-7.53-27.81,7-30.27,8.05,2.42,1,6.29.8,2.82-2.91,5.81-1.81,2.42.49,7.52-.48,6.25,0,8.05-2,1.24-3,2.82-1.2,3.28-4.32,3.28-4.32Z"/><path class="cls-9" d="M1281.14,415.88c-24.46-.69-73.76,3.06-131.12,8.34a50.39,50.39,0,0,1-1.42,6,8.62,8.62,0,0,0-.29,1l1.68-.27c30.51-4.94,27.78-3.49,24.89,2.1s27.1-1.4,27.1-1.4,44.14,4.14,41.26-2.16,1.15-6.83,10.13-5.41,12-3,21.11-3.52c3.61-.21,5.74-.39,7-.54,0-.61,0-1.15-.09-1.6-.08-.84-.17-1.67-.25-2.5Zm-154.08,17.53a23.37,23.37,0,0,1-1.12-2.16,37.91,37.91,0,0,1-1.68-4.61c-32.94,3.13-67.59,6.59-101.11,9.89-107.36,10.56-301,31-343.2,36.26s-163.69,31.32-175.3,37,13.37,1.05,30.62-3.87,10.21,8.44,26.4-2.47,15.84-5.63,39.07-9.85,21.12,1.4,17.6,8.09,50-9.15,72.52-17.95S704.94,472.79,732,471s90.68,11.49,88.94,9-5.52-12.88,9.27-15.34S942.54,451.31,970,448.15s29.21,2.1,51.39-4.93c17.75-5.64,69.9-7,105.67-9.81Z"/><path class="cls-2" d="M1001.52,248.64c-14-1.65-28.07-2.9-42.17-3.66-21.37-1.18-42.72-1.23-64.1-.85-27.83.49-55.7,1.59-83.53,2.59-14,.49-28,1.28-42,2.7-9.7,1-19.47,2.25-29,4.17a174.23,174.23,0,0,0-19.88,5,52.7,52.7,0,0,0-10.41,4.47c-1.65,1-4.13,2.76-4.91,4.86-6.66,5-13.22,10.25-19.69,15.53Q674.58,292.6,663.57,302,641,321.15,618.93,340.88q-9.88,8.79-19.69,17.68a16.11,16.11,0,0,0-5.43,1.81c-2.44,1.39-4.67,4.71-6.26,7l-6.09,3.91,7.3-.83c1.19-.57,5-.64,6.32-.9,3.08-.62,6.23-1.06,9.35-1.42a289.25,289.25,0,0,1,30-1.83c12.51-.18,25-.16,37.53-.11q27.72.07,55.44.52,17.76.3,35.49.8c10.4.31,20.8.69,31.19,1.25q24.23,1.33,48.47,2.71,27.53,1.56,55,3.21,10.33.62,20.64,1.29c4.12.27,8.25.53,12.36.89,6,.52,12.66.88,18.68,0,4.68-.66,9.5-2.15,12.81-5.69s5.64-8.38,7.54-12.7c2.78-6.33,5.15-12.94,7.56-19.42,1.84-4.95,3.6-9.95,5.36-14.93q3.56-10,7.06-20.09c2.66-7.6,5.3-15.2,8-22.8,1.74-5,3.46-10,5.29-14.87a62.94,62.94,0,0,0,3.09-10c.41-2.24.58-5-1.31-6.65a4.87,4.87,0,0,0-3.12-1.12Z"/><path class="cls-2" d="M589.49,368.72c1.27-1.85,3.49-5.18,5.48-6.32a13.91,13.91,0,0,1,5.29-1.58s67.58-61.6,107.36-91.53c0,0-.5-6.43,33.54-13.4,15.39-3,37.9-5.67,70.65-6.84,89.06-3.16,131.66-4.92,189.56,1.94,3.69,0,3.17,4.23-.71,14.61S980.6,323.15,975,338.29s-9.51,25.87-14.62,31.33-15.48,6.16-29.56,4.93-88.35-5.46-136.58-8.1S658.87,363.64,634.4,364s-41.24,3-44.91,4.74Z"/><path class="cls-12" d="M978.9,378.41h0Zm-.17,0a31.07,31.07,0,0,1-4.94-.34,2.6,2.6,0,0,1-1.65-1.05h0a19.84,19.84,0,0,1-1.07,6.42c-1.16,3.08.08,2.37-10.13,8.89s-15.84,7.57-15.14,18.12,6.35,24.11,7.39,33.8-1.58,42.41-5.27,69.87-12.33,66.18-12.67,71.29,2.1,4.57.52,7.39S925,613,930.14,612.68s167.38-37.31,179.71-42.59,18.65-17,19.36-19.36-1.06-4.49-.36-6.6.44-2.81,5.55-15.67,14.43-41,20.94-65.65,8.63-35.54,7.21-52.1-9.32-31-11.17-33.26-5.19-4.3-8.54-6.16c-2.31-1.28.4-2.6,2.29-3.29-4.19,1.33-8,2.3-10.47,3l-1,.27h0a16.68,16.68,0,0,1,3.69.43c1.68.44,8.27,3.7,11.09,6.51s9,14.43,11.09,25.88,3.51,17.95-6.34,58.07-26.49,78.59-27,81.67.71,5.29-.35,7.57-7.65,13-18,16.2-168.44,40.12-172.48,41.09-3.61,0-2.91-2.63,5.9-11.79,6.34-14-1.67-3.78-1.23-6.6,9.77-46,13.82-74.89,5.1-57.72,4.57-65.65-3.87-16-7-28.69,4.39-16.2,14.26-21.29,11.35-9,11.7-11.89,1.12-4.7,4-4.67Zm167.92-10.9h0Z"/><path class="cls-2" d="M976.91,377.88h0Zm-.17,0a27.86,27.86,0,0,1-4.94-.33,2.65,2.65,0,0,1-1.66-1h0a19.57,19.57,0,0,1-1.08,6.4c-1.14,3.09.1,2.38-10.11,8.89s-15.84,7.57-15.14,18.14,6.33,24.11,7.39,33.78-1.58,42.43-5.28,69.88-12.32,66.18-12.66,71.28,2.1,4.58.52,7.39-10.73,20.24-5.63,19.9,167.38-37.32,179.69-42.6,18.66-17,19.36-19.35-1-4.5-.34-6.61.44-2.82,5.54-15.66,14.44-41,20.95-65.65,8.61-35.56,7.21-52.1-9.33-31-11.17-33.26-5.19-4.32-8.54-6.16c-2.31-1.28.4-2.6,2.29-3.31-4.21,1.35-8,2.31-10.47,3q-.47.13-1.05.27h0a16.8,16.8,0,0,1,3.7.43c1.66.44,8.27,3.69,11.09,6.51s9,14.43,11.08,25.87,3.52,18-6.33,58.08-26.49,78.59-27,81.67.71,5.27-.35,7.57-7.66,13-18,16.18-168.44,40.14-172.48,41.1-3.62,0-2.92-2.64,5.9-11.79,6.34-14-1.67-3.79-1.23-6.59,9.77-46,13.81-74.9,5.11-57.73,4.58-65.64-3.86-16-7-28.69,4.4-16.2,14.26-21.3,11.35-9,11.7-11.88,1.13-4.71,4-4.69ZM1144.65,367h0Z"/><path class="cls-2" d="M825.41,600.85c0,1.58-.16,3.24.64,4.67a5.53,5.53,0,0,0,3.49,2.47c4.7,1.36,7.76-.86,9.45-5.29a25.15,25.15,0,0,0,1-4.12c.45-2.53.8-5.11,1.1-7.67a219.92,219.92,0,0,0,1.42-24.2c.12-22-2.77-45.28-10.7-65.93a101.37,101.37,0,0,0-21.55-34,102.72,102.72,0,0,0-42.6-26.36c-17.93-5.81-36.94-6.91-55.57-4.43-52,6.9-88.36,52.38-111.24,95.92-13.74,26.16-26.5,52.81-39,79.56-1,2.16.61,4.14,2.18,5.48a34.66,34.66,0,0,0,5.1,3.42c2.47,1.43,5.1,2.77,7.69,4a2.29,2.29,0,0,0,.77.19,15.81,15.81,0,0,0,4.5-.41,22.47,22.47,0,0,0,9.35-4.69,18.65,18.65,0,0,0,2.09-2.17c1-1.11,1.87-2.25,2.77-3.42,2.59-3.33,5.09-6.77,7.56-10.2,6.78-9.4,13.4-19,20-28.46q7.45-10.7,15-21.33c3.88-5.47,7.8-11,11.9-16.28a183.72,183.72,0,0,1,24-25.21A164.47,164.47,0,0,1,710,488.14a103.43,103.43,0,0,1,27.07-9.25,69.63,69.63,0,0,1,43.72,5.8c18.79,9.25,32.1,26.3,39,45.83a139,139,0,0,1,7.67,46.13,147.15,147.15,0,0,1-.85,15.86c-.3,2.63-.65,5.3-1.17,7.9a2.06,2.06,0,0,0,0,.44Z"/><path class="cls-2" d="M827.76,600.86c.86-4.38,6.52-36.46-5.74-71.12-13.2-37.31-46.82-60.2-85.36-53.15s-72.87,40.12-87.83,59.49-52.81,76.38-59,81.49-12.15,4.57-12.15,4.57-15.14-6.9-13.82-9.72,20.69-44.61,39-79.47,53.86-87.3,109.48-94.69,100.32,19.36,117.21,63.36,8.8,96.1,7.22,100.24-3.87,4.66-6.6,3.87-2.46-2.12-2.44-4.87Z"/><path class="cls-2" d="M1251.12,491.17a90.31,90.31,0,0,0,2-21.31,94.72,94.72,0,0,0-4.6-28.65,66.45,66.45,0,0,0-2.72-6.8A63.36,63.36,0,0,0,1230,413.12c-6.07-5.17-13.61-9.06-21.74-9.06a20.71,20.71,0,0,0-3.24.25c-18.52,2.86-31.5,29.92-38,45.18-2.38,5.58-4.49,11.34-6.52,17.05-2.5,7-4.88,14.08-7.19,21.17q-5.37,16.35-10.3,32.85c-1.1,3.7-2.2,7.41-3.23,11.14-.3,1.14-1.36,4.56-1.17,5.69.65,3.88,5.79,4.62,9,4.68a1.53,1.53,0,0,0,.37,0c3.48-.48,8.15-1.94,10.87-4.22,2-1.69,4.62-6.94,5.83-9.31,2.62-5.11,5.07-10.33,7.55-15.51,2.36-4.94,4.72-9.92,7.26-14.8s4.85-9.48,7.41-14.18c3.59-6.6,7.38-13.14,11.55-19.39,5.64-8.48,19.68-28.23,31.81-25.75a12.89,12.89,0,0,1,5,2.23c5.45,4,7.83,12.2,8.93,18.57a92.93,92.93,0,0,1,1.16,17.64c0,1.5-.07,3-.15,4.56,1.36,3.71,2.5,7.43,3.46,11.07h.26a2.32,2.32,0,0,0,2.18-1.8Z"/><path class="cls-2" d="M1248.83,490.62l-1.58-4.75s4.93-44.88-16.55-49.28-46.46,47.35-53.33,60.54-16.72,36.08-20.06,38.9-9.69,3.69-9.69,3.69c-4-.08-6.42-1.14-6.68-2.72s18.21-63,28.25-86.6,23-44,39.07-44,31.68,16.72,38,35.55,4.75,39.42,2.55,48.66Z"/><path class="cls-2" d="M118.48,603.4c-.1,4.1.5,9.75,3.32,12.27,1.45,1.29,7.4,2.93,9.32,3.5,6.41,1.9,12.9,3.61,19.36,5.27,18.88,4.89,37.89,9.42,56.9,13.75,13.17,3,26.37,5.92,39.6,8.64q33.32,6.88,66.74,13.26,11,2.1,22,4.08c2.17.39,4.35.78,6.53,1.12a21.89,21.89,0,0,0,3.21.43c2.19,0,4.15-1.66,5.5-3.46,2.71.47,5.49.82,8.18,1.19,11.11,1.48,22.3,2.62,33.45,3.67,12.08,1.13,24.36,1.57,36.49,1.8,12.38.24,24.8.22,37.18-.14,4.57-.12,9.15-.3,13.7-.61,1.6-.11,3.22-.24,4.81-.41a29.68,29.68,0,0,0,3.27-.52c5.83-1.39,9.71-12.21,11.42-17.23,1.38-4.07,2.57-8.23,3.6-12.39.35-1.38.69-2.78,1-4.17q12-1.61,24-3.43c5.4-.83,10.81-1.68,16.19-2.67,2-.37,4-.75,5.93-1.21a17.43,17.43,0,0,0,3.73-1.18,7.21,7.21,0,0,0,1.95-1.57c2-2.24,2.19-5.47,2.21-8.31,0-3.72-.3-7.46-.3-11.19a41,41,0,0,0-.38-6.93A5.55,5.55,0,0,0,555,592.9c-1.43-.86-3.1-.69-4.69-.69-.93,0-1.92.08-2.85.14-2,.11-4,.24-6,.37l-20,1.27q-29.37,1.86-58.76,3.4c-13.47.68-26.94,1.29-40.41,1.71-10.59.32-21.3.59-31.9.32q-14.52-.36-29-1.34c-7.79-.55-15.58-1.25-23.34-2.2-5.48-.68-11.06-1.48-16.47-2.64-2.11-.45-6.15-1.33-8-2.45-1.13-.75-3.17-5.79-3.67-7.09-1.84-4.77-3.34-9.78-4.73-14.71-2.29-8-4.38-16.25-6.19-24.4a2.33,2.33,0,0,0-2-1.83c-26.27-3-52.52-6.2-78.72-9.79-17.31-2.37-34.62-4.89-51.87-7.72-9.8-1.62-19.6-3.32-29.33-5.26-3.7-.73-7.39-1.5-11.07-2.34-1.07-.25-2.21-.63-3.26-1q-3-1-6-2-8.22-2.78-16.37-5.77c-4.85-1.79-9.68-3.61-14.45-5.57-1.87-.78-3.75-1.56-5.6-2.42a37,37,0,0,1-3.6-1.85,49.82,49.82,0,0,0-5-2.82c-1.47-.65-3.23-1.12-4.53.17-1.65,1.63-.52,4.2.17,6,.88,2.36,1.88,4.72,2.84,7.06q2.41,5.91,4.87,11.83L80.26,534a2,2,0,0,0-.94,0,112.15,112.15,0,0,0-11.92,3.22C64,538.29,57.8,540.5,56,543.71c-3.27,5.67-2.8,15-.72,21.11.55,1.62,2.48,3.23,3.78,4.26,2.19,1.76,4.59,3.35,6.94,4.88,6.48,4.19,13.24,8.09,20,11.89,10.39,5.87,21,11.57,31.53,17.08l.1,0Z"/><path class="cls-2" d="M118.52,600.85s-58.95-30.63-61.07-36.79-2.11-14.61.54-19.18,21.82-8.63,21.82-8.63l5.36,3.39s-14.08-33.8-15.66-38-1.76-5.27,6-.53,45.41,17.78,50,18.84,46.47,10.91,171.26,25.17c0,0,9.86,44.17,15.67,47.7s35.9,7.91,78,9,155.93-7.21,160-7.21,5.11-.71,5.11,9.33,1.58,16.72-2.65,19-50.68,8.45-50.68,8.45S495.61,663,487.52,665s-62.83,2.81-94.69-.18-42.95-5.11-42.95-5.11-2.1,3.71-4.4,3.71-48.58-8.63-98-18.84-120.92-27.81-124.08-30.62-2.47-12-2.47-12Z"/><path class="cls-11" d="M118.52,600.85s-58.95-30.63-61.07-36.79-2.11-14.61.54-19.18c2.33-4.07,17.72-7.71,21.14-8.48,0,0-1.7,3.06,6.75,8.7s38.89,20.24,45.23,21.83,152.24,29.21,199.77,34.49S414,606,446,604.59s102.4-5.94,105.78-6.52c2.89-.48,3.47.24,3.6,1.8.06,1.09.09,2.42.09,4,0,10,1.58,16.72-2.65,19s-50.68,8.45-50.68,8.45-107.36,10.91-158.41,7.75S127.77,604.41,120.9,602Z"/><path class="cls-2" d="M552.47,605.29s-132.19,19.71-208.92,13-208.39-28.16-222.12-33.44S58.36,553.58,57,547.14c0,0,47,28.23,67.44,34s187.8,33.44,235.67,34.49c15.56.34,40.27.77,68-.69,57.52-3.07,124.42-9.69,124.42-9.69Z"/><path class="cls-11" d="M296.38,557.14c-10.17,0-31.07-3.41-41.69-4.8-33.25-4.31-69.5-8.65-102.18-15.46-15-3.12-51.64-16.91-64.87-24.65a49.27,49.27,0,0,1,6.6,2.37c22.73,8.73,41.76,16.78,66.09,20.88,33.19,5.6,67.11,10.47,100.43,15.68,9.38,1.46,26.94,3.56,35.62,6ZM100,535.33c11.17,3.47,25.45,9.89,36.84,14.15,19.37,7.26,27.36,9.42,47.69,13,37,6.43,74.81,13,111.67,20.28a72.86,72.86,0,0,1,8,1.81c-5.21-.14-14.06-1.71-19.42-2.51-37.76-5.6-78.62-11.52-115.78-19.51-15.55-3.34-55.15-19.25-69-27.18Zm-4.75-8.75c10.84,3.48,24.41,9.74,35.54,13.92,22.08,8.32,32.5,10.54,55.63,14.41,35.3,5.9,71.43,12,106.58,18.62a72.14,72.14,0,0,1,7.82,1.7c-6.08-.1-17.3-2-23.58-2.92-36.46-5.15-76.25-10.55-112.08-18.25-16.64-3.56-55.28-18.78-69.91-27.48Zm-3.52-7.35c9.58,3,21.78,8.62,31.7,12.25,28.9,10.62,44.43,12,74.12,17.13,31.56,5.43,64.11,10.31,95.43,16.32a30.29,30.29,0,0,1,5.2,1.18c-5.2-.07-14.08-1.51-19.43-2.22-39.14-5.26-82.07-10.95-120.49-19.17-16.21-3.47-52.47-16.89-66.53-25.49Z"/><path class="cls-11" d="M85.52,507.43s15.5,30.45,18.66,35-8.09,5.45-9.67,4.93-4.65-3.47-8.11-8.27-8-17.44-8-17.44,6.68,12.24,8.88,14.62,1.77,1.14,6.35,0,3.08-1.15-.1,1.05,1,.88,3.26-.44.18-4-11.27-29.48Z"/><path class="cls-7" d="M499.14,633.63s-7.22,25.87-11.09,28-54.92,3.69-82.55,1.59-44.87-3.35-48.05-5.29-11.26-16.54-11.26-16.54,37.84,1.76,153-7.74Z"/><path class="cls-2" d="M496.32,635.56s-7,18.31-9.15,21.29,1.94-13-.18-9.32-2.1,1.05-6,1.93a156.6,156.6,0,0,1-32.92,2.65c-13.9-.53-15.66-11.09-17.06-4.75s-1.42,6.85-3.52,3,1.23,0-7.75,0-14.08,1.4-19,0-8.27-9.33-9.33-4.41,2.29,14.79-1.4,8.11-4.22-2.82-8.27-3.53-5.11,1.41-9.69-.7-6.33-1.94-5.45,2.29-1.06,1.4-2.64-1.59-1.24.53-3.52-.35-6-1.76-4.4,2.46-4.23-6-4.93-8.27,4.75-.52,45.05-2.29,100.15-6.51,100.15-6.51Z"/><path class="cls-12" d="M524.9,593.77c.09-2,1-8,1.74-24.82,1.06-24.47,1.76-51.93-2.81-73.22s-10.21-32.56-20.07-35.56-42.77-3-49.63-1.76S521.71,435.7,568,425s111.41-24.81,189.91-32.56,145-7.39,154.18-9.85a37.89,37.89,0,0,0,12.13-6.17l-5.41-.35c0,.54-.58,1.24-2,2.12-5.27,3.34-10.38,4-32.56,4.4s-95.39,3.51-182,14.42-154.53,29.57-199.58,42.25-108.78,39.42-143.62,58.08-58.79,36.26-61.43,38.55c-2.17,1.87-1.19,5.61-1.83,6.78l1.17.12a2.6,2.6,0,0,1,.81.24,10.53,10.53,0,0,1,1.25-4.68c1.42-2.11,30.28-22,70.4-42.77a810.89,810.89,0,0,1,80.61-35.72s31-2.65,47.35,1.58,20.95,20.24,24.47,42.77,1.94,61.25,1.06,72.68c-.68,8.81-.6,14.78-2.31,17.18l.85,0Z"/><path class="cls-2" d="M522.72,593.92c-1.23.07.23-1.4,1.28-25.85s1.76-51.93-2.81-73.22S511,462.29,501.12,459.29s-42.76-3-49.63-1.76,67.58-22.71,113.87-33.44,111.41-24.81,189.91-32.56,145-7.39,154.18-9.85c5.95-1.61,11.16-5.3,14.08-7.68-3.08-.22-6.8-.46-11.06-.73.06,0,7,.68,1.73,4s-10.38,4-32.56,4.4-95.39,3.52-182,14.43-154.53,29.56-199.58,42.24-108.78,39.42-143.63,58.08S297.66,532.69,295,535s-.43,7.52-2.34,7.3-1.35,7.66-1.35,7.66l7.69-5.34s-1.54-5.39-.12-7.5,27.8-21.65,67.93-42.42a811.22,811.22,0,0,1,80.61-35.73s31-2.64,47.34,1.59,21,20.24,24.47,42.77,1.94,61.25,1.06,72.68-.47,18.12-4.39,18.36l6.8-.42Z"/><path class="cls-2" d="M502.09,503.82a66.36,66.36,0,0,0-9.43-21.32c-5.29-7.62-13.24-14.47-23-14.47a20.15,20.15,0,0,0-4.89.6c-8.9,2.22-15.08,10-18.76,18-4.8,10.42-6.33,22.75-5.68,34.12s3.58,23.53,9.26,33.62c4,7,9.92,14.1,17.61,17.21a112.33,112.33,0,0,0,15-10.13c6.87-5.8,14.62-17.77,17.26-32a194.85,194.85,0,0,0,2.63-25.61Z"/><path class="cls-7" d="M502,516.73c-2.14,21.24-10.86,40.21-31.73,53.44-14.32-4-26.23-24.66-27.64-49.54-1.57-27.75,10.52-50.25,27-50.25,15.7,0,29.71,20.42,32.37,46.35Z"/><path class="cls-9" d="M306.53,538.48a6.82,6.82,0,0,1-.31-1.46c-.06-1.13,12.69-9.25,29.11-18.91s36.18-20.46,51-27.49,29.73-13.29,42.28-17.89,22.89-7.62,28.79-8.23h0c.06,0,19.07-2.22,29.25,5.74l0,0c3.13,2.32,8.23,7.84,11.51,17.33a58.92,58.92,0,0,1,3,16.59c-1.62-23.57-18.08-37.86-33-36.09s-19.89,9.67-24.81,21.82-7.23,26.57-1.24,47.7,20.77,30.79,20.77,30.79A45.35,45.35,0,0,1,452.19,561c-4.75-4.57-7.21-5.1-38.19,6s-45.41,15.84-19.36,16,70.05-12,62.84-9.15-35.74,11.43-63.9,13.55-46.29-3.34-58.26-11.09S312.45,545,313,546.24s9.68,11.8,16.9,19,14.6,7,7.57-1.76,4.05,2.11,20.06,0,48.06-11.26,66.88-26.23-15.84-16.9-50.16-13.2-67.5,9.88-67.69,14.42Zm127.36,6.35c2.28-1.41,2.82-10,2.82-10,1.93,14.08,11.08,20.77,11.08,20.77-5-3-8.8-8.28-12.67-5.64s-37,15-55.45,21.83-23.75,7.92-19.7,9.68,29.57,4.93,29.57,4.93-22.23.69-35.74-3.52a71.2,71.2,0,0,1-23.4-13s5.62,4,15.49,4.93,15.84-.36,35.54-7.23,52.46-22.7,52.46-22.7Z"/><path class="cls-2" d="M502,516.73c-1.88,18.64-8.83,35.53-24.62,48.34a3.52,3.52,0,0,1-.4-.18c-5.81-2.81-9.68-5.09-13.38-9s-5.81-12.67-.87-7.57,7.57,4,10.55,1.24,3.87-3.35,9.68-8.45,9.33-11.27,10-16.55.18-4.75-6.85-2.81-7.93.7-18.48,1.76-9.87.18-11.27,5.81-5.11-4.93-5.45,2.1,7.73,23.94,3.69,16-9.5-24.47-8.1-39.6,10.74-30.28,16-31.5c-13.91,16.36-13.55,37.48-11.27,33.09s2.64-8.28,3.17-4.94,4.22,4.76,10.39,5.64c5.28.76,29.9,2.94,36.79,3.55.14,1,.26,2,.37,3Z"/><path class="cls-2" d="M470.85,475.31c7.75.7,21.47,9.15,26.75,34.85,0,0-3-12-9-18.48s3.69,15.84-2.12,6.15S476,484.64,467.85,485.34s-12.31,9.33-12.31,9.33,5.62-21.65,15.31-19.36Z"/><path d="M486.67,470.24c-10.18-8-29.19-5.74-29.25-5.74h0c-5.9.61-16.2,3.61-28.79,8.23s-27.33,10.82-42.28,17.89-34.71,17.9-51,27.49S306.16,535.89,306.22,537c.11,1.83,3.18,10,8.57,19.13a89.27,89.27,0,0,0,12.92,17.25,47.68,47.68,0,0,0,21,12.63c7.65,2.31,16,3.14,25.39,3.93,10.53.88,27,.27,44.67-2.91,13.7-2.45,28.09-6.46,41-12.47,14.65-6.86,24.6-15.94,31.09-26.51s9.52-22.68,10.31-35.52a64.14,64.14,0,0,0-3-24.95c-3.28-9.49-8.38-15-11.51-17.33Zm13.75,16.6a66.47,66.47,0,0,1,3.1,25.85c-.8,13.21-3.93,25.67-10.63,36.6s-17,20.34-32.1,27.4c-13.1,6.12-27.7,10.17-41.58,12.67-17.88,3.21-34.58,3.82-45.26,2.93-9.48-.79-18-1.64-25.87-4a50.1,50.1,0,0,1-22-13.24,92.08,92.08,0,0,1-13.29-17.72c-5.56-9.48-8.76-18.14-8.87-20.18s13.14-11,30.26-21c16.37-9.64,36.32-20.55,51.18-27.59,15-7.12,29.88-13.36,42.48-18,12.76-4.69,23.25-7.72,29.36-8.36.05,0,20-2.33,30.92,6.22,3.39,2.5,8.86,8.41,12.33,18.45Z"/><path class="cls-2" d="M583.5,519.66c1.84,1,4.66,9.33,4.48,15.05s-2.11,14.34-4.58,16.46-35,5.89-40.13,6-11.25-.1-13.11-3.7-2.37-9.07-1.93-13.56,1.31-14.08,5.81-15.84,45.41-5,46.29-5.19-41.72,5.19-44,6.07.89,3.43,3.26,3.61,37.4-4.83,39.43-4.13-34.94,4.83-37.5,6-2.72,8.27-2.72,11,2,9.85,3.78,10.65,35.9-3,37.32-4,2.63-7.75,3.17-10.3-2.47-11.09-2.56-12.41,3.34,8.63,4.22,9.69,1.94,1,2.3-.44-2.2-12-3.52-15Z"/><path class="cls-2" d="M578.83,525.74c1.58,1.23,3.17,8.09,3.17,10.56a37,37,0,0,1-2.47,10c-.61,1,.62-6.77.09-9.24s-2.47,3.17-4,.61.36.27-4,1.06-5.63,4.66-6.15.88-.71-15.22-.88-4.67-.8,7.31-1.5,4.49-2.47.36-4.23.7-1.67.36-2.11-3.6-1-.35-1.15,6.78-.88,1.23-1.22-2-.36,1-1.85.88-3.18,3.86-4.06-.18-1.66-6.69-1.93,1.05-.09-1.67-1.32-1.31-1.4,1.22-2.28-.18-2-1.5-1.76.78,1.32,8.19,1.32,8.19a23.7,23.7,0,0,1-2.38-10.11,18.52,18.52,0,0,1,2-8.45c.44-1-.18,2.37-.18,4.22s1.24-3.08,2.29-1.24,1.76.89,4.32.53,3.25-3.07,3.08-4.57,1.05,2.64,1.67,4.93.7-6.25,1.76-6.25,4.4-.88,7.13-1.32,3.6-.71,5.54-.88.7,2.9,1.06,6.07,1.4-4.93,2.2-6.07,4.57-1.15,4.57-1.15,1.32,5.63,1.76,7.13,3.17-1.4,1.5-7.65Z"/><path class="cls-2" d="M140.53,449.66s2.19-13.62,10.14-19c14.58-3.46,15.4,2.35,8.79,8.26s-18.93,10.74-18.93,10.74Z"/><path class="cls-9" d="M96.17,651.18c3-3.52,5.36-5.88,10.39-12h0c-5.69,10.49-4,17.92,11.48,27.2s61.67,22,126.44,37.18,140.24,25.34,197.12,18.86,77.17-11,87.59-24.21c9.45-12,34.93-70.24,39.55-80.85,1.16.72,2.42,1.43,3.61,2.07-3.41,10.17-9.91,25-13.65,34.27-4.52,11.25-21,53.82-26.69,61.68-16.19,22.54-69.57,26.4-95.75,28.72-36.89,3.28-75,4.92-111.64-1.33-55.76-9.51-116.15-24.92-170-42.68-22-7.26-42-13.48-55.49-33.54-3.46-5.12-3.61-9.23-3-15.26a1.25,1.25,0,0,0,0-.14Z"/><path class="cls-4" d="M837.25,600.14c-.09.41-.17.76-.24,1,5.23-63.18-5.79-86.85-24.08-111-18.66-24.63-48.59-26.93-62-29s-12.14-1.05-18.65-7.74-3.53,8.09-10,4-17.07-11.25-4.75-13.37,41.18,1.06,41.18,1.06-7.39-2.29-28.33-4.23-43.83,8.63-43.83,8.63,12.5,12.67,2.64,13.38a20.91,20.91,0,0,1-16-6.17c-17.24,9.15-39.78,34-39.78,34s5.29.16,7.4,3.86,1.41,12.15-5.28,14.44-11.27-5.63-11.27-5.63a90.28,90.28,0,0,1-6.33,8.79c-4.22,5.29-19,32.92-22.36,40.13s6.52-5.81,10.57-1,8.45,10,5.28,18S592,607.39,592,607.39L604.71,587c12.67-20.42,78.14-136.94,164-118.63,75.56,16.1,70.76,109.55,68.51,131.8Z"/><path class="cls-11" d="M672.52,459.87c-1,.35-10.74,5.63-22.18,16.54s-12.49,12-12.49,12a21.39,21.39,0,0,1,12.49-6.69c8.27-1.4,7.93,6.34,12.32,8.81s3.34,3-5.45.88.7,2.1,3,8.09-3.69,6.87-12.68,18.12-24.81,34.86-24.81,34.86,23.59-32.74,48.58-54.22,37.84-26.75,58.08-32.2c0,0-25.17,4.75-38,9.85s-13.55,1.41-18.66-2.64-.17-13.37-.17-13.37Z"/><path class="cls-11" d="M772.27,447.93s3.86,3.43,4.3,6.41-1.76,3.7-5.71,1.94S758.81,446,758.81,446s9.59,8.35,12.49,9.15,4.93-2.11,1-7.21Z"/><path class="cls-11" d="M820.94,488.58s-.54,5.28,1,8.89,3,5.28,5.28,5.9-2.11-2.46-2.11-2.46,1.32.43,1.23-1.68-1.32-3.26-3.44-3a18.44,18.44,0,0,1-1.92-7.66Z"/><path class="cls-11" d="M766.28,445.63c2.46.44,3.08,5.9.18,5.46s-3.17-6.07-.18-5.46Z"/><path class="cls-11" d="M681.1,452c3.6,0,4.22,5.55,1.14,5.37s-3.6-4.93-1.14-5.37Z"/><path class="cls-11" d="M630.93,494.92c2.3.17,3.34,5.89-.44,5.55s-2.55-5.64.44-5.55Z"/><path class="cls-11" d="M590.62,567.69c2.74.27,2.47,5.55-.6,5.2s-1.6-4.93.6-5.2Z"/><path class="cls-11" d="M594.59,558.1a24,24,0,0,1,7.3,8.36,11.43,11.43,0,0,1-4.31,14.44c-4.93,3.08-13.29,1.05-14.25,0s2.37-2.3,5.27-4a19.18,19.18,0,0,0,5.55-4.75c1.76-1.94,0,3.07-2.55,5.71s.26,2.12,4.39.18,4.14-5.37,4.23-9.15-5.63-10.83-5.63-10.83Z"/><path class="cls-11" d="M638.76,496.68c.36,3.07-.35,7.65-4.31,9.24s-8.35-1.94-8.71-3.43,2.55,1,5.37,1.14,4.31-1.68,4.66-4.4.8-.08,1.06.88,1.93,1.14,1.93-3.43Z"/><path class="cls-4" d="M1247.05,444.39c.77,2.57,1.4,5.16,1.9,7.74-2.2-9.24-7.91-21.44-22.59-19.43-23.23,3.16-38.72,37.66-46.82,51.57s-11.61,19.36-14.25,21.29,4.57-7.74,6.68-13.38-5.1-3.16-6.34-8.79-11.09,17.78-11.09,17.78l12-36.78s3.79,3.78,7.75,1.84,4.49-8.19,1.14-10a19,19,0,0,0-4.92-2s5.36-13.9,10.73-22.61,9.51-12.68,9.51-12.68,2.46,5.46,6.51,6,4.31-3.69,2.2-6.07a22,22,0,0,0-4.93-4s6.86-6.75,15.48-6.51,13.21,4.58,18,8.45l4.75,3.88s-9-6.17-12-6.17,2.28,8.09,5.1,12.5-1.76-7.57-1.76-7.57,4,8.09,9,10.91c3.54,2,10,3.32,14,14Z"/><path class="cls-11" d="M1217.42,433.08s-11.26,5.47-16.89,13.12-15.14,24-16.2,25.95,7.39-16.28,8.45-19.53-7-6.42-10-7.92-9.68,9.24-7.31,1.76,11.27-20.59,13-22.88-.88,6.86-1.66,9.86,2,5.27,8,7.91-1.15-4-3.79-6.42,7.31,3.18,10.3,4.49,8.09-5.54,16.1-6.34Z"/><path class="cls-11" d="M1193.1,420.42c-.44,0-.8-.88-.8-2s.36-1.95.8-1.95.78.87.78,1.95-.35,2-.78,2Z"/><path class="cls-11" d="M1169.38,461.74c-.71,0-1.28-.79-1.28-1.76s.57-1.76,1.28-1.76,1.27.79,1.27,1.76-.57,1.76-1.27,1.76Z"/><path class="cls-11" d="M1151.75,511.51c-.67-.21-1.49.52-1.85,1.64s-.1,2.18.58,2.39,1.5-.51,1.85-1.62.1-2.2-.58-2.41Z"/><path class="cls-11" d="M1154,505.79s7.12,2.73,6.33,8.88-6.33,6.78-8.89,6.69-4-.44-2.73-1.85,3.09-2.54,4.14-4.4,2,.18,4.4.27,3.08-6.86-3.25-9.59Z"/><path class="cls-2" d="M1146.31,413.73c1.86.71,4.06,6.25,4.5,9.59s-1.06,12.94-5.1,13.48-11.89,1-16,.17-5.37-9.16-5.37-9.16,3.17,7.05,5.55,7.84,10.2.26,13.72-.18-3.61-.79-6-.79,3.44-.62,6-1.41,4.76-6.68,4.76-6.68-23,.61-24.3.26-1.49-12,1.06-13.2,17.6-1.68,21.2.08Z"/><path class="cls-11" d="M1145.27,414.79c.88.53,4.66,7.13,3.69,8.63s-19.89,1.23-22.44,1.14-.62-.62.79-1.06-1.58-5.8-1.23-7.74,16.72-2.47,19.19-1Z"/><path class="cls-2" d="M1144.61,415.59c1.18,1.09,2.54,5,2.9,5.81s-17.08,1-18.18.82-2.5-6.37-2.5-6.37,2.1,3.12,3,4.13.54-3.78,1.33-2.2,2.28,2.08,5.76,2.24a52.74,52.74,0,0,0,8.19-.12c.78-.18-.48-4.31-.48-4.31Z"/><path class="cls-9" d="M1142.23,546.54a82.2,82.2,0,0,1-9.25,16.18c-6,8.1-16.63,20.42-21.91,23.59s-265.76,66-271.4,67.41a193.78,193.78,0,0,1-22.53,3.34c-2.11,0,6.87-33.43,7.75-37.31s.88,15.31,1.94,19.18,3.69-10.91,4.39-6.33,1.94,5.81,10.57,4.4,86.76-18.66,112.81-25.35,147.84-36.25,152.07-37.31,4.58,1.06,6.69,4.58c1.56,2.6,14.34-11.33,22.41-22.48,2.84-3.94,5.72-7.52,6.46-9.9Z"/><polygon class="cls-2" points="565.28 611.3 556.66 611.3 556.66 606.91 565.63 607.25 565.28 611.3"/><path class="cls-2" d="M600.26,360.82s67.58-61.6,107.36-91.53c0,0,5.68-3,20.2-5.77s143-18,261.81-5.37c1,.09.17,1.76-.18,3.08s-16.89,49.54-24.82,70.84-12.49,28.86-14.7,31.15-5.63,2.47-9.93,2.64-76.31-6-121.89-7.39-155.76-2.29-180.93-.88-36.92,3.23-36.92,3.23Z"/><path class="cls-11" d="M592,365.3s11.69-3.05,38.79-4.81,108.24-1.05,158.06,1.06,139.56,7.75,153.12,9,16.55-5.45,22.52-18.82,31.87-89.59,31.87-89.59,4.2-11.17,1.61-11.52c-56.18-6.39-98.84-4.64-186.12-1.54-32.75,1.17-55.26,3.88-70.65,6.84-31.27,6.4-33.39,12.36-33.53,13.28a2.92,2.92,0,0,1,.21-.28c6.51-9,45.93-13.38,120.21-17.6s162.45,2.28,164,2.46,2.12,1.4,1.32,3.52-8.63,26.49-14.26,43-18.12,51.92-22.7,59.31-6.33,7.75-16.2,7.75S837,360,809.22,359.61s-109.47-3.87-160.51-1.4C610.9,360,598.2,362.05,594.16,363a15.36,15.36,0,0,0-2.2,2.32Zm112.8-93.84a6.14,6.14,0,0,0,2.62-2l-2.62,2Z"/><path class="cls-2" d="M1169.48,315.38a4,4,0,0,0,4.94-2.5,3.74,3.74,0,0,0,.37-1c.51-2.09-.82-4-2.17-5.43a53.36,53.36,0,0,0-5.75-5.06c-2-1.59-4.2-3.08-6.3-4.52-3.12-2.15-6.27-4.26-9.42-6.36q-5.07-3.37-10.15-6.71l0,0,0,0a201.27,201.27,0,0,0-33.5-16.7c-4.71-1.77-9.57-3.24-14.43-4.54-5.3-1.41-10.67-2.65-16-3.76-10-2.06-20.23-3.74-30.41-5.05-3.92-.5-7.85-.95-11.79-1.31-2.53-.22-5.16-.45-7.7-.45-4.88,0-10.94,0-15.12,2.91a16.07,16.07,0,0,0-3.23,3,27,27,0,0,0-3.2,5.51c-1.33,2.83-2.5,5.76-3.62,8.69-3.18,8.25-6,16.72-8.74,25.11q-5,15.24-10,30.44-4.1,12.36-8.27,24.69c-1,3-2,6-3.08,9-.57,1.63-1.13,3.31-1.78,4.9a50,50,0,0,0-2.18,6c-.49,1.84-.72,3.9.38,5.57a4.94,4.94,0,0,0,3,2,16.35,16.35,0,0,0,2.79.33c1.47.07,3,.09,4.42.1,4.74,0,9.51,0,14.26-.11,16.11-.28,32.22-.66,48.32-.95l8-.16c17.62-.44,35.31-1.22,52.9-2.52,6.55-.48,13.13-1,19.66-1.79,2.34-.28,4.68-.58,7-1a43.59,43.59,0,0,0,4.78-1c6.65-1.93,13.19-3.73,19.69-6.22,6.65-2.55,18.61-7.65,20.32-15.43a40.49,40.49,0,0,0,.73-7.93,87.2,87.2,0,0,0-.48-9.83c-.24-2.39-.59-4.78-1-7.12a72.81,72.81,0,0,0-3-10.85Z"/><path class="cls-11" d="M1139.71,285.82c8.39,5.49,22.1,14.57,25.69,17.45,5.29,4.22,8.11,6.86,6.87,8.62a1.68,1.68,0,0,1-2.38,1.15c-1.85-.8-1.76-1.32-2.81-1.5a2,2,0,0,0-1.58.26,68.62,68.62,0,0,1,4.72,14.88c1.66,8.34,1.94,18.79.81,23.93-2.28,10.39-29.21,17.25-38.36,19.89s-51.57,5.63-91.71,6.34-65.64,1.58-69.16.7-1.94-4.75.35-10.38S989,317.35,995.39,298s11.79-34.5,15.13-38.55,6.69-5.1,16.54-5.1,54.21,5.46,79.56,15a202.12,202.12,0,0,1,33.09,16.53Z"/><path class="cls-2" d="M970.66,377c-1.1-.8-1.11-2.28-.57-4.29a1.5,1.5,0,0,0,1.54,2,6.42,6.42,0,0,0,5.45-3.79c.72-1.93,33.18-97.68,35.48-101.19s2.28-4.58,10.73-4.58,44.88,1.93,82.9,15.48c0,0,8.8,30.27,13,50s6.51,35.72,6.51,35.72-29.4,4.06-76,4.58S978.14,372,978.14,372s-1.66,3.25-3.6,4.23a8.15,8.15,0,0,1-3.88.79Z"/><path class="cls-2" d="M1114.81,283.66s4.41,16.36,9.51,37.66,7.57,41,7.57,41,21.11-5.11,27.45-10.92,7.22-4.92,6.87-14.6-1.06-16.37-4.4-21.3-21.83-18.83-47-31.85Z"/><path class="cls-2" d="M1171.37,313.07a1.66,1.66,0,0,1-1.48,0c-1.85-.8-1.76-1.32-2.81-1.5a2,2,0,0,0-1.58.26,68.62,68.62,0,0,1,4.72,14.88c1.66,8.34,1.94,18.79.81,23.93-2.22,10.1-27.78,16.87-37.59,19.66l0,0c1.41-.88,1-3.16.44-4.14s-8.46.31-8.46.31,6.52-1.09,11.37-2.15,17.06-5.11,23.58-9.42,7.65-5.2,7.3-13.11-.79-20.94-3.35-25.17-14-16.19-42-31.15-66.35-20.77-83.25-22.53-23.85-1.68-26.13,2.2S999.62,298,991.7,322.46s-16,50.09-17.43,51.53-4,.18-4,.18,1.51.92,2.74-1.11,28.51-85.62,34-98.29,7-18.66,21.65-18.31,45.93,4.23,71.64,13.2,46.45,21.83,57.37,30.45,15.07,11.49,13.7,13Z"/><path class="cls-2" d="M1109.67,279.48s5.23,18.08,9.63,36.56,9.63,49.91,9.63,49.91-4.88-52-19.26-86.47Z"/><path class="cls-11" d="M984.65,369s9.33-31.5,16.38-40.31,19-13,38.36-14.6,31.51.52,34.32,10.38,5.63,41.54,5.63,41.54,12.51.34,21.83-1.24c0,0,6.86-13.9,7.56-21.47s-10-45.05-10-45.05-19.88,1.05-26.75-.54-11.61-4.74-15.66-5.8c-3.71-1-44.44-1.79-51.29-1.92-9.32,26.36-24.16,70-27.32,79.23Zm-27.84-23.93c4.86-11.79,16.15-42.74,19.47-51.88-12,.43-53.68,2-61.28,3-8.89,1.15-17.87,5.55-17.87,5.55s38.67,25.73,59.68,43.38ZM802.44,307.51c-3,.18-1.05-4.57-1.05-4.57s-7,.18-12.68.88-6.33-.17-7.57-2.64S782.73,289,782.73,289s-8.8-1.59-25.17-3.7-26.22-3.52-41.19,3.7-77.8,68.48-77.8,68.48L787.66,354l14.78-46.47Zm48.76,7.57s-9.51-.7-19.89,7.4-16,31-16,31l-15.14.88,22.7-54c13.2,4.75,28.34,14.78,28.34,14.78Z"/><path class="cls-2" d="M1181.4,326.84c-3.05,1.08-4.9,3.28-4.46,7.29s3.25,9.41,5.59,12.4,6.2,3.88,9.88,2.88Z"/><path class="cls-2" d="M1182.34,326.72a3.45,3.45,0,0,0-1.82.51c-3.63,2.26-.79,9.15.57,12,1.59,3.26,5.9,10.43,10.1,10.43a3.36,3.36,0,0,0,1.82-.51c3.63-2.27.79-9.15-.57-12-1.59-3.26-5.89-10.43-10.1-10.43Z"/><path class="cls-11" d="M1182.34,329.07c-2,0-1.57,4.07.87,9.11s6,9.1,8,9.1,1.57-4.07-.87-9.1-6-9.11-8-9.11Z"/><path class="cls-2" d="M1184.35,332.93c-1.11,0-.89,2.31.5,5.15s3.39,5.16,4.51,5.16.89-2.31-.5-5.16-3.39-5.15-4.51-5.15Z"/><path class="cls-2" d="M291.59,536.4c-7.25-2-31-4.43-39.94-5.61-36.76-4.86-73.91-10.09-110.44-16.39-21.65-3.73-53.82-14.41-73.72-23.84-.52-.26-2.36-1-2.72-.05,1.43-.5,2.35.5,3.78,1.22,20.17,10.21,46.72,20.22,68.84,24.8,35.51,7.32,73.39,11.81,109.46,15.74,9.39,1,36.79,4.55,44.74,4.13Z"/><path class="cls-12" d="M67.49,490.42c8.39-4.56,16.18-9.64,25-14.22,79.75-41.56,169.07-57.67,256.64-73.88C426,388.09,502,377.34,579.93,371c6.26-.51,3.28-.23,9.51-.89-4.94.05-9.46.24-14.37.5C494,375,405.72,388.3,325.93,403.3c-61.44,11.54-125.07,24.94-183.19,48.24-17.94,7.2-61.77,27-75.25,38.88Z"/><path class="cls-2" d="M67.58,491.08c8.38-4.56,16.18-9.64,25-14.22C172.31,435.3,261.62,419.19,349.2,403c76.91-14.23,152.85-25,230.83-31.31,6.25-.51,3.27-.23,9.49-.89-4.92.05-9.44.24-14.37.5C494.12,375.65,405.81,389,326,404c-61.43,11.55-125,24.94-183.19,48.24-17.93,7.2-61.75,27-75.24,38.88Z"/><path class="cls-12" d="M167.6,424.28c1.65,0,3.89,0,7.43.18,5.81.27,10.92,2.9,16,5.2s5.63,2.28,8.9,2.34a1,1,0,0,1,.26.57c-2.08.61-4.17,1.23-6.24,1.86-1.33.07-2.33.07-2.33.07s2.14-1.06.29-2.2a70.63,70.63,0,0,0-11.79-5.38A34.73,34.73,0,0,0,169,425.34c-2.23,0-4.19.12-5.65.25,1.35-.43,2.78-.86,4.29-1.31Z"/><path class="cls-2" d="M159.17,426.94c1.36-.46,2.84-.95,4.45-1.46a68.7,68.7,0,0,1,10,0c5.81.26,10.91,2.9,16,5.18s5.63,2.3,8.9,2.35c2,2.5-8.32,2.51-8.32,2.51s2.14-1.07.29-2.21A71.89,71.89,0,0,0,178.73,428a34.46,34.46,0,0,0-11.18-1.58,63.09,63.09,0,0,0-8.38.54Z"/><path class="cls-2" d="M553.51,606.92s1,7.91,0,11.17-1.85,4-15.75,6.33-44.71,6.17-88.71,9.51-82,4.93-105.08,3.34-78-10.38-107.89-15.49S129.78,601.89,121.51,600,61.67,567.23,59.2,564.23s-2-14.17-2-14.17,1,6.52,2.9,8.8,1.05-.44,4,1.94-.18.61,7.13,4,30.09,15,35.55,19.36,2.63,3.7,10.74,6,18.82,5.29,51.74,10.39S245,611.4,258.35,613.34s-51-4.94-54.38-4.22,44.53,7,63.18,9.15S287,614.21,296,619s8.45,3.52,23.23,5.45,24.82,4.23,55.28,3.88,44.17-1.24,19.18-2.82-49.46-3.7-49.46-3.7,65.3,1.76,109-2.46,53-5.28,62.13-6,6,.17,12.31,3.69,4-2.11,14.26-.52,11.62-9.59,11.62-9.59Z"/><path class="cls-2" d="M1266.92,387.79c-2.46-4.9-14-26.84-25-28.17-7.41-.9-14.38-1.32-18.76-1.51,8.82,8,15.6,14.2,16.83,15.38,3.1,3,17.48,8.31,26.89,14.3Z"/><path class="cls-4" d="M1262.46,383s-7-13.56-13.29-18-10.83-4.59-15.84-5-7.22-.62-7.22-.62,9.42,1.14,15.41,3.6,12.58,6.33,20.94,20.07Z"/><path class="cls-8" d="M1281.31,424.88c-.32,4.58-1,10.55-1.75,16.49a20,20,0,0,0-10.59-2.1c-9.85.44-10.13.08-11.17,8.09s-7-8-5.73.1a83.78,83.78,0,0,1,.7,16.1s-1.22-12.68-3.78-21.21-3.34-11.89,9.15-11.79,16.2-2.23,23.17-5.68Z"/><path class="cls-9" d="M519.36,517.5s.71,31.86-.35,49.29-.88,23.41-5.11,24.81-56.84,3.88-82,5.28-50,1.59-74.81-1-38-4.23-41.71-6.51-12.85-36.09-12.85-36.09,9.15,28.86,14.09,31.34,1.93-4.41,6.69.17,10.2,5.1,15.66,6.86,56.5,4.93,93.11,2.64,33.09-11.43,38.54-7.39,5.63,4.41,18.84,3.35-8.63-18.48-9.87-18.66-10.73,7.92-21.47,11.27-24.82,4.74-24.82,4.74a149.91,149.91,0,0,0,26-7.74c12.15-5.11,20.78-12.68,29.39-21.65s13-25,13-25-6,21.12-9.85,27.46-5.46,6.86.17,12.49,5.82-1.06,10,4.22,3.7,5.81,9.16,6.35,8.09-66.19,8.09-66.19Z"/><path class="cls-9" d="M600.5,528.41s-27.28,55.8-32.56,66-8.45,9.68-8.45,1.41-7.91-7.22-19.36-6.51-14.6,3.16-14.6-2.12,1.05-40.13,1.05-40.13,0,19.18,1.76,21.65,5.28,3.88,17.43,3,10-6.69,14.78,3.69,14.26-2.11,40-47Z"/><path class="cls-10" d="M257.94,439.13s-42.53,20.28-73.79,37.17a386.63,386.63,0,0,0-52.09,33.52s30.69-22.81,43.08-32.39-35.2,10.14-24.78,3.1-2-7.6-15.2-9-40.84,6.2-63.93,19.72c0,0,52.94-33.23,112.92-49.56s105.32-26.2,105.32-26.2-94.33,23.66-105,29.29,17.18,5.91,26.18,5.91,29.29-11.82,47.32-11.54Z"/><path class="cls-2" d="M980,362.56q3.31-.12,6.77-.21c.2-.61.4-1.24.62-1.9l-6.75.21-.64,1.9Zm2.43-7.14,6.73-.21c.21-.62.44-1.25.66-1.89l-6.74.2-.65,1.9Zm2.44-7.14,6.86-.2.72-1.9-6.93.21-.65,1.89Zm2.44-7.13,7.26-.21q.4-1,.81-1.89c-2.5.06-5,.13-7.42.21l-.65,1.89Zm2.45-7.14c2.67-.07,5.37-.14,8.13-.23.36-.66.7-1.3,1-1.89-2.89.08-5.74.15-8.53.24l-.65,1.88Zm2.45-7.12,10.72-.3a27.33,27.33,0,0,1,2.09-1.92c-4.14.11-8.2.21-12.16.33l-.65,1.89Zm2.45-7.13q9.43-.25,19.53-.5a55.19,55.19,0,0,1,5.87-2c-8.57.18-16.84.39-24.74.61l-.66,1.89Zm2.46-7.12c30.55-.83,66.3-1.46,105.14-1.49-.16-.64-.33-1.26-.5-1.86-38.38,0-73.71.64-104,1.45l-.67,1.9Zm2.48-7.13c29.51-.77,63.71-1.35,100.77-1.39-.18-.67-.36-1.3-.52-1.88-36.58.05-70.37.62-99.59,1.39l-.66,1.88Zm2.48-7.12c20.63-.53,43.47-.95,67.92-1.17a47.77,47.77,0,0,1-5.13-1.82c-22.25.23-43.11.61-62.13,1.11l-.66,1.88Zm101.53,17.93c-12.59,0-24.87.08-36.73.2a15.23,15.23,0,0,1,2.88,1.84c11.12-.1,22.58-.16,34.32-.16-.16-.63-.32-1.26-.47-1.88Zm1.74,7q-16.36,0-31.93.14c.12.32.23.65.32,1s.16.57.24.88q15.49-.14,31.81-.14c-.15-.62-.3-1.24-.44-1.87Zm1.59,7q-16.32,0-31.88.13c.11.61.21,1.23.32,1.87q15.59-.12,32-.13c-.13-.61-.26-1.23-.4-1.87Zm1.34,7q-16.44,0-32.12.13c.1.62.18,1.24.27,1.87q15.66-.12,32.12-.13c-.07-.58-.16-1.21-.27-1.87Zm.34,7.05q-16.14,0-31.52.12c.07.62.15,1.25.23,1.87q15.09-.14,30.93-.13c.15-.65.26-1.27.36-1.86Zm-1.87,7q-14.73,0-28.83.13c.07.63.14,1.25.2,1.87q13.67-.11,28-.12c.23-.62.45-1.25.67-1.88Zm-2.72,7q-12.93,0-25.36.13c.06.65.12,1.28.19,1.87q11.93-.1,24.36-.12c.25-.59.52-1.22.81-1.88ZM907.93,309l-2.55-1.75c13.43-.71,36.62-1.82,66.8-2.83l-.7,1.9c-28,.94-50,2-63.55,2.68Zm9.51,6.59-2.51-1.75c13.18-.65,31.8-1.49,54.62-2.27l-.71,1.9c-21.1.72-38.56,1.5-51.4,2.12Zm9.36,6.63-2.46-1.76c11.46-.54,25.82-1.15,42.57-1.73l-.72,1.9c-15.26.53-28.52,1.09-39.39,1.59Zm9.17,6.66c-.8-.6-1.6-1.19-2.41-1.77,8.93-.4,19.23-.82,30.67-1.23-.24.64-.48,1.28-.71,1.91-10.16.36-19.38.73-27.55,1.09Zm8.92,6.69c-.76-.6-1.55-1.19-2.33-1.79,5.86-.24,12.2-.49,19-.74-.25.65-.5,1.28-.74,1.91-5.6.2-10.91.41-15.9.62Zm8.56,6.72c-.73-.59-1.47-1.19-2.23-1.79l7.54-.29-.75,1.91-4.56.17Zm-55.16-39.84-1.16-.77s1-.5,2.69-1.2c12.56-.69,39-2,75-3.2l-.69,1.89c-37.19,1.22-64.13,2.62-75.81,3.28Z"/><path class="cls-2" d="M252.06,376.86c-2.71,3.76-5.7,28.51-5.7,28.51l27.43-4.9S268.1,395.35,267,392s-1.14-6.42-.8-7.48a2.6,2.6,0,0,1,1.43-1.46h0a32.21,32.21,0,0,0,4.48.79c2.73,3,5.52,4.81,7,4.81,3.42,0,5.91-9.48,5.53-21.16s-3.45-21.17-6.88-21.17c-2,0-6,3-9.09,7.67-6.28,2.33-20.84,9.91-20.62,16.95.07,2.26,1.65,4.23,4,5.91Z"/><path class="cls-2" d="M668.52,347c-11.33,0-20.41,12.8-20.29,28.6s9.39,28.61,20.72,28.61,20.41-12.81,20.28-28.61S679.84,347,668.52,347Z"/><path class="cls-2" d="M662.35,355.65c-6.61,0-27.81,12.22-27.81,24s21.2,18.74,27.81,18.74,12-9.57,12-21.39-5.36-21.38-12-21.38Z"/><path class="cls-2" d="M649.86,357.88c-7.5,4.35-17.67,12.63-17.67,21.8a12.26,12.26,0,0,0,1,4.95h0c.23.59-.64,1.53-1,1.86a26.21,26.21,0,0,0-2,2.2c-1.22,1.38-2.4,2.79-3.6,4.19q-5,6-10,11.94-7.53,9-15,18.09a7.42,7.42,0,0,0-1.55,1.26,4.68,4.68,0,0,0-1,5.33,5.21,5.21,0,0,0,.81,1.26,7.09,7.09,0,0,0,5.21,2.11,36.8,36.8,0,0,0,7.4-.62,67.66,67.66,0,0,0,8.78-2.13c2.45-.74,4.88-1.56,7.24-2.53A26,26,0,0,0,633.7,425a4.51,4.51,0,0,0,2.16-4,6.1,6.1,0,0,0-.92-2.61c-.08-.14-.24-.39-.33-.59.53-1,1.15-2.09,1.73-3.08q1.68-2.91,3.43-5.79c1-1.62,2-3.23,3-4.82.71-1.09,1.45-2.25,2.26-3.26s2.06-2.56,3.34-2.91a4,4,0,0,1,2.17.13c1.19.45,2.39.85,3.6,1.21,3.81,4.33,8.94,7.29,14.83,7.29a16.85,16.85,0,0,0,4.35-.55c5.78-1.5,10.3-5.77,13.29-10.8a40,40,0,0,0-.39-39.37c-3.12-5-7.78-9.3-13.68-10.69a16.89,16.89,0,0,0-4-.47c-8.47,0-15,6-18.66,13.19Z"/><path class="cls-2" d="M651.64,359.57C655.28,352,661.47,347,668.52,347c11.32,0,20.6,12.8,20.71,28.6s-9,28.61-20.28,28.61c-5.15,0-9.87-2.66-13.5-7a50.51,50.51,0,0,1-5.18-1.77l1,.4h0c-3.44-1-5.47.2-8.11,3.54s-9.85,15.76-10.83,17.69,3.09,3.78,0,6-13.63,5.81-20.24,6.87-9.85.88-10.91-1.41,1.94-3.78,1.94-3.78,28.61-34.59,30.71-36.52,1.89-3.67,1.59-4.45h0a10,10,0,0,1-.88-4.08c0-7.7,9-15.57,17.1-20.11Zm-5.29,34.11c.09.05.19.09.28.15l-.28-.15Zm.88.43.32.16-.32-.16Zm.37.19a2.64,2.64,0,0,1,.38.18,2.64,2.64,0,0,0-.38-.18Zm.5.23.34.15-.34-.15Zm.4.18.41.18-.41-.18Zm.45.2.86.35-.86-.35Zm.88.37.42.17-.42-.17Z"/><path class="cls-2" d="M651.27,395.85c-3.44-1-5.47.2-8.11,3.54s-9.85,15.76-10.83,17.69,3.09,3.78,0,6-13.63,5.81-20.24,6.87-9.85.88-10.91-1.41,1.94-3.78,1.94-3.78,28.61-34.59,30.71-36.52,1.89-3.67,1.59-4.45v0c2.4,5.52,9.36,9.65,15.85,12.1Z"/><path class="cls-11" d="M670.71,348.52s4.67.71,9.15,5.9,6.69,11.8,7.21,18.66A30.48,30.48,0,0,1,685.75,385s.88-7.31-.52-10.47-5.46,1.4-6.87-1.15-3,4.49-3,4.49a31.45,31.45,0,0,0-2.56-15.4c-3.52-7.48-8.36-8.8-11.44-8.27a9.15,9.15,0,0,0-4.49,1.85l-2.81.7s7.39-10.3,16.63-8.19Z"/><path class="cls-11" d="M663.23,357.15c4.14,1.24,6.24,4.4,7.65,8.63a36.47,36.47,0,0,1,1.76,12.13c0,4.15-.7,3.71-1.85.44s-2.1-.6-6.06-.16-19,2.19-21.57,2.1-2.46-.61-4-2.2-3.78,1-3.78,1,9.59-20.24,27.81-21.92Z"/><path class="cls-11" d="M636.56,389.27S610.78,421,608.84,424.21s.18,2.38,2.38,1.76,14.35-3.66,18.13-4.85,2.64.1-.09,1.6-14.87,5.63-20.6,5.89-6.16-1.32-3.86-4.23,28.51-34,29.83-35.28,2.64-1.42,1.93.17Z"/><path class="cls-2" d="M277.79,346.33c-3.41,0-13.37,9.12-13,20.81s10.92,21.52,14.35,21.52,5.91-9.48,5.53-21.16-3.45-21.17-6.88-21.17Z"/><path class="cls-2" d="M271.29,353.28c-2.47,0-23.48,9.23-23.21,17.67s21.71,12.9,24.18,12.9,4.27-6.85,4-15.29-2.48-15.28-5-15.28Z"/><path class="cls-2" d="M252.52,376.43c-2.82,1.32-6.16,28.94-6.16,28.94l27.43-4.9S268.1,395.35,267,392s-1.14-6.42-.8-7.48a2.6,2.6,0,0,1,1.43-1.46c-.88-1.63-10.38-8.88-15.15-6.63Z"/><path class="cls-11" d="M278.21,347.82c2.47.7,4,6.6,4.67,12.93s.53,6.17.26,9.07-.7-.88-1.32-2.82-1.58,2.38-2.46.27-2.29.79-2.29.79-.26-8.27-1.94-12.49-3.69-3.7-3.69-3.7,3.87-4.4,6.77-4.05Z"/><path class="cls-11" d="M271.62,354.69c2.63.7,3.43,9.68,3.43,14.95s-.88.18-1.32-1.22-1.41,1.76-2.47.7-2.9-.62-10.65.08-9,3.26-9.49,1.32a1.46,1.46,0,0,0-2.12-1.14s1.58-3.78,9.07-8.53,11.17-6.25,13.55-6.16Z"/><path class="cls-11" d="M252.52,379.85c-1.58,2.73-3.7,17.52-4.05,21.65s4.05-9.94,5.19-14.26,5.89-8.89,5.73-5,.16,2.65,2.9,1.76,2.11-2.2-2.74-4.58-6.68-1.66-7,.44Z"/><path class="cls-2" d="M262.44,439.13s-63.08,29.29-91.8,46.19-40.27,27.87-40.27,27.87a1211.22,1211.22,0,0,1,132.07-74.06Z"/></svg>