<svg xmlns="http://www.w3.org/2000/svg" xmlns:xlink="http://www.w3.org/1999/xlink" viewBox="0 0 2169.87 647.1"><defs><linearGradient id="未命名的渐变_146" x1="1976" y1="1207.5" x2="2375" y2="1207.5" gradientUnits="userSpaceOnUse"><stop offset="0" stop-color="#9b9694" stop-opacity="0.1"/><stop offset="0.46" stop-color="#b3afad" stop-opacity="0.31"/><stop offset="1" stop-color="#cecbca" stop-opacity="0.56"/></linearGradient><linearGradient id="未命名的渐变_146-2" x1="507.79" y1="1242.24" x2="852.9" y2="1242.24" xlink:href="#未命名的渐变_146"/><linearGradient id="未命名的渐变_146-3" x1="8.38" y1="373.07" x2="80" y2="373.07" xlink:href="#未命名的渐变_146"/><linearGradient id="未命名的渐变_146-4" x1="0" y1="38.23" x2="88.38" y2="38.23" xlink:href="#未命名的渐变_146"/><linearGradient id="未命名的渐变_146-5" x1="1228.44" y1="373.07" x2="1300.05" y2="373.07" xlink:href="#未命名的渐变_146"/><linearGradient id="未命名的渐变_146-6" x1="1220.06" y1="38.23" x2="1308.43" y2="38.23" xlink:href="#未命名的渐变_146"/><linearGradient id="未命名的渐变_146-7" x1="1513.07" y1="323.55" x2="1586.89" y2="323.55" xlink:href="#未命名的渐变_146"/><linearGradient id="未命名的渐变_146-8" x1="903.2" y1="1243.57" x2="1252.52" y2="1243.57" xlink:href="#未命名的渐变_146"/></defs><path d="M2175.5,1008c-110.18,0-199.5,89.32-199.5,199.5s89.32,199.5,199.5,199.5,199.5-89.32,199.5-199.5S2285.68,1008,2175.5,1008Zm0,322.56a123.06,123.06,0,1,1,123.06-123.06A123.19,123.19,0,0,1,2175.5,1330.56Z" transform="translate(-205.13 -869.6)" style="fill:url(#未命名的渐变_146)"/><path d="M696.18,967.89a157.09,157.09,0,0,0-125.07,61.55V967.89H507.79v548.7h63.32v-300.4a157.09,157.09,0,0,0,125.07,61.56c86.55,0,156.72-69.36,156.72-154.93S782.73,967.89,696.18,967.89Zm56.74,235.87a120.53,120.53,0,0,1-169,0,121.89,121.89,0,0,1-12.77-14.88V1051.53a121.15,121.15,0,0,1,12.77-14.88,120.51,120.51,0,0,1,169,0,117.21,117.21,0,0,1,0,167.11Z" transform="translate(-205.13 -869.6)" style="fill:url(#未命名的渐变_146-2)"/><rect x="8.38" y="101.51" width="71.62" height="543.13" style="fill:url(#未命名的渐变_146-3)"/><ellipse cx="44.19" cy="38.23" rx="44.19" ry="38.23" style="fill:url(#未命名的渐变_146-4)"/><rect x="1228.44" y="101.51" width="71.62" height="543.13" style="fill:url(#未命名的渐变_146-5)"/><ellipse cx="1264.25" cy="38.23" rx="44.19" ry="38.23" style="fill:url(#未命名的渐变_146-6)"/><rect x="1513.07" width="73.82" height="647.1" style="fill:url(#未命名的渐变_146-7)"/><path d="M903.2,1390.4q69.19,50.05,149.17,50,107.09,0,107.09-70.14,0-29.92-23.38-49.34t-94.93-46.06q-86.06-34.61-111.77-68.51t-25.71-82.07q0-68.74,58.22-110.13t143.33-41.38q65.92,0,122.52,22.91v88.38q-58-37.41-131.41-37.41-44,0-71.55,19.17t-27.59,50.51q0,30.87,19.88,48.17t88.15,44.42q86.51,32.26,116.9,66.87t30.4,85.58q0,71.08-58.22,112t-150.81,40.92q-80.44,0-140.29-30.4Z" transform="translate(-205.13 -869.6)" style="fill:url(#未命名的渐变_146-8)"/></svg>