<svg id="图层_1" data-name="图层 1" xmlns="http://www.w3.org/2000/svg" xmlns:xlink="http://www.w3.org/1999/xlink" viewBox="0 0 561 373.5"><defs><style>.cls-1{stroke:#000;stroke-miterlimit:10;fill:url(#未命名的渐变_3);}.cls-10,.cls-11,.cls-12,.cls-2,.cls-3,.cls-4,.cls-5,.cls-6,.cls-7,.cls-8,.cls-9{fill-rule:evenodd;}.cls-3{fill:#444445;}.cls-4{fill:#282827;}.cls-5{fill:#b62024;}.cls-6{fill:#f16c5d;}.cls-7{fill:#909090;}.cls-8{fill:#d53d2a;}.cls-9{fill:#660b0b;}.cls-10{fill:#f05e4e;}.cls-11{fill:#535353;}.cls-12{fill:#f27a6c;}</style><linearGradient id="未命名的渐变_3" x1="-163.72" y1="186.6" x2="580.56" y2="186.6" gradientUnits="userSpaceOnUse"><stop offset="0.05" stop-color="#515556"/><stop offset="1"/></linearGradient></defs><rect class="cls-1" x="-163.72" y="-11.25" width="744.27" height="395.69"/><path class="cls-2" d="M108.26,240.81s-32.11,5.72-38,7.57,2.66,2,10.63,1.63-2,.82-9,4.09,17.59,15.54,42.33,22.08,70.13,14.73,90.79,15.75l20.65,1s-64-8.38-87.52-14.72S186,284,214,286.41s62.37,4.29,97.13-6.34,133.73-42.53,133.73-42.53S377.35,254.92,362.22,258s23.31-7.57,51.53-16.16,61.34-12.26,74.42-17.17,35.38-14.72,35.38-14.72-15.34,4.9-20.86,7.15,2.86-1.23,7.57-4.29-9.41-4.09-9.41-4.09,4.29-12.57,2.56-26.07,2.65-17.59,1.94-20.14S503,152,499.62,149.72s-14.92-4.09-19.22-3.89-38,13.19-74,13.81-76.69-5.94-95.09-5.73Z"/><path class="cls-3" d="M318.91,188.26c-14.24,0-27.33,17.61-29.25,39.34s8.08,39.33,22.31,39.33,27.34-17.61,29.26-39.33-8.08-39.34-22.32-39.34Z"/><path class="cls-2" d="M318.78,188.26c-14.18,0-27.22,17.44-29.12,39s8,39,22.21,39,27.22-17.43,29.12-39-8-39-22.21-39Z"/><path class="cls-3" d="M318.24,190.28c-13.69,0-26.28,16.71-28.12,37.32s7.77,37.32,21.45,37.32,26.28-16.71,28.12-37.32-7.76-37.32-21.45-37.32Z"/><path class="cls-2" d="M318.17,191.11c-13.39,0-25.7,16.34-27.5,36.49s7.59,36.49,21,36.49,25.7-16.34,27.5-36.49-7.6-36.49-21-36.49Z"/><path class="cls-3" d="M318.17,191.62a15.41,15.41,0,0,1,4.94.81c5.74,1.93,9.76,7,12.19,12.33,3.16,7,4,15.19,3.34,22.79-.8,9-3.85,18.3-9.31,25.54-4.19,5.57-10.39,10.49-17.68,10.49a15.36,15.36,0,0,1-4.94-.81c-5.74-1.94-9.77-7-12.19-12.34-3.17-7-4-15.19-3.34-22.79.8-9,3.85-18.3,9.3-25.54,4.2-5.57,10.4-10.48,17.69-10.48Z"/><path class="cls-2" d="M338.47,229.2c-1,8.46-4,17.09-9.14,23.89a29.83,29.83,0,0,1-8.54,7.86,45.72,45.72,0,0,0,7.74-7.92c1.43-2.15.56-3.63-2.45-.11s-9.49,6.88-9.49,6.88,6.27-5.44,7-6.52a33.43,33.43,0,0,0,4.55-8c1.95-4.7,6.58-14.87,6.05-11.79s-1.45,7-.68,6.12.72,1.68,1.84.55,3.07-10.86,3.09-10.94Z"/><path class="cls-2" d="M316.24,193.86c-12,0-23.09,15.06-24.71,33.63s6.82,33.64,18.85,33.64,23.08-15.06,24.7-33.64-6.82-33.63-18.84-33.63Z"/><path class="cls-3" d="M309.32,195.52c-9.09,4.39-16.49,17-17.79,32-1.07,12.33,2.28,23.11,8.17,29a14.64,14.64,0,0,0,8.49,2.74c11.95,0,22.93-14.42,24.54-32.21S326,194.78,314,194.78a15.68,15.68,0,0,0-4.69.74Z"/><path class="cls-2" d="M318.12,255.83c7.36-5.11,13.11-15.56,14.5-27.73-.07.37-1,5.28-1.74,6.07s-1,1.12-1.33-.62-.92,1.33-1-.66S329.7,226,329,222s-2.81,8.89-5.11,14.67-7.16,14.21-9.25,15.18-5.83,4.82-5.83,4.82,6-.22,10.84-6.15,1.33-1,.41.67.2-.1.87.56-1.37,2.7-2.85,4.08Z"/><path class="cls-2" d="M304.32,198.9c-6.7,5.94-11.74,16.52-12.79,28.59-.79,9.12.83,17.37,4.11,23.43,2.92,3.72,6.75,5.92,11.1,5.92,10.77,0,20.68-13.48,22.12-30.11s-6.1-30.11-16.87-30.11a14.77,14.77,0,0,0-7.67,2.28Z"/><path class="cls-3" d="M304.32,198.9c-6.7,5.94-11.74,16.52-12.79,28.59-.79,9.12.83,17.37,4.11,23.43a17.56,17.56,0,0,0,3.47,3.38,13.27,13.27,0,0,0,4.24.7c10.83,0,20.79-12.91,22.24-28.83s-6.14-28.84-17-28.84c-.35,0-.71,0-1.07,0a17.21,17.21,0,0,0-3.23,1.52Z"/><path class="cls-2" d="M304.32,198.9c-6.7,5.94-11.74,16.52-12.79,28.59-.79,9.12.83,17.37,4.11,23.43a21.16,21.16,0,0,0,1.59,1.78,12.88,12.88,0,0,0,6.18,1.58c10.57,0,20.27-12.59,21.69-28.11s-6-28.12-16.54-28.12a13.84,13.84,0,0,0-3.61.49l-.63.36Z"/><path class="cls-3" d="M312.63,224.71a28.63,28.63,0,0,1-.56,4.24c-.1.66-.82-.92-1-1.79s-.66.26-1.64,0-1.48-1.17-2.09.16-.26-.67-2.66-1.39-4.35,3.74-6,2.56a12.88,12.88,0,0,0-4.76-2.35l-1.74-.31s.52-3.47.72-3.93,2.35.3,3.38-.41,1.83-2.41,2.19-2.46a11.49,11.49,0,0,0,2.71.57c1.53,0,1.74-1.13,1.84-2.15s-.51-1.84-.25-2.51a2.71,2.71,0,0,1,1.89-1.43c.51.06,1.53-3.57,2.09-3.78s-.45,3.53-.45,4.7.91,1.54.25,2.92-1.28,1.58-1.07,3,1.63,1.38,2,1.59a30.34,30.34,0,0,1,2.25,2.09c.87.82,2.91.72,2.91.72Z"/><path class="cls-2" d="M303,219.26c-2.24,0-4.3,2.74-4.6,6.11s1.27,6.11,3.51,6.11,4.3-2.73,4.6-6.11-1.27-6.11-3.51-6.11Z"/><path class="cls-3" d="M303.89,221.41c-1.46,0-2.8,1.79-3,4s.83,4,2.29,4,2.81-1.79,3-4-.83-4-2.3-4Z"/><path class="cls-2" d="M300.88,225.55c0,2.94,1.3,2.74,1.28,1.48a9.1,9.1,0,0,1,.51-2.75,8.34,8.34,0,0,0-.13,3.27c.3,1.61,1.94,1.68,2.9.24a2.81,2.81,0,0,1-2.26,1.6c-1.43,0-2.44-1.7-2.3-3.84Zm4.89,1.58a4.07,4.07,0,0,1-.33.66Z"/><path class="cls-3" d="M302.28,216.63a2.11,2.11,0,0,1,.23,1.66c-.18.49-.35-.15-.56-.48s-.43.59-.74.12-.67.36-.67.36,0-1.43.41-1.76,1.1-.36,1.33.1Z"/><path class="cls-3" d="M301,215.89a1.64,1.64,0,0,0-.95,1.66c0,.82-.23.34-.33-.43s.18-.21-.51-.49-1.13-.69-1.18,0-.66.08-.28-.74a1.83,1.83,0,0,1,1.33-1c.34-.11-.2.1-.15.53s.18.57.66.57,1.41-.08,1.41-.08Z"/><path class="cls-3" d="M311.56,219a2.13,2.13,0,0,1,.23,1.67c-.18.48-.36-.16-.56-.49s-.44.59-.74.13-.67.36-.67.36.05-1.44.41-1.77,1.1-.36,1.33.1Z"/><path class="cls-3" d="M310.31,218.29a1.63,1.63,0,0,0-.95,1.67c0,.81-.23.33-.33-.44s.18-.2-.51-.49-1.13-.68-1.18,0-.66.08-.28-.74a1.83,1.83,0,0,1,1.33-1c.33-.1-.2.1-.15.54s.18.56.66.56,1.41-.08,1.41-.08Z"/><path class="cls-3" d="M308.7,232.94a2.16,2.16,0,0,1,.23,1.66c-.18.49-.36-.15-.56-.48s-.44.58-.75.12-.66.36-.66.36.05-1.43.41-1.76a.88.88,0,0,1,1.33.1Z"/><path class="cls-3" d="M307.45,232.2a1.62,1.62,0,0,0-.95,1.66c0,.82-.23.33-.33-.44s.18-.2-.51-.48-1.13-.69-1.18,0-.67.08-.28-.73a1.86,1.86,0,0,1,1.33-1.06c.33-.1-.21.11-.16.54s.18.56.67.56,1.41-.07,1.41-.07Z"/><path class="cls-3" d="M299.65,231a2.11,2.11,0,0,1,.23,1.66c-.18.48-.36-.16-.56-.49s-.44.59-.75.13-.66.36-.66.36,0-1.43.41-1.77a.89.89,0,0,1,1.33.11Z"/><path class="cls-3" d="M298.4,230.25a1.64,1.64,0,0,0-.95,1.67c0,.82-.23.33-.33-.44s.18-.2-.51-.48-1.13-.69-1.18,0-.66.08-.28-.74a1.84,1.84,0,0,1,1.33-1.05c.33-.1-.2.11-.16.54s.18.56.67.56,1.41-.08,1.41-.08Z"/><path class="cls-3" d="M303.35,235.09c.88.33,3.92,3.52,4.91,6.15s.9,8.67.9,10-2.61,1.94-3.74,1.63-4.14-1.22-4.54-1.43,3.47.46,4.34.41.46-8,0-10a11,11,0,0,0-2.3-4.19c-.46-.71-1-3.17.38-2.55Z"/><path class="cls-3" d="M298.11,236.42c.8.58,1.49,3.19,1.23,5.34a28.47,28.47,0,0,1-3.45,8.2c-.54.46-2-3.52-2-4.32s1.94-3.14,2.48-4.8a19.45,19.45,0,0,0,.59-3.89.72.72,0,0,1,1.17-.53Z"/><path class="cls-3" d="M310.44,229.74c-2.51-1-3.17.26-1.85,1.69s5.68,3.32,7.16,4.09a7.49,7.49,0,0,1,2.86,2c.77.92-6.28-3-7.2-3.43s7,4.91,8.22,5.21,2.31-1.17.36-3.22a24.6,24.6,0,0,0-9.55-6.34Z"/><path class="cls-3" d="M322.8,215.79a5.34,5.34,0,0,1,1.39,4c-.18,1.28-.31-.44-.77-1.21s-.74-.17-3.07,1.44-5.88,1.71-7.28,1.58-1.05-1.15.43-1.63,4.32-1.08,6.34-2.38,2.45-2.15,3-1.79Z"/><path class="cls-3" d="M316.31,202.88c-.05,1.38-3.83,8.49-6.28,10.23s-3.17.51-.57-2.51a30.91,30.91,0,0,0,5.27-8.74c.46-1.59,1.94-1.18,1.58,1Z"/><path class="cls-3" d="M304.05,200.68a56,56,0,0,1,.56,10.74c-.26,2.91,0-2.51-.56-3.53s-1.23-1-1.44.92-.61,4.6-.61,4.6-.26-9.25,0-10.68,2-2.76,2.05-2Z"/><path class="cls-3" d="M295.2,214.59c.66.46,2.3,2.71,1.59,4.65s-3.17,0-3.17-.72,1.12-4.34,1.58-3.93Z"/><path class="cls-3" d="M291.93,234.17c1.13-1,1.89-1.54,2.3-3.38s-1.08-1.89-1.84-1.48l-.77.41s-.05,5.26.31,4.45Z"/><path class="cls-4" d="M341.46,194.19s-8.89-19.42-28.83-17.58-31.9,26.48-35.37,37.62c0,0,11.75-24.85,24.23-30.88s3,5,3,5,9.82-5.72,18.82-3.06,13.9,9.5,16.25,15.33c0,0-3.78-9.81-9.3-14.62s2.14-5.52,11.24,8.18Z"/><path class="cls-4" d="M333.29,261s-9.21,15.74-26.59,17.28-29.34-16.87-31.08-33.64c0,0,1.12,12.47,3.89,19s-4,2.66-6-1.23-.72,3.27-4.2,2.76S258.85,262,256,258.91s-4.91-8.79-4.91-8.79c4.19,20.1,18.22,26.18,37.73,28.82,12.06,1.64,31.18,3.38,44.48-18Z"/><path class="cls-3" d="M493.8,167.48c-5.73,0-11.1,11.33-12,25.31s3.06,25.3,8.79,25.3,11.1-11.33,12-25.3-3-25.31-8.79-25.31Z"/><path class="cls-2" d="M493.75,167.48c-5.71,0-11.05,11.22-11.92,25.06s3,25.06,8.74,25.06,11.05-11.22,11.93-25.06-3-25.06-8.75-25.06Z"/><path class="cls-3" d="M493.52,168.78c-5.51,0-10.67,10.75-11.51,24s2.94,24,8.45,24,10.67-10.74,11.51-24-2.94-24-8.45-24Z"/><path class="cls-2" d="M493.49,169.31c-5.39,0-10.43,10.51-11.26,23.48s2.87,23.47,8.26,23.47,10.44-10.51,11.26-23.47-2.87-23.48-8.26-23.48Z"/><path class="cls-3" d="M493.49,169.64a4.21,4.21,0,0,1,2,.52c2.3,1.25,3.9,4.49,4.85,7.94a50.26,50.26,0,0,1-2.65,31.09c-1.71,3.58-4.24,6.74-7.17,6.74a4.11,4.11,0,0,1-2-.52c-2.3-1.24-3.9-4.49-4.84-7.93a50.16,50.16,0,0,1,2.64-31.09c1.72-3.58,4.24-6.75,7.18-6.75Z"/><path class="cls-2" d="M501.47,193.82a45.27,45.27,0,0,1-3.8,15.37,17,17,0,0,1-3.48,5.05,27.66,27.66,0,0,0,3.16-5.09c.59-1.38.25-2.34-1-.07a18.29,18.29,0,0,1-3.86,4.42s2.56-3.5,2.87-4.19a26.8,26.8,0,0,0,1.88-5.16c.8-3,2.72-9.57,2.49-7.58s-.62,4.52-.31,3.93.29,1.08.74.36,1.29-7,1.3-7Z"/><path class="cls-2" d="M492.69,171.09c-4.84,0-9.37,9.68-10.11,21.63s2.58,21.64,7.42,21.64,9.37-9.69,10.12-21.64-2.58-21.63-7.43-21.63Z"/><path class="cls-3" d="M487.13,213.11h.16c4.81,0,9.31-9.28,10-20.72.71-11-2.3-19.95-6.8-20.67-4,2.35-7.32,10.86-7.95,21-.59,9.4,1.34,17.4,4.55,20.39Z"/><path class="cls-2" d="M485.79,211.46a3.22,3.22,0,0,0,.93.14c4.33,0,8.39-8.67,9.06-19.37s-2.31-19.37-6.65-19.37h0c-3.32,3.33-6,11-6.52,19.86-.5,8,.82,15,3.21,18.74Z"/><path class="cls-3" d="M485.19,210.41h.17c4.36,0,8.43-8.3,9.1-18.54.62-9.6-2-17.49-5.88-18.45-3.07,3.57-5.48,10.87-6,19.3-.46,7.31.61,13.77,2.61,17.69Z"/><path class="cls-2" d="M485,209.92a3,3,0,0,0,.43,0c4.25,0,8.23-8.09,8.88-18.08.62-9.59-2-17.43-6-18.05-2.91,3.7-5.16,10.78-5.67,18.9-.44,7,.52,13.25,2.38,17.2Z"/><path class="cls-3" d="M489.25,190.93c0,.69-.21,2.3-.25,2.73s-.32-.59-.38-1.15-.27.16-.66,0-.59-.76-.84.1-.1-.43-1.07-.89-1.77,2.4-2.44,1.64a9.44,9.44,0,0,0-1-1c.1-1.39.25-2.74.44-4.06a4.67,4.67,0,0,1,.54-1c.14,0,.47.36,1.08.36s.71-.72.75-1.38-.19-1.18-.08-1.61.56-1,.77-.92.63-2.3.86-2.44-.21,2.28-.21,3,.36,1,.09,1.88-.52,1-.45,1.9.65.89.79,1a13.2,13.2,0,0,1,.9,1.35,1.41,1.41,0,0,0,1.17.46Z"/><path class="cls-2" d="M485.4,187.43c-.9,0-1.74,1.76-1.88,3.93s.48,3.93,1.38,3.93,1.75-1.76,1.88-3.93-.48-3.93-1.38-3.93Z"/><path class="cls-3" d="M485.75,188.81c-.59,0-1.14,1.15-1.23,2.57s.31,2.56.9,2.56,1.14-1.15,1.23-2.56-.31-2.57-.9-2.57Z"/><path class="cls-3" d="M484.51,191.47c0,1.89.51,1.76.51,1a8.73,8.73,0,0,1,.22-1.78,8.36,8.36,0,0,0-.07,2.11c.11,1,.77,1.08,1.17.15-.24.62-.57,1-.92,1-.58,0-1-1.1-.91-2.47Zm2,1c-.05.15-.09.3-.14.43Z"/><path class="cls-3" d="M485.12,185.73a2,2,0,0,1,.08,1.07c-.07.32-.14-.09-.22-.31s-.17.38-.3.08-.27.23-.27.23a3.73,3.73,0,0,1,.18-1.13.28.28,0,0,1,.53.06Z"/><path class="cls-3" d="M484.62,185.26a1.2,1.2,0,0,0-.39,1.06c0,.53-.09.22-.13-.27s.07-.14-.2-.32-.29-.23-.37-.23c.06-.28.11-.55.18-.82a.7.7,0,0,1,.14-.08c.14-.07-.08.07-.06.34s.07.36.27.36.56,0,.56,0Z"/><path class="cls-3" d="M488.85,187.28a2,2,0,0,1,.08,1.07c-.08.31-.14-.1-.22-.31s-.18.37-.3.08-.27.23-.27.23a4,4,0,0,1,.17-1.13c.15-.22.45-.24.54.06Z"/><path class="cls-3" d="M488.34,186.8a1.25,1.25,0,0,0-.38,1.07c0,.53-.1.22-.14-.28s.08-.13-.2-.31-.45-.45-.47,0-.27,0-.11-.48.4-.61.54-.67-.08.06-.07.34.07.36.27.36a5.51,5.51,0,0,0,.56,0Z"/><path class="cls-3" d="M487.62,196.22a2,2,0,0,1,.09,1.07c-.08.31-.15-.1-.23-.31s-.17.38-.3.08-.27.23-.27.23a3.73,3.73,0,0,1,.18-1.13.28.28,0,0,1,.53.06Z"/><path class="cls-3" d="M487.12,195.75a1.28,1.28,0,0,0-.39,1.07c0,.52-.09.21-.13-.28s.07-.13-.2-.32-.45-.44-.48,0-.26,0-.11-.48a.89.89,0,0,1,.54-.67c.14-.07-.08.06-.06.35s.07.36.27.36.56-.05.56-.05Z"/><path class="cls-3" d="M484,195a2,2,0,0,1,.08,1.06c-.07.32-.14-.09-.22-.31s-.18.38-.3.08-.27.23-.27.23a4,4,0,0,1,.17-1.13.29.29,0,0,1,.54.07Z"/><path class="cls-3" d="M483.49,194.5c-.25.14-.39.54-.39,1.07s-.09.21-.13-.28.07-.14-.2-.31l-.28-.21c0-.27,0-.54,0-.81a1,1,0,0,1,.21-.12c.14-.07-.08.07-.06.34s.07.37.26.37.57-.05.57-.05Z"/><path class="cls-3" d="M485.46,197.6a10,10,0,0,1,1.94,4,39.28,39.28,0,0,1,.32,6.42,1.22,1.22,0,0,1-1.51,1.06,19.15,19.15,0,0,1-1.83-.92c-.16-.14,1.4.29,1.75.26s.22-5.13.07-6.44a8.34,8.34,0,0,0-.91-2.7c-.18-.46-.37-2,.17-1.65Z"/><path class="cls-3" d="M483.34,198.46a6.86,6.86,0,0,1,.47,3.44,17,17,0,0,1-.55,2.6c-.24-1.16-.42-2.41-.56-3.72.13-.84.11-1.54.17-2s.39-.51.47-.34Z"/><path class="cls-3" d="M488.34,194.17c-1-.63-1.28.16-.75,1.08a14.13,14.13,0,0,0,2.86,2.63,3.61,3.61,0,0,1,1.14,1.29c.31.59-2.51-1.94-2.88-2.2a24.7,24.7,0,0,0,3.29,3.35c.49.2.93-.76.16-2.08a11.17,11.17,0,0,0-3.82-4.07Z"/><path class="cls-3" d="M493.39,185.19a4.78,4.78,0,0,1,.54,2.57c-.08.82-.12-.28-.31-.78s-.29-.11-1.24.92a3.5,3.5,0,0,1-2.94,1c-.57-.08-.41-.73.18-1a8.65,8.65,0,0,0,2.57-1.53c.82-.84,1-1.38,1.2-1.15Z"/><path class="cls-3" d="M490.84,176.89c0,.89-1.59,5.46-2.58,6.58s-1.28.32-.22-1.62a24.28,24.28,0,0,0,2.17-5.62c.19-1,.79-.76.63.66Z"/><path class="cls-3" d="M486.06,177.52c.07,1.6.1,3.68,0,4.86-.11,1.87,0-1.61-.21-2.27s-.48-.62-.57.59-.27,3-.27,3,0-1.79,0-3.56a26.66,26.66,0,0,1,1.05-2.58Z"/><path class="cls-4" d="M500.26,168.92s-3.71-10.46-9.74-9.13-12.88,14.72-15.34,26.28c0,0,2.36-8,4.5-10.74s1.89,5.73,1.89,5.73,2.71-10,7.62-13.81,8.74-.41,10.17,2.61a11,11,0,0,0-4.6-5.37c-3.47-2,.62-4.55,5.5,4.43Z"/><path class="cls-4" d="M453.2,211.93s2.46,7.06,5.42,9.61,10,3.53,18.81,3.53,13-1.38,15.95-4.3,6-9.65,6-9.65-3.74,7.31-6.91,9.5-8,2.71-12-1.79-6.69-14.77-6.69-14.77A89.53,89.53,0,0,0,476.31,215c1.23,3.48-2.71-3.53-3-.67s-.56,2.3-5,2.46-8.33-4.25-8.74-.77-6.39-4-6.39-4Z"/><path class="cls-2" d="M510.85,134.71c-2-4-6.2-11-11-11.61-2.32-.28-4.66-.47-7-.57A2.56,2.56,0,0,0,491,127c2,1.83,4.1,3.66,6.07,5.53a13.08,13.08,0,0,0,3.22,1.94c1.35.67,2.73,1.3,4.08,2a30.48,30.48,0,0,1,2.85,1.59,2.56,2.56,0,0,0,3.66-3.31Z"/><path class="cls-2" d="M260.12,223.34a10.36,10.36,0,0,0,4.27-2.09,15.91,15.91,0,0,0,2-2.3c.95-1.23,1.87-2.49,2.78-3.75,2.46-3.43,4.87-6.9,7.29-10.36q2.7-3.87,5.42-7.73c1.4-2,2.81-4,4.28-5.85a64.27,64.27,0,0,1,20.94-17.44,35.54,35.54,0,0,1,9.38-3.21c13-2.37,23.85,5.57,28.12,17.64a49,49,0,0,1,2.69,17.14,41.67,41.67,0,0,1-.65,7.1,25.89,25.89,0,0,0-1.1,2.51,29.2,29.2,0,0,0-1,3.8c-.47,2-.91,4-1.34,6q-1.05,4.82-2,9.64a2.54,2.54,0,0,0,2.77,3.05c3.24-.34,6.52-.82,9.73-1.36,1.86-.31,3.86-.84,5.7-1.28,3.8-.9,7.6-1.84,11.4-2.77q16.25-4,32.49-8.07,24.74-6.19,49.47-12.44c2.75-.58,5.91-4.81,7.51-6.91s3-4.17,4.5-6.27a20.63,20.63,0,0,0,2.58-5.19,8.82,8.82,0,0,0,3.11-1.55,14.46,14.46,0,0,0,2.53-3.9c1-1.87,1.86-3.78,2.76-5.68.46-.94.91-1.89,1.37-2.83,2.56-7.59,6.54-14.82,10.52-17.93,2.16-2.7,5.1-5.67,7.31-5.21,3,.62,3.94,5.76,4.11,10.06a24.11,24.11,0,0,1,1.24,2.78h0a53.44,53.44,0,0,1,3.33,14.81,2.61,2.61,0,0,0,1.3-1l4.87-7.67c1.18-.23,2.34-.48,3.5-.74,1.54-.35,4.73-.92,5.77-2.14a6.67,6.67,0,0,0,1.12-3.63c.11-1.42.13-3.26-.95-4.34-.67-.67-2.7-1.42-4.43-2q.51-3.33.93-6.65c.22-1.66.41-3.33.56-5a22.29,22.29,0,0,0,.1-3.83c-.4-4-.75-7.08-3.34-10.39-1.47-1.87-4.26-3.38-6.37-4.44-1.32-.67-2.67-1.29-4-1.94a14.49,14.49,0,0,1-2.09-1.13c-1.38-1.32-2.84-2.6-4.25-3.9l-8-7.29-11.51-10.44c-.44-1.67-2.18-3-3.45-4-.76-.6-1.59-1.16-2.39-1.71-1.14-.79-2.29-1.55-3.44-2.32q-3-2-6.12-4c-9.58-6.36-20.24-10-31.47-12.24-13.63-2.67-28-3.28-41.87-3.39a397.29,397.29,0,0,0-41.68,1.78c-9.34.91-18.68,2.18-27.89,4-3.79.73-9.21,1.87-12.6,3.8a6.52,6.52,0,0,0-2.45,2.21c-5.12,3.88-10.09,8-15,12.18-7.78,6.6-15.49,13.38-23,20.25a7.55,7.55,0,0,0-2,.76,8.63,8.63,0,0,0-2.69,2.89q-5.15.28-10.28.65c-12.14.86-24.32,1.92-36.42,3.14-10.12.65-20.27,1.34-30.37,2.25-9.43.84-18.93,2-28.3,3.41-7.61,1.11-15.34,2.35-22.84,4.05-6.35,1.45-12.73,2.9-19,4.55-2.22.59-4.44,1.19-6.63,1.89a25.18,25.18,0,0,0-4.32,1.7c-2.62,1.45-4.31,4.63-5.07,7.58C92,159,86.7,161.63,81.47,164.38c-2,1.07-4.07,2.17-6.07,3.31A31.92,31.92,0,0,0,72,169.75c-2.7,2-3.08,3.43-2.38,6.68a24.1,24.1,0,0,0,1,3.08c.52,1.39,1.06,2.77,1.62,4.15s1.18,2.9,1.79,4.34q-.78.23-1.53.48c-1.73.57-4.14,1.47-5.09,3.13-1.45,2.51-1.32,6.39-.4,9.07.57,1.67,3.15,3.27,4.58,4.2,2.38,1.54,4.86,3,7.33,4.37,3.25,1.83,6.55,3.63,9.86,5.37-.58,3.27-1.76,8.76-2.93,10.2-1.4,1.72-2.85,3.32-4.3,5-2.3,2.67-1.42,6.18-.25,9.13,2.32,5.86,10.87,10.18,16.29,12.42,4.16,1.7,8.71,3.08,13,4.38,6,1.83,12.12,3.54,18.2,5.17,7.9,2.13,15.86,4.18,23.84,6,14.73,3.32,29.64,4.13,44.69,3.52,6.22-.26,12.44-.81,18.61-1.66a151.44,151.44,0,0,0,16.09-3c9.85-2.46,14-7.39,17.55-16.58,1.52-4,3.13-7.9,4.73-11.83q2.86-7,5.77-14Z"/><path class="cls-5" d="M452.16,209.06s-93.55,23.64-98.92,24.53-9.58,1.34-9.58,1.34,3.51-17.06,4.28-19a21.65,21.65,0,0,1,1.15-2.56,52.37,52.37,0,0,0-2-26c-4.79-13.54-17-21.85-31-19.29s-26.45,14.56-31.88,21.59S265,217.42,262.76,219.28a6.61,6.61,0,0,1-4.41,1.66s-8,19.11-11.11,27.28-6.59,12.72-15.79,15a177.81,177.81,0,0,1-34.18,4.6c-12.59.51-27.86.19-44-3.45s-45.3-11.56-54.63-15.4-13.68-7.92-14.89-11-1.41-5.11-.19-6.52,2.1-2.3,4.34-5,3.77-13.22,3.77-13.22-21.4-11.12-22.17-13.36-.77-5.3.19-7,7.93-3.13,7.93-3.13-4.93-11.5-5.44-13.87-.38-2.75,1.41-4.09,13.8-7.92,26.07-13.48c0,0,.86-5.37,4.06-7.13s14.69-4.57,29.33-7.89,38.65-6.32,50.79-7.41,30.36-2.24,30.36-2.24,26.39-2.68,47.34-3.83a1.46,1.46,0,0,0,.85-.51,10.84,10.84,0,0,1,2.26-2.67,4.91,4.91,0,0,1,1.91-.57s24.54-22.37,39-33.23c0,0-.19-2.49,13.42-5.11s37.13-6,69.07-5.69S442.44,85.62,460,97.25c0,0,9.85,6.39,11.76,7.92s2.94,2.5,2.49,3.13c0,0,23.13,21,24.6,22.37s9.91,4.28,12.21,7.22,2.49,5.94,2.81,9.07-1.92,17-1.92,17,5.05,1.56,5.5,2,.22,3.86-.32,4.5-8.89,2.24-8.89,2.24l-5,7.82a57.45,57.45,0,0,0-1.15-5.95l-.08-1.39-.58-1.72s1.79-16.3-6-17.9-16.87,17.19-19.36,22-6.07,13.1-7.29,14.13a8.34,8.34,0,0,1-3.51,1.34,17.83,17.83,0,0,1-2.62,5.88c-2,2.81-8,11.76-10.48,12.16Z"/><path class="cls-6" d="M465,191.86s-.84,1.18-7.93,2.84-104.6,22.43-106.46,22.69-.51-2-.51-2l113.93-24.09s1.79-.52,1,.54Z"/><path class="cls-3" d="M260.38,183.43a8.38,8.38,0,0,1,1.23,3.28,8.66,8.66,0,0,1-.13,4.67c-.46,1.69-1,2.84-1.64,3.15s-12.21,2.09-12.21,2.09-4-1.1-4.2-1.51a24.32,24.32,0,0,1-1.1-5.52c.06-1.25.59-4.09.59-4.09s16.67-2.45,17.46-2.07Z"/><path class="cls-7" d="M258.72,185.45a1.27,1.27,0,0,1,.92.87c.13.36.77,3,.92,3.68s-.51,3.91-1,4.35-14.46,2.22-15.05,1.89-2-4.73-1.82-5.93,2.07-2.81,2.07-2.81Z"/><path class="cls-8" d="M72.22,173a6.72,6.72,0,0,1,1.34-1.21c1.79-1.34,13.8-7.92,26.07-13.48,0,0,.86-5.37,4.06-7.13s14.69-4.57,29.33-7.89,38.65-6.32,50.79-7.41,30.36-2.24,30.36-2.24,26.39-2.68,47.34-3.83a1.46,1.46,0,0,0,.85-.51,10.84,10.84,0,0,1,2.26-2.67,4.91,4.91,0,0,1,1.91-.57s24.54-22.37,39-33.23c0,0-.19-2.49,13.42-5.11s37.13-6,69.07-5.69S442.44,85.62,460,97.25c0,0,9.85,6.39,11.76,7.92s2.94,2.5,2.49,3.13c0,0,23.13,21,24.6,22.37s9.91,4.28,12.21,7.22,2.48,5.83,2.79,8.9c-5.56.54-22.38,1.86-22.38,1.86l-13.7.51-38.34,3.17-39.16,4.29-32.41,3.48-30.57,3.58s-43.75,5.31-57.45,7.56-47.85,9.41-47.85,9.41l-.87.1s0-5.44-.82-8.23a16.63,16.63,0,0,0-4.17-6.77c-1.71-1.76-6-2.73-8.38-2.64a27.61,27.61,0,0,0-7.23,1.18,146.43,146.43,0,0,0-18.79,7.13c-7.26,3.43-20.39,10.28-23.21,12.22s-8.53,6.29-9.15,6.39a28.54,28.54,0,0,1-3.22-.1s-12.93-1.44-20.75-2.25-32.51-4.76-39.31-6.19-19-6.49-21-7.31-1.87-.9-2.34-1.07a1.5,1.5,0,0,0-.52-.1Z"/><path class="cls-9" d="M502,132.45c-5.53-2.46-18.39-5.45-24.34-4.8-4.52.5-10.45,3-15.34,4-11.39,2.42-28,2.49-40,2.88-25.92.85-51,1.63-76.88,4-36.87,3.37-73.73,8.94-108.9,20.94a40.6,40.6,0,0,0-4.15,1.56,25.42,25.42,0,0,0,2.76-.77c16-4.7,32.09-8.87,48.44-12,44.66-8.45,93.4-10.27,138.79-12.18,11.2-.48,26.19-.76,36.91-2.7,13.45-2.44,15-6.88,29.54-4.13,4.58.87,8.85,2.28,13.18,3.16Z"/><path class="cls-10" d="M368.51,132.72s-47.44,1-93.86,9.61-77.9,22.9-90.17,28.63S157.39,186.91,155.24,188s13.49-11,19.22-14.52-15.23,7.88-11.45,3-6-3.89-20.55-5.52-15.85-1.54-24.13,1-19.53,8.39-19.53,8.39,30.27-19,46.42-25.77c0,0,11.35.82,21.67.41s41.51-9.1,66.56-14.52-36.8,9.81-44.78,13,8.28,3.48,20.14,2.05,69.11-23.11,159.7-22.8Z"/><path class="cls-9" d="M309,130.06s-47.65,3.48-78.73,10.23-56,12.47-62.77,13.49-19,.11-22.8,0-8.59-.31-1.54-3.27,19.94-6.75,34.25-10,37.22-6.44,37.22-6.44-34.46,5.93-46.72,9.3-20.86,5.73-18.3,6.34,13.29,1,18.4.1,77.29-19.63,141-19.73Z"/><path class="cls-2" d="M511.27,163.39A8.48,8.48,0,0,1,510,164c-.84.32-1.7.61-2.56.89-1.45.46-2.91.91-4.38,1.33a.83.83,0,0,0-.57.55c-.17.51-.34,1-.5,1.54a8.72,8.72,0,0,0-.44,1.76c0,.22,0,.46,0,.67,0,.42-.07.84-.1,1.25v0c.31,1,.57,1.95.81,2.9l.07,0,6.14-1.32.06,0,.1,0c1.45-.28,2.91-.58,4.36-.9,1-.23,2-.45,2.91-.72a4.77,4.77,0,0,0,1.93-.86,5.55,5.55,0,0,0,.72-2.67c.06-.79.15-2.39-.45-3a12.08,12.08,0,0,0-3-1.3c-.93-.32-1.88-.63-2.82-.93a.84.84,0,0,0-.89.25Z"/><path class="cls-11" d="M511.9,164s5.05,1.56,5.5,2,.22,3.86-.32,4.5-7.54,2-8.72,2.21h0l-.17,0h0L502.05,174V174c0-.55.31-3.61.31-3.93s.9-3,.9-3,8.21-2.36,8.65-3Z"/><path class="cls-2" d="M517.31,166.5a19.44,19.44,0,0,1-.06,2c-.1.94-.24,1.66-.77,2s-13.11,2.8-13.48,2.94l-.37.14.55-4S515.05,167,516,166.86s-10.09,2.56-11,2.93.88.36,2.29.28,1-1,2.11-.65.87.18,2.73-.18,2.27,0,2.92-.73.45-1.07,1-.43,1.2-1.58,1.2-1.58Z"/><path class="cls-9" d="M513.73,146.06c-8.88-.25-26.78,1.11-47.6,3a18.4,18.4,0,0,1-.52,2.17c0,.12-.08.24-.11.36l.62-.1c11.07-1.79,10.08-1.26,9,.77s9.84-.51,9.84-.51,16,1.5,15-.79.42-2.48,3.68-2,4.34-1.09,7.66-1.28c1.31-.08,2.08-.14,2.54-.2,0-.22,0-.41,0-.58l-.09-.9Zm-55.94,6.36c-.15-.25-.29-.53-.41-.78a14.92,14.92,0,0,1-.61-1.68c-11.95,1.14-24.54,2.4-36.7,3.59-39,3.84-109.27,11.25-124.61,13.17S236,178.09,231.82,180.14s4.86.38,11.12-1.41,3.71,3.07,9.59-.9,5.75-2,14.18-3.57,7.67.51,6.39,2.94,18.15-3.33,26.33-6.52,5.11-4,14.95-4.6,32.92,4.17,32.29,3.26-2-4.67,3.36-5.56,40.77-4.86,50.74-6,10.6.77,18.66-1.79c6.44-2,25.37-2.53,38.36-3.56Z"/><path class="cls-2" d="M412.21,85.34q-7.63-.9-15.31-1.33c-7.75-.43-15.51-.45-23.27-.31-10.1.18-20.22.58-30.32.94-5.09.18-10.18.47-15.25,1-3.52.36-7.07.82-10.54,1.52A62.52,62.52,0,0,0,310.3,89a19.43,19.43,0,0,0-3.78,1.63,4.19,4.19,0,0,0-1.78,1.76c-2.42,1.83-4.8,3.72-7.15,5.64-2.72,2.2-5.4,4.45-8.07,6.72q-8.19,6.95-16.21,14.12-3.58,3.18-7.15,6.42a5.94,5.94,0,0,0-2,.65,8.75,8.75,0,0,0-2.27,2.56l-2.21,1.42,2.65-.31a15.59,15.59,0,0,1,2.29-.32c1.12-.23,2.26-.39,3.4-.52a104.34,104.34,0,0,1,10.89-.66c4.54-.07,9.09-.06,13.62,0q10.06,0,20.13.19,6.45.1,12.89.29c3.77.11,7.55.25,11.32.45l17.6,1q10,.57,20,1.17c2.5.15,5,.3,7.49.47,1.5.1,3,.19,4.49.32a30.74,30.74,0,0,0,6.78,0,7.65,7.65,0,0,0,4.65-2.07,16.6,16.6,0,0,0,2.74-4.6c1-2.3,1.87-4.7,2.74-7.06.67-1.79,1.31-3.61,1.95-5.42.86-2.42,1.71-4.86,2.56-7.29l2.9-8.28c.63-1.8,1.25-3.61,1.92-5.39a22.48,22.48,0,0,0,1.12-3.64,2.53,2.53,0,0,0-.47-2.42,1.8,1.8,0,0,0-1.14-.4Z"/><path class="cls-2" d="M262.63,128.94a8.31,8.31,0,0,1,2-2.3,4.91,4.91,0,0,1,1.91-.57s24.54-22.37,39-33.23c0,0-.18-2.34,12.18-4.87a171.11,171.11,0,0,1,25.65-2.48c32.33-1.15,47.8-1.79,68.82.7,1.34,0,1.15,1.54-.26,5.31s-7.28,20.89-9.33,26.39-3.45,9.39-5.3,11.37-5.62,2.24-10.74,1.79-32.07-2-49.58-2.94-49.14-1-58-.9-15,1.08-16.3,1.73Z"/><path class="cls-12" d="M404,132.45h0Zm-.06,0a11.82,11.82,0,0,1-1.79-.12,1,1,0,0,1-.61-.38h0a7.19,7.19,0,0,1-.38,2.33c-.42,1.12,0,.86-3.68,3.23s-5.75,2.74-5.5,6.58,2.31,8.75,2.69,12.27-.58,15.39-1.92,25.36-4.47,24-4.6,25.88.77,1.66.19,2.69-3.89,7.34-2,7.21S447.06,204,451.54,202a14.07,14.07,0,0,0,7-7c.25-.86-.39-1.63-.13-2.39a42.12,42.12,0,0,1,2-5.69c1.86-4.67,5.24-14.89,7.61-23.84s3.13-12.9,2.61-18.91a28,28,0,0,0-4.05-12.07,11,11,0,0,0-3.1-2.24c-.84-.47.14-1,.83-1.2-1.52.49-2.89.84-3.8,1.1a3,3,0,0,1-.38.1h0a6.19,6.19,0,0,1,1.34.16,13.45,13.45,0,0,1,4,2.36c1,1,3.26,5.24,4,9.4s1.27,6.51-2.3,21.08-9.62,28.53-9.81,29.65.25,1.92-.13,2.75-2.78,4.73-6.55,5.88-61.15,14.57-62.62,14.92-1.31,0-1-1,2.14-4.28,2.3-5.08-.61-1.37-.45-2.4,3.55-16.71,5-27.18a159.22,159.22,0,0,0,1.66-23.84c-.19-2.88-1.41-5.81-2.56-10.42s1.6-5.88,5.18-7.73,4.12-3.26,4.25-4.31.4-1.71,1.44-1.7Zm61-4h0Z"/><path class="cls-2" d="M403.28,132.26h0Zm-.06,0a12,12,0,0,1-1.8-.12,1,1,0,0,1-.6-.38h0a7.28,7.28,0,0,1-.39,2.32c-.42,1.12,0,.87-3.67,3.23s-5.75,2.75-5.5,6.59,2.3,8.75,2.68,12.26-.57,15.4-1.91,25.37-4.48,24-4.6,25.88.76,1.66.19,2.68-3.9,7.35-2,7.22,60.76-13.54,65.23-15.46a14,14,0,0,0,7-7c.26-.86-.38-1.63-.12-2.39a41.53,41.53,0,0,1,2-5.69c1.85-4.67,5.24-14.89,7.6-23.84S470.46,150,470,144a27.92,27.92,0,0,0-4.06-12.07,10.72,10.72,0,0,0-3.09-2.24c-.84-.47.14-1,.83-1.2-1.53.49-2.89.84-3.81,1.1l-.38.1h0a6.19,6.19,0,0,1,1.34.16,13.48,13.48,0,0,1,4,2.36c1,1,3.26,5.24,4,9.39s1.28,6.52-2.3,21.09-9.61,28.53-9.8,29.65.25,1.91-.13,2.75-2.78,4.72-6.55,5.87-61.15,14.58-62.62,14.93-1.31,0-1.06-1,2.14-4.28,2.3-5.08-.61-1.38-.45-2.4,3.55-16.71,5-27.19a159.11,159.11,0,0,0,1.66-23.83c-.19-2.88-1.4-5.82-2.55-10.42s1.59-5.88,5.17-7.73,4.12-3.26,4.25-4.31.41-1.71,1.45-1.7Zm60.95-4h0Z"/><path class="cls-2" d="M348.28,213.21a3.3,3.3,0,0,0,.23,1.7,2,2,0,0,0,1.27.89c1.7.49,2.81-.31,3.42-1.92a8.49,8.49,0,0,0,.35-1.49c.17-.92.29-1.86.4-2.79a80.67,80.67,0,0,0,.52-8.79,66.9,66.9,0,0,0-3.88-23.93,36.85,36.85,0,0,0-7.83-12.36A37.3,37.3,0,0,0,327.3,155a45.81,45.81,0,0,0-20.18-1.61c-18.87,2.51-32.08,19-40.38,34.82-5,9.5-9.63,19.18-14.18,28.89-.36.78.23,1.5.79,2a12.87,12.87,0,0,0,1.86,1.25c.89.52,1.85,1,2.79,1.43a.69.69,0,0,0,.28.08,5.94,5.94,0,0,0,1.63-.16,8,8,0,0,0,3.4-1.7,6.23,6.23,0,0,0,.76-.78c.34-.41.68-.82,1-1.25.94-1.21,1.85-2.45,2.75-3.7,2.46-3.41,4.86-6.88,7.27-10.33,1.81-2.59,3.61-5.17,5.43-7.75,1.41-2,2.84-4,4.32-5.91a67.24,67.24,0,0,1,8.7-9.15,59.68,59.68,0,0,1,12.84-8.77,38,38,0,0,1,9.83-3.36A25.27,25.27,0,0,1,332.08,171c6.82,3.35,11.65,9.55,14.16,16.64A50.18,50.18,0,0,1,349,204.42a52.53,52.53,0,0,1-.31,5.76c-.1,1-.23,1.92-.42,2.87a.81.81,0,0,0,0,.16Z"/><path class="cls-2" d="M349.13,213.21A52.5,52.5,0,0,0,347,187.39c-4.79-13.54-17-21.85-31-19.29s-26.45,14.56-31.88,21.59S265,217.42,262.76,219.28a6.61,6.61,0,0,1-4.41,1.66s-5.49-2.51-5-3.53,7.5-16.2,14.15-28.85,19.55-31.69,39.75-34.38,36.42,7,42.55,23,3.19,34.89,2.62,36.4S351,215.27,350,215s-.9-.77-.89-1.77Z"/><path class="cls-2" d="M502.83,173.39a32.45,32.45,0,0,0,.72-7.74,34.29,34.29,0,0,0-1.67-10.4,24.94,24.94,0,0,0-1-2.47,23.08,23.08,0,0,0-5.73-7.73,12.47,12.47,0,0,0-7.89-3.29,6.72,6.72,0,0,0-1.18.1c-6.72,1-11.43,10.86-13.79,16.4-.86,2-1.63,4.12-2.37,6.19q-1.35,3.83-2.61,7.68-1.95,5.94-3.74,11.93c-.39,1.34-.79,2.69-1.17,4.05a8.39,8.39,0,0,0-.42,2.06c.23,1.41,2.1,1.68,3.25,1.7h.13a8.48,8.48,0,0,0,3.95-1.53,14.09,14.09,0,0,0,2.12-3.38c.95-1.85,1.84-3.75,2.74-5.63s1.71-3.6,2.63-5.37,1.77-3.45,2.69-5.15c1.31-2.4,2.68-4.77,4.2-7,2.05-3.08,7.14-10.25,11.54-9.35a4.76,4.76,0,0,1,1.84.81c2,1.46,2.84,4.43,3.24,6.74a33.48,33.48,0,0,1,.42,6.41c0,.54,0,1.1-.05,1.65.49,1.35.91,2.7,1.25,4h.1a.84.84,0,0,0,.79-.65Z"/><path class="cls-2" d="M502,173.19l-.58-1.72s1.79-16.3-6-17.9-16.87,17.19-19.36,22-6.07,13.1-7.29,14.13a8.34,8.34,0,0,1-3.51,1.34c-1.47,0-2.34-.42-2.43-1s6.61-22.88,10.25-31.44,8.37-16,14.19-16,11.5,6.07,13.8,12.91a35.51,35.51,0,0,1,.93,17.66Z"/><path class="cls-2" d="M91.62,214.14c0,1.48.19,3.54,1.21,4.45a14.12,14.12,0,0,0,3.38,1.27c2.33.69,4.69,1.31,7,1.91,6.86,1.78,13.76,3.42,20.66,5q7.17,1.65,14.37,3.14,12.1,2.5,24.24,4.82c2.66.5,5.32,1,8,1.48l2.37.41a9.13,9.13,0,0,0,1.17.15,2.72,2.72,0,0,0,2-1.25c1,.16,2,.29,3,.43,4,.53,8.1.95,12.15,1.33,4.38.41,8.84.57,13.24.65s9,.08,13.5,0c1.66,0,3.33-.11,5-.22.58,0,1.17-.09,1.74-.15a11.36,11.36,0,0,0,1.19-.19c2.12-.5,3.53-4.43,4.15-6.25.5-1.48.93-3,1.31-4.5l.36-1.52c2.9-.38,5.81-.8,8.71-1.24,2-.3,3.93-.61,5.88-1,.72-.13,1.44-.27,2.16-.44a6.25,6.25,0,0,0,1.35-.43,2.4,2.4,0,0,0,.7-.57,4.5,4.5,0,0,0,.81-3c0-1.35-.11-2.71-.11-4.07a15,15,0,0,0-.14-2.51,2,2,0,0,0-.86-1.48,3.19,3.19,0,0,0-1.7-.25c-.34,0-.7,0-1,.05l-2.18.14-7.26.46q-10.66.67-21.34,1.23c-4.89.25-9.78.47-14.67.62-3.84.12-7.73.22-11.58.12-3.51-.09-7-.24-10.53-.49-2.83-.19-5.66-.45-8.47-.8-2-.24-4-.53-6-1a12.21,12.21,0,0,1-2.9-.89,9.4,9.4,0,0,1-1.33-2.58c-.67-1.73-1.22-3.55-1.72-5.34-.83-2.91-1.59-5.9-2.25-8.86a.84.84,0,0,0-.73-.66c-9.54-1.09-19.07-2.25-28.58-3.55-6.29-.86-12.57-1.78-18.84-2.81-3.55-.58-7.11-1.2-10.64-1.91-1.35-.26-2.69-.54-4-.85-.39-.09-.81-.23-1.19-.35-.73-.23-1.45-.47-2.18-.72q-3-1-5.94-2.09c-1.76-.65-3.51-1.31-5.25-2-.68-.29-1.36-.57-2-.88a14.66,14.66,0,0,1-1.31-.67,16.47,16.47,0,0,0-1.83-1,1.43,1.43,0,0,0-1.64.06c-.6.59-.19,1.53.06,2.18.32.86.68,1.72,1,2.57l1.77,4.29c.63,1.53,1.26,3,1.9,4.58a1,1,0,0,0-.34,0,43.23,43.23,0,0,0-4.33,1.17c-1.22.41-3.49,1.21-4.16,2.37-1.18,2.06-1,5.46-.26,7.67A4.18,4.18,0,0,0,70,201.68c.79.63,1.66,1.21,2.51,1.77,2.36,1.52,4.81,2.93,7.25,4.31,3.77,2.13,7.6,4.2,11.45,6.21h0Z"/><path class="cls-2" d="M91.64,213.21s-21.4-11.12-22.17-13.36-.77-5.3.19-7,7.93-3.13,7.93-3.13L79.53,191s-5.11-12.27-5.69-13.81-.63-1.91,2.18-.19,16.48,6.46,18.14,6.84,16.87,4,62.18,9.14c0,0,3.58,16,5.69,17.32s13,2.87,28.3,3.25,56.62-2.62,58.09-2.62,1.85-.25,1.85,3.39.57,6.07-1,6.9-18.4,3.07-18.4,3.07-2.37,11.5-5.31,12.2-22.81,1-34.37-.06-15.59-1.85-15.59-1.85-.77,1.34-1.6,1.34-17.64-3.13-35.59-6.84S94.55,219,93.4,218s-.9-4.34-.9-4.34Z"/><path class="cls-11" d="M91.64,213.21s-21.4-11.12-22.17-13.36-.77-5.3.19-7c.85-1.48,6.44-2.8,7.68-3.08,0,0-.62,1.11,2.45,3.16s14.12,7.35,16.42,7.92,55.27,10.61,72.53,12.53a255,255,0,0,0,41.79,1.15c11.63-.52,37.17-2.16,38.4-2.37,1-.18,1.26.09,1.31.65,0,.4,0,.88,0,1.46,0,3.64.57,6.07-1,6.9s-18.4,3.07-18.4,3.07-39,4-57.51,2.81S95,214.5,92.5,213.61Z"/><path class="cls-2" d="M249.18,214.82s-48,7.16-75.84,4.73-75.66-10.22-80.65-12.14S69.8,196.05,69.3,193.71c0,0,17.07,10.25,24.48,12.36s68.18,12.14,85.56,12.52c5.65.13,14.62.28,24.67-.25,20.89-1.12,45.17-3.52,45.17-3.52Z"/><path class="cls-11" d="M156.21,197.34c-3.69,0-11.28-1.24-15.13-1.74C129,194,115.84,192.46,104,190c-5.45-1.14-18.75-6.14-23.55-9a18.73,18.73,0,0,1,2.4.87c8.25,3.17,15.15,6.09,24,7.58,12.05,2,24.36,3.8,36.46,5.69,3.41.53,9.78,1.29,12.93,2.17ZM84.9,189.42c4.06,1.26,9.24,3.59,13.38,5.14a77.16,77.16,0,0,0,17.31,4.7c13.44,2.34,27.16,4.73,40.54,7.37a25.7,25.7,0,0,1,2.89.65c-1.89-.05-5.1-.62-7-.91-13.71-2-28.55-4.18-42-7.08-5.65-1.21-20-7-25-9.87Zm-1.72-3.18c3.93,1.27,8.86,3.54,12.9,5.06,8,3,11.8,3.83,20.19,5.23,12.82,2.14,25.94,4.37,38.7,6.76a25.23,25.23,0,0,1,2.84.62c-2.21,0-6.28-.74-8.56-1.06C136,201,121.56,199,108.56,196.22c-6-1.29-20.07-6.82-25.38-10Zm-1.28-2.66c3.48,1.09,7.91,3.13,11.51,4.45,10.49,3.85,16.13,4.36,26.91,6.21,11.45,2,23.27,3.75,34.64,5.93a10.47,10.47,0,0,1,1.89.43c-1.89,0-5.11-.55-7.06-.81-14.2-1.91-29.79-4-43.74-7-5.88-1.26-19-6.13-24.15-9.25Z"/><path class="cls-11" d="M79.66,179.29s5.62,11.06,6.77,12.72-2.93,2-3.51,1.79a9.26,9.26,0,0,1-2.94-3,38,38,0,0,1-2.91-6.33,53.5,53.5,0,0,0,3.23,5.3c.8.87.64.42,2.3,0s1.12-.41,0,.39.35.32,1.18-.16.07-1.44-4.09-10.71Z"/><path class="cls-7" d="M229.82,225.11s-2.62,9.39-4,10.16-19.94,1.34-30,.57-16.29-1.21-17.45-1.91-4.08-6-4.08-6,13.73.64,55.52-2.81Z"/><path class="cls-2" d="M228.8,225.81s-2.56,6.65-3.32,7.73.7-4.72-.07-3.39-.76.39-2.17.71a57,57,0,0,1-12,1c-5-.19-5.68-4-6.19-1.73s-.52,2.49-1.28,1.09.45,0-2.82,0-5.11.51-6.9,0-3-3.39-3.38-1.6.83,5.37-.51,2.94-1.54-1-3-1.28-1.85.51-3.51-.25-2.3-.71-2,.83-.39.51-1-.58-.45.19-1.28-.13-2.17-.64-1.6.9-1.53-2.17-1.79-3,1.73-.19,16.36-.83,36.36-2.37,36.36-2.37Z"/><path class="cls-12" d="M239.17,210.64c0-.74.37-2.89.64-9,.38-8.88.64-18.86-1-26.59s-3.71-11.82-7.29-12.9-15.53-1.09-18-.64,24.54-8.25,41.34-12.14a527.61,527.61,0,0,1,68.95-11.82c28.5-2.82,52.65-2.69,56-3.58a13.75,13.75,0,0,0,4.4-2.24l-2-.13c0,.2-.2.45-.71.77-1.91,1.21-3.77,1.47-11.82,1.6s-34.63,1.27-66.07,5.24-56.1,10.73-72.46,15.33S191.63,168.85,179,175.62a167.29,167.29,0,0,0-22.3,14c-.79.68-.43,2-.67,2.47l.43,0a.75.75,0,0,1,.29.09,3.83,3.83,0,0,1,.46-1.7c.51-.77,11-8,25.55-15.53A295.45,295.45,0,0,1,212,162s11.25-1,17.19.58,7.6,7.34,8.88,15.52.71,22.24.39,26.39c-.25,3.2-.22,5.37-.84,6.24l.31,0Z"/><path class="cls-2" d="M238.38,210.69c-.44,0,.09-.5.47-9.38s.64-18.86-1-26.58-3.71-11.83-7.29-12.91-15.52-1.09-18-.64,24.54-8.25,41.34-12.14a527.61,527.61,0,0,1,68.95-11.82c28.5-2.82,52.65-2.69,56-3.58a14.44,14.44,0,0,0,5.11-2.79l-4-.26s2.54.24.63,1.45-3.77,1.47-11.82,1.6-34.63,1.28-66.07,5.24-56.1,10.73-72.46,15.33S190.67,168.53,178,175.3a168.86,168.86,0,0,0-22.3,14c-1,.83-.16,2.73-.85,2.65s-.49,2.78-.49,2.78l2.79-1.94s-.56-1.95,0-2.72,10.1-7.86,24.67-15.4a294.72,294.72,0,0,1,29.26-13s11.25-1,17.19.58,7.6,7.34,8.88,15.52.71,22.24.39,26.39-.17,6.58-1.6,6.66l2.47-.15Z"/><path class="cls-2" d="M230.89,178a24.18,24.18,0,0,0-3.42-7.74c-1.92-2.76-4.81-5.25-8.35-5.25a7,7,0,0,0-1.77.22c-3.24.8-5.48,3.64-6.82,6.54a26.49,26.49,0,0,0-2.06,12.38,28.6,28.6,0,0,0,3.36,12.21c1.45,2.56,3.61,5.12,6.4,6.25a41.17,41.17,0,0,0,5.44-3.68,21,21,0,0,0,6.27-11.63,70.47,70.47,0,0,0,.95-9.3Z"/><path class="cls-7" d="M230.87,182.67c-.78,7.71-3.94,14.6-11.52,19.4-5.2-1.45-9.52-8.95-10-18-.57-10.08,3.82-18.25,9.8-18.25,5.7,0,10.79,7.42,11.75,16.83Z"/><path class="cls-9" d="M159.89,190.56a3.79,3.79,0,0,1-.11-.52c0-.42,4.61-3.36,10.57-6.87s13.14-7.43,18.52-10,10.79-4.82,15.35-6.49a51.8,51.8,0,0,1,10.45-3h0s6.92-.81,10.62,2.08h0a13.44,13.44,0,0,1,4.18,6.3,21.44,21.44,0,0,1,1.1,6c-.59-8.56-6.57-13.75-12-13.11s-7.22,3.52-9,7.93-2.63,9.64-.45,17.31a20.69,20.69,0,0,0,7.54,11.18,16.4,16.4,0,0,1-3.9-2.68c-1.73-1.66-2.62-1.85-13.87,2.17s-16.48,5.75-7,5.82,25.43-4.35,22.81-3.32a97.84,97.84,0,0,1-23.2,4.92c-10.22.76-16.8-1.22-21.15-4s-8.3-11.37-8.11-10.93a69.29,69.29,0,0,0,6.13,6.9c2.62,2.62,5.3,2.56,2.75-.64s1.47.77,7.28,0,17.45-4.08,24.28-9.52-5.75-6.13-18.21-4.79-24.51,3.59-24.58,5.23Zm46.24,2.31c.83-.51,1-3.64,1-3.64a11.64,11.64,0,0,0,4,7.54c-1.81-1.07-3.19-3-4.6-2.05s-13.42,5.43-20.13,7.93-8.62,2.87-7.15,3.51S190,208,190,208s-8.07.25-13-1.28a25.84,25.84,0,0,1-8.5-4.72,12.12,12.12,0,0,0,5.63,1.79c3.57.32,5.75-.13,12.9-2.63s19-8.24,19-8.24Z"/><path class="cls-2" d="M230.87,182.67c-.68,6.77-3.2,12.9-8.93,17.55l-.15-.07a15.24,15.24,0,0,1-4.86-3.25c-1.34-1.41-2.11-4.6-.32-2.75s2.75,1.47,3.84.45,1.4-1.22,3.51-3.07a10.33,10.33,0,0,0,3.64-6c.26-1.91.07-1.72-2.49-1s-2.87.26-6.71.64-3.58.07-4.09,2.11-1.85-1.79-2,.76,2.81,8.7,1.34,5.82a29.23,29.23,0,0,1-2.93-14.38c.51-5.49,3.89-11,5.81-11.43-5.05,5.94-4.92,13.6-4.09,12s1-3,1.15-1.79,1.53,1.73,3.77,2c1.92.27,10.86,1.06,13.36,1.28,0,.36.09.73.13,1.1Z"/><path class="cls-2" d="M219.55,167.63c2.82.26,7.8,3.32,9.71,12.66,0,0-1.08-4.35-3.25-6.71s1.34,5.75-.77,2.23-3.83-4.79-6.78-4.54-4.47,3.39-4.47,3.39,2-7.86,5.56-7Z"/><path d="M225.3,165.79c-3.7-2.89-10.6-2.08-10.62-2.08h0a51.8,51.8,0,0,0-10.45,3c-4.56,1.67-9.92,3.92-15.35,6.49s-12.6,6.5-18.52,10-10.59,6.45-10.57,6.87a26.78,26.78,0,0,0,3.11,6.94,32.43,32.43,0,0,0,4.7,6.26,17.32,17.32,0,0,0,7.63,4.59,44.93,44.93,0,0,0,9.22,1.42,67,67,0,0,0,16.22-1.05,61,61,0,0,0,14.88-4.53,25.37,25.37,0,0,0,11.29-9.62,27.66,27.66,0,0,0,3.74-12.9,23.46,23.46,0,0,0-1.08-9.05,13.44,13.44,0,0,0-4.18-6.3Zm5,6a24.13,24.13,0,0,1,1.13,9.38,28.36,28.36,0,0,1-3.87,13.29,26.14,26.14,0,0,1-11.65,9.95,62.4,62.4,0,0,1-15.09,4.6,67.83,67.83,0,0,1-16.44,1.06,46.22,46.22,0,0,1-9.39-1.45,18.26,18.26,0,0,1-8-4.81,33.33,33.33,0,0,1-4.82-6.43,26.8,26.8,0,0,1-3.22-7.33c-.05-.75,4.77-4,11-7.64,6-3.5,13.19-7.46,18.59-10s10.84-4.85,15.42-6.52a52.06,52.06,0,0,1,10.66-3s7.25-.85,11.22,2.26a14.1,14.1,0,0,1,4.48,6.7Z"/><path class="cls-2" d="M260.45,183.73c.67.36,1.69,3.39,1.63,5.47s-.77,5.2-1.67,6-12.71,2.14-14.56,2.18-4.09,0-4.76-1.35a9.65,9.65,0,0,1-.7-4.92c.16-1.63.47-5.11,2.1-5.75s16.49-1.82,16.81-1.88-15.15,1.88-16,2.2.32,1.25,1.19,1.31,13.57-1.75,14.31-1.5-12.68,1.76-13.61,2.17-1,3-1,4,.73,3.57,1.37,3.86,13-1.09,13.55-1.44.95-2.81,1.15-3.73-.9-4-.93-4.51,1.21,3.13,1.53,3.52.71.35.84-.16a22.84,22.84,0,0,0-1.28-5.44Z"/><path class="cls-2" d="M258.76,185.94c.57.45,1.14,2.94,1.14,3.83a13.53,13.53,0,0,1-.89,3.64c-.22.36.22-2.45,0-3.35s-.89,1.15-1.47.22.13.1-1.44.39-2,1.69-2.23.32-.26-5.53-.32-1.7-.29,2.66-.54,1.63-.9.13-1.54.26-.6.13-.76-1.31-.39-.13-.42,2.46-.32.45-.45-.73-.13.38-.67.32-1.15,1.4-1.47-.07-.6-2.43-.7.38,0-.6-.48-.47-.51.44-.83-.07-.74-.54-.64.29.48,3,.48,3a8.56,8.56,0,0,1-.86-3.67,6.66,6.66,0,0,1,.73-3.07c.16-.36-.06.86-.06,1.53s.45-1.12.83-.45.64.32,1.56.19a1.45,1.45,0,0,0,1.12-1.66c-.06-.54.38,1,.61,1.79s.25-2.27.64-2.27,1.6-.31,2.59-.47,1.3-.26,2-.32.25,1,.38,2.2.51-1.79.8-2.2,1.66-.42,1.66-.42.48,2,.64,2.59,1.15-.51.55-2.78Z"/><path class="cls-2" d="M99.63,158.32s.79-4.94,3.68-6.9c5.3-1.25,5.59.86,3.19,3a27.81,27.81,0,0,1-6.87,3.9Z"/><path class="cls-9" d="M83.53,231.48c1.1-1.28,1.94-2.13,3.77-4.34h0c-2.07,3.8-1.46,6.5,4.16,9.87s22.39,8,45.91,13.5,50.91,9.2,71.57,6.85,28-4,31.79-8.79c3.43-4.37,12.69-25.51,14.36-29.36.42.27.88.52,1.31.76-1.24,3.69-3.6,9.07-4.95,12.44-1.65,4.08-7.64,19.54-9.69,22.39-5.88,8.18-25.26,9.58-34.77,10.43-13.39,1.19-27.23,1.78-40.53-.49a438.52,438.52,0,0,1-61.7-15.49c-8-2.64-15.24-4.9-20.14-12.18-1.26-1.86-1.31-3.35-1.1-5.54a.18.18,0,0,0,0-.05Z"/><path class="cls-4" d="M352.57,213l-.08.38c1.89-22.94-2.11-31.53-8.75-40.31-6.77-8.94-17.64-9.77-22.49-10.54s-4.41-.38-6.77-2.81-1.28,2.94-3.64,1.47-6.2-4.09-1.73-4.86,14.95.39,14.95.39-2.68-.83-10.29-1.54-15.91,3.14-15.91,3.14,4.54,4.6,1,4.85a7.54,7.54,0,0,1-5.81-2.24c-6.26,3.33-14.45,12.34-14.45,12.34a3.49,3.49,0,0,1,2.69,1.4c.77,1.35.51,4.41-1.92,5.24s-4.09-2-4.09-2a31.89,31.89,0,0,1-2.3,3.19c-1.53,1.92-6.9,12-8.11,14.57s2.36-2.11,3.83-.38,3.07,3.64,1.92,6.52-7,13.86-7,13.86l4.6-7.41c4.6-7.41,28.37-49.71,59.55-43.07,27.43,5.85,25.69,39.77,24.87,47.85Z"/><path class="cls-11" d="M292.77,162a34.48,34.48,0,0,0-8,6c-4.15,4-4.54,4.35-4.54,4.35a7.75,7.75,0,0,1,4.54-2.43c3-.51,2.87,2.3,4.47,3.2s1.21,1.08-2,.32.26.76,1.08,2.93-1.33,2.5-4.6,6.58-9,12.66-9,12.66,8.56-11.89,17.63-19.69,13.74-9.71,21.09-11.69c0,0-9.14,1.73-13.8,3.58s-4.93.51-6.78-1-.06-4.85-.06-4.85Z"/><path class="cls-11" d="M329,157.69a5.3,5.3,0,0,1,1.57,2.33c.16,1.09-.64,1.34-2.08.7s-4.38-3.73-4.38-3.73,3.49,3,4.54,3.32,1.79-.77.35-2.62Z"/><path class="cls-11" d="M346.65,172.45a8.1,8.1,0,0,0,.35,3.23c.55,1.31,1.09,1.91,1.92,2.14s-.77-.9-.77-.9.48.16.45-.6a1,1,0,0,0-1.25-1.09,6.8,6.8,0,0,1-.7-2.78Z"/><path class="cls-11" d="M326.81,156.86c.89.16,1.12,2.14.06,2s-1.15-2.2-.06-2Z"/><path class="cls-11" d="M295.88,159.16c1.31,0,1.54,2,.42,2s-1.31-1.79-.42-2Z"/><path class="cls-11" d="M277.67,174.75c.83.06,1.21,2.14-.16,2s-.93-2,.16-2Z"/><path class="cls-11" d="M263,201.17c1,.1.89,2-.22,1.89s-.58-1.79.22-1.89Z"/><path class="cls-11" d="M264.48,197.69a8.74,8.74,0,0,1,2.65,3,4.16,4.16,0,0,1-1.57,5.24,6,6,0,0,1-5.17,0c-.36-.39.86-.84,1.91-1.44a6.93,6.93,0,0,0,2-1.73c.63-.7,0,1.12-.93,2.08s.1.77,1.6.06,1.5-1.95,1.53-3.32-2-3.93-2-3.93Z"/><path class="cls-11" d="M280.51,175.39c.13,1.12-.12,2.78-1.56,3.35a2.75,2.75,0,0,1-3.16-1.24c-.13-.54.92.35,1.94.41s1.57-.6,1.7-1.59.29,0,.38.32.7.41.7-1.25Z"/><path class="cls-4" d="M501.35,156.41a28.07,28.07,0,0,1,.69,2.81c-.8-3.36-2.87-7.79-8.2-7.06-8.43,1.15-14.06,13.68-17,18.73s-4.21,7-5.17,7.72,1.66-2.8,2.43-4.85-1.86-1.15-2.31-3.19-4,6.45-4,6.45l4.34-13.35s1.38,1.37,2.82.67,1.62-3,.41-3.62a6.66,6.66,0,0,0-1.79-.73,61.71,61.71,0,0,1,3.9-8.21,24.8,24.8,0,0,1,3.45-4.6s.89,2,2.36,2.17,1.57-1.34.8-2.2a7.89,7.89,0,0,0-1.79-1.44,8.75,8.75,0,0,1,5.63-2.37c3.13.09,4.79,1.67,6.51,3.07l1.73,1.41s-3.26-2.24-4.34-2.24.83,2.94,1.85,4.54-.64-2.75-.64-2.75,1.47,2.94,3.26,4c1.28.74,3.62,1.21,5.08,5.08Z"/><path class="cls-11" d="M490.59,152.3s-4.08,2-6.13,4.76-5.49,8.73-5.88,9.43,2.69-5.91,3.07-7.09-2.56-2.34-3.64-2.88-3.52,3.36-2.65.64,4.09-7.48,4.72-8.31-.32,2.49-.6,3.58.73,1.92,2.9,2.87S482,153.87,481,153s2.65,1.16,3.74,1.63,2.94-2,5.84-2.3Z"/><path class="cls-11" d="M481.76,147.7c-.16,0-.28-.31-.28-.71s.12-.7.28-.7.29.31.29.7-.13.71-.29.71Z"/><path class="cls-11" d="M473.15,162.71c-.25,0-.46-.29-.46-.64s.21-.64.46-.64.47.28.47.64-.21.64-.47.64Z"/><path class="cls-11" d="M466.75,180.78c-.24-.08-.54.18-.67.59s0,.79.21.87.55-.19.67-.59,0-.8-.21-.87Z"/><path class="cls-11" d="M467.56,178.7s2.59,1,2.3,3.22a2.85,2.85,0,0,1-3.23,2.43c-.92,0-1.43-.16-1-.67a10.09,10.09,0,0,0,1.51-1.6c.38-.67.73.07,1.59.1s1.12-2.49-1.18-3.48Z"/><path class="cls-2" d="M464.78,145.28c.67.25,1.47,2.26,1.63,3.48s-.38,4.7-1.85,4.89a22.22,22.22,0,0,1-5.82.06c-1.5-.32-1.94-3.32-1.94-3.32s1.14,2.56,2,2.84a18.59,18.59,0,0,0,5-.06c1.28-.16-1.31-.29-2.17-.29s1.25-.22,2.17-.51,1.73-2.43,1.73-2.43-8.34.23-8.82.1-.54-4.35.38-4.79,6.39-.61,7.7,0Z"/><path class="cls-11" d="M464.4,145.66c.32.19,1.69,2.59,1.34,3.13s-7.22.45-8.15.42-.22-.23.29-.39-.57-2.1-.45-2.81,6.07-.89,7-.35Z"/><path class="cls-2" d="M464.16,146a8.11,8.11,0,0,1,1,2.11c.13.3-6.2.36-6.6.3s-.91-2.31-.91-2.31.77,1.13,1.09,1.49.19-1.37.48-.79.83.75,2.09.81a18.84,18.84,0,0,0,3-.05c.29-.06-.17-1.56-.17-1.56Z"/><path class="cls-9" d="M463.3,193.49a30.24,30.24,0,0,1-3.36,5.88c-2.17,2.94-6,7.41-7.95,8.56s-96.49,24-98.54,24.47a70.92,70.92,0,0,1-8.18,1.22c-.76,0,2.5-12.14,2.82-13.55s.32,5.56.7,7,1.34-4,1.59-2.29.71,2.1,3.84,1.59,31.5-6.77,41-9.2,53.67-13.16,55.21-13.55,1.66.39,2.42,1.67c.57.94,5.21-4.12,8.14-8.16a18.57,18.57,0,0,0,2.35-3.6Z"/><polygon class="cls-2" points="253.83 217 250.71 217 250.71 215.41 253.96 215.53 253.83 217"/><path class="cls-2" d="M266.53,126.07s24.54-22.37,39-33.23a29.94,29.94,0,0,1,7.34-2.1c5.27-1,51.91-6.52,95-1.95.35,0,.06.64-.07,1.12s-6.13,18-9,25.72-4.54,10.48-5.34,11.31-2,.9-3.6,1-27.71-2.18-44.26-2.69-56.54-.83-65.68-.32-13.41,1.18-13.41,1.18Z"/><path class="cls-11" d="M263.52,127.69s4.25-1.1,14.08-1.74,39.3-.38,57.39.38,50.67,2.81,55.59,3.26,6-2,8.17-6.84,11.57-32.52,11.57-32.52,1.53-4.06.59-4.18c-20.4-2.32-35.88-1.69-67.57-.56A171.11,171.11,0,0,0,317.69,88c-11.35,2.33-12.12,4.49-12.17,4.82l.07-.1c2.37-3.26,16.68-4.86,43.65-6.39s59,.83,59.52.89.77.51.48,1.28-3.14,9.62-5.18,15.63-6.58,18.85-8.24,21.53-2.3,2.81-5.88,2.81-37.45-2.68-47.54-2.81-39.75-1.41-58.28-.51c-13.72.66-18.33,1.39-19.8,1.73a5.38,5.38,0,0,0-.8.84Zm41-34.06a2.27,2.27,0,0,0,.95-.73l-.95.73Z"/><path class="cls-2" d="M473.19,109.57a1.43,1.43,0,0,0,1.79-.91,1.51,1.51,0,0,0,.14-.35,2.25,2.25,0,0,0-.79-2,18.26,18.26,0,0,0-2.09-1.83c-.72-.58-1.52-1.12-2.28-1.65-1.14-.78-2.28-1.54-3.43-2.3s-2.45-1.63-3.68-2.44h0A72.62,72.62,0,0,0,450.67,92c-1.71-.64-3.48-1.17-5.24-1.64-1.93-.52-3.88-1-5.83-1.37-3.65-.75-7.34-1.36-11-1.84-1.42-.18-2.85-.34-4.28-.47-.92-.08-1.87-.16-2.79-.16-1.78,0-4,0-5.5,1a6.14,6.14,0,0,0-1.17,1.11,10.14,10.14,0,0,0-1.16,2c-.48,1-.91,2.1-1.32,3.16-1.15,3-2.17,6.07-3.17,9.12q-1.8,5.54-3.64,11.05-1.48,4.48-3,9c-.37,1.09-.74,2.18-1.12,3.27-.21.59-.41,1.2-.65,1.77a18.76,18.76,0,0,0-.79,2.17,2.46,2.46,0,0,0,.14,2,1.78,1.78,0,0,0,1.1.73,5.91,5.91,0,0,0,1,.12c.53,0,1.07,0,1.6,0,1.72,0,3.45,0,5.18,0,5.85-.1,11.69-.24,17.54-.35,1,0,1.93,0,2.89-.06,6.4-.16,12.82-.44,19.2-.91,2.38-.18,4.77-.37,7.14-.65.85-.1,1.7-.21,2.55-.35a14.76,14.76,0,0,0,1.73-.36c2.42-.7,4.79-1.35,7.15-2.26s6.76-2.77,7.38-5.6a14.56,14.56,0,0,0,.26-2.88,32.7,32.7,0,0,0-.17-3.57c-.09-.86-.21-1.73-.38-2.58a26.79,26.79,0,0,0-1.11-3.94Z"/><path class="cls-11" d="M462.38,98.84c3.05,2,8,5.29,9.33,6.33,1.92,1.54,2.94,2.5,2.49,3.13a.61.61,0,0,1-.86.42c-.67-.29-.64-.48-1-.54a.72.72,0,0,0-.58.09,25,25,0,0,1,1.72,5.4,25.87,25.87,0,0,1,.29,8.69c-.83,3.77-10.6,6.26-13.93,7.22s-18.72,2-33.29,2.3-23.83.58-25.11.26-.7-1.73.13-3.77,6.13-18.09,8.44-25.12,4.28-12.52,5.49-14,2.43-1.85,6-1.85,19.68,2,28.88,5.43a72.93,72.93,0,0,1,12,6Z"/><path class="cls-2" d="M401,132c-.4-.29-.41-.83-.21-1.56a.55.55,0,0,0,.56.73,2.32,2.32,0,0,0,2-1.37c.26-.71,12.05-35.47,12.88-36.74s.83-1.67,3.9-1.67A101.41,101.41,0,0,1,450.21,97s3.2,11,4.73,18.15,2.37,13,2.37,13a242.18,242.18,0,0,1-27.61,1.67c-16.93.19-26,.38-26,.38a4.19,4.19,0,0,1-1.31,1.53A2.93,2.93,0,0,1,401,132Z"/><path class="cls-2" d="M453.34,98.05s1.6,5.94,3.46,13.68,2.74,14.88,2.74,14.88,7.67-1.85,10-4,2.62-1.79,2.49-5.3-.38-5.94-1.6-7.73-7.92-6.84-17.06-11.57Z"/><path class="cls-2" d="M473.88,108.73a.6.6,0,0,1-.54,0c-.67-.29-.64-.48-1-.54a.72.72,0,0,0-.58.09,25,25,0,0,1,1.72,5.4,25.87,25.87,0,0,1,.29,8.69c-.8,3.67-10.08,6.13-13.64,7.14h0c.51-.32.38-1.15.16-1.5s-3.07.11-3.07.11,2.36-.4,4.12-.78a32.74,32.74,0,0,0,8.56-3.42c2.37-1.57,2.78-1.89,2.65-4.76s-.28-7.6-1.21-9.14-5.08-5.88-15.24-11.31S432,91.15,425.87,90.51s-8.66-.61-9.49.8-4.86,12-7.73,20.83-5.82,18.18-6.33,18.71-1.44.06-1.44.06.55.34,1-.4,10.35-31.08,12.34-35.69,2.55-6.77,7.85-6.64a98,98,0,0,1,26,4.79A75.54,75.54,0,0,1,468.9,104c4,3.13,5.47,4.17,5,4.7Z"/><path class="cls-2" d="M451.48,96.54s1.89,6.56,3.49,13.27,3.5,18.12,3.5,18.12-1.77-18.89-7-31.39Z"/><path class="cls-11" d="M406.09,129s3.39-11.43,5.94-14.63,6.9-4.73,13.93-5.3,11.44.19,12.46,3.77S440.47,128,440.47,128a49.91,49.91,0,0,0,7.92-.45s2.49-5.05,2.75-7.8-3.65-16.35-3.65-16.35-7.22.38-9.71-.2-4.21-1.72-5.68-2.11-16.14-.64-18.62-.69c-3.39,9.57-8.78,25.42-9.92,28.76ZM396,120.36c1.77-4.28,5.87-15.52,7.07-18.84-4.35.16-19.49.72-22.25,1.07a24.24,24.24,0,0,0-6.49,2s14,9.34,21.67,15.75Zm-56-13.65c-1.09.07-.39-1.66-.39-1.66s-2.55.07-4.6.32-2.3-.06-2.75-1,.58-4.41.58-4.41-3.19-.58-9.14-1.35-9.52-1.27-14.95,1.35-28.25,24.86-28.25,24.86l54.13-1.29,5.37-16.87Zm17.7,2.75a11.44,11.44,0,0,0-7.22,2.69c-3.77,2.94-5.82,11.24-5.82,11.24l-5.49.32,8.24-19.61a58.5,58.5,0,0,1,10.29,5.36Z"/><path class="cls-2" d="M477.52,113.73a2.26,2.26,0,0,0-1.62,2.65,10.6,10.6,0,0,0,2,4.5,3.32,3.32,0,0,0,3.58,1.05Z"/><path class="cls-2" d="M477.86,113.69a1.28,1.28,0,0,0-.66.18c-1.32.82-.29,3.32.21,4.35.57,1.18,2.14,3.79,3.66,3.79a1.3,1.3,0,0,0,.66-.19c1.32-.82.29-3.32-.21-4.35s-2.13-3.78-3.66-3.78Z"/><path class="cls-11" d="M477.86,114.54c-.71,0-.57,1.48.32,3.31s2.18,3.3,2.89,3.3.57-1.48-.31-3.3-2.18-3.31-2.9-3.31Z"/><path class="cls-2" d="M478.59,115.94c-.4,0-.32.84.18,1.87s1.23,1.87,1.64,1.87.32-.83-.18-1.87-1.24-1.87-1.64-1.87Z"/><path class="cls-2" d="M154.47,189.81c-2.63-.73-11.26-1.61-14.5-2-13.34-1.76-26.83-3.66-40.09-6a122.35,122.35,0,0,1-26.77-8.65c-.19-.1-.85-.36-1,0,.53-.18.86.18,1.38.44a108.84,108.84,0,0,0,25,9c12.89,2.66,26.64,4.28,39.74,5.71,3.41.37,13.36,1.65,16.24,1.5Z"/><path class="cls-12" d="M73.11,173.12c3-1.66,5.88-3.5,9.07-5.17,29-15.08,61.38-20.93,93.17-26.82a827.2,827.2,0,0,1,83.8-11.37c2.28-.18,1.2-.08,3.46-.32-1.8,0-3.44.09-5.22.18-29.42,1.59-61.48,6.42-90.45,11.87-22.31,4.19-45.41,9-66.51,17.51-6.51,2.61-22.42,9.81-27.32,14.12Z"/><path class="cls-2" d="M73.14,173.36c3-1.66,5.88-3.5,9.07-5.17,29-15.08,61.38-20.93,93.18-26.82A826.43,826.43,0,0,1,259.19,130c2.27-.18,1.19-.08,3.45-.32-1.79,0-3.43.09-5.22.18-29.42,1.59-61.48,6.42-90.45,11.87-22.31,4.19-45.4,9.05-66.51,17.51C94,161.85,78,169.05,73.14,173.36Z"/><path class="cls-12" d="M109.46,149.11c.6,0,1.41,0,2.7.06a16.08,16.08,0,0,1,5.81,1.89,6,6,0,0,0,3.23.85.41.41,0,0,1,.1.21l-2.27.67c-.48,0-.85,0-.85,0s.78-.39.11-.8a26.12,26.12,0,0,0-4.28-2,12.65,12.65,0,0,0-4.06-.57c-.81,0-1.52,0-2,.09.49-.16,1-.31,1.56-.47Z"/><path class="cls-2" d="M106.4,150.07l1.61-.53a25.88,25.88,0,0,1,3.64,0,16.27,16.27,0,0,1,5.81,1.89,6,6,0,0,0,3.23.85c.73.91-3,.91-3,.91s.78-.39.11-.8a25.73,25.73,0,0,0-4.28-2,12.36,12.36,0,0,0-4.06-.58,23.11,23.11,0,0,0-3,.2Z"/><path class="cls-2" d="M249.56,215.41a15,15,0,0,1,0,4.06c-.35,1.18-.67,1.47-5.72,2.3s-16.23,2.23-32.2,3.45-29.78,1.79-38.15,1.21-28.31-3.77-39.17-5.62-38.59-7.22-41.6-7.92S71,201,70.1,199.91s-.73-5.14-.73-5.14a8.92,8.92,0,0,0,1,3.2c.7.83.38-.16,1.47.7s-.06.22,2.59,1.44,10.93,5.43,12.91,7,1,1.35,3.9,2.18,6.83,1.92,18.78,3.77,27.48,4,32.33,4.66-18.53-1.79-19.74-1.53,16.17,2.55,22.94,3.32,7.22-1.47,10.48.26,3.07,1.28,8.43,2a106.28,106.28,0,0,0,20.07,1.41c11-.13,16-.45,7-1s-17.95-1.34-17.95-1.34,23.7.64,39.55-.9,19.23-1.91,22.56-2.17,2.17.07,4.47,1.34,1.47-.76,5.17-.19,4.22-3.48,4.22-3.48Z"/><path class="cls-2" d="M508.56,135.86c-.89-1.78-5.09-9.74-9.06-10.23-2.69-.33-5.21-.48-6.81-.55,3.2,2.92,5.67,5.16,6.11,5.59,1.13,1.07,6.35,3,9.76,5.19Z"/><path class="cls-4" d="M507,134.1s-2.56-4.92-4.83-6.55a9.71,9.71,0,0,0-5.75-1.82l-2.62-.22a26.27,26.27,0,0,1,5.59,1.31c2.17.89,4.57,2.29,7.61,7.28Z"/><path class="cls-8" d="M513.79,149.32c-.11,1.67-.36,3.83-.64,6a7.26,7.26,0,0,0-3.84-.76c-3.58.16-3.68,0-4.06,2.94s-2.52-2.91-2.07,0a31.25,31.25,0,0,1,.25,5.85,50.74,50.74,0,0,0-1.37-7.7c-.93-3.1-1.22-4.32,3.32-4.29a14.61,14.61,0,0,0,8.41-2.06Z"/><path class="cls-9" d="M237.17,183s.25,11.56-.13,17.89-.32,8.5-1.86,9-20.64,1.41-29.77,1.92a168.53,168.53,0,0,1-27.16-.38c-9-1-13.8-1.54-15.14-2.37s-4.67-13.1-4.67-13.1,3.32,10.48,5.12,11.38.7-1.6,2.42.06,3.71,1.85,5.69,2.49,20.51,1.79,33.8,1,12-4.15,14-2.68,2,1.6,6.83,1.21-3.13-6.71-3.58-6.77-3.89,2.87-7.79,4.09a54.69,54.69,0,0,1-9,1.72,54.4,54.4,0,0,0,9.45-2.81c4.42-1.85,7.55-4.6,10.68-7.86s4.73-9.07,4.73-9.07-2.18,7.67-3.58,10-2,2.49.06,4.53,2.11-.38,3.64,1.54,1.34,2.1,3.33,2.3,2.94-24,2.94-24Z"/><path class="cls-9" d="M266.62,186.91s-9.9,20.26-11.82,24-3.07,3.51-3.07.51-2.87-2.62-7-2.37-5.3,1.15-5.3-.77.38-14.56.38-14.56,0,7,.64,7.85,1.92,1.41,6.33,1.09,3.64-2.43,5.37,1.34,5.17-.76,14.5-17.06Z"/><path class="cls-10" d="M142.26,154.5s-15.44,7.36-26.79,13.49a141.27,141.27,0,0,0-18.92,12.17s11.15-8.28,15.64-11.76-12.77,3.68-9,1.13-.72-2.76-5.52-3.28-14.83,2.25-23.21,7.16c0,0,19.22-12.06,41-18s38.23-9.51,38.23-9.51-34.24,8.59-38.13,10.63,6.24,2.15,9.51,2.15,10.63-4.29,17.18-4.19Z"/><path class="cls-2" d="M404.39,126.7l2.46-.08c.07-.22.14-.45.22-.69l-2.45.08-.23.69Zm.88-2.59,2.44-.08q.12-.33.24-.69l-2.44.08-.24.69Zm.89-2.6,2.49-.07c.08-.23.17-.46.26-.69l-2.52.08-.23.68Zm.88-2.58,2.64-.08c.1-.24.2-.46.29-.69l-2.69.08-.24.69Zm.89-2.6,2.95-.08.38-.69-3.09.09-.24.68Zm.89-2.58,3.89-.11c.24-.24.5-.48.76-.7l-4.41.12-.24.69Zm.89-2.59,7.09-.18a21.2,21.2,0,0,1,2.13-.73l-9,.22-.24.69Zm.9-2.59c11.09-.3,24.06-.52,38.17-.54-.06-.23-.12-.45-.19-.67-13.93,0-26.76.23-37.74.53l-.24.68Zm.89-2.58c10.72-.28,23.13-.49,36.59-.51-.07-.24-.13-.47-.19-.68-13.28,0-25.55.22-36.16.5l-.24.69Zm.91-2.59c7.49-.19,15.78-.34,24.65-.42a18.21,18.21,0,0,1-1.86-.67c-8.08.09-15.65.23-22.55.41l-.24.68Zm36.85,6.51q-6.86,0-13.33.07a6.08,6.08,0,0,1,1.05.67q6-.06,12.46-.06l-.18-.68Zm.64,2.56q-5.94,0-11.6,0a2.17,2.17,0,0,1,.12.36l.09.31q5.63,0,11.55,0c-.06-.23-.11-.45-.16-.68Zm.57,2.55q-5.93,0-11.57,0l.12.68q5.66,0,11.6,0l-.15-.68Zm.49,2.56q-6,0-11.66,0c0,.23.07.46.1.69q5.69,0,11.66,0c0-.21-.06-.44-.1-.68Zm.12,2.56c-3.9,0-7.72,0-11.44,0,0,.23.06.45.08.68q5.49,0,11.23,0a6.06,6.06,0,0,0,.13-.67Zm-.67,2.55q-5.36,0-10.47,0c0,.23.05.45.07.68,3.31,0,6.7,0,10.15,0,.09-.22.17-.45.25-.68Zm-1,2.56c-3.13,0-6.2,0-9.21,0,0,.24.05.47.07.68,2.89,0,5.84,0,8.84,0l.3-.68Zm-71.19-18-.92-.64c4.87-.26,13.29-.66,24.25-1l-.26.69c-10.17.34-18.14.72-23.07,1Zm3.46,2.39-.91-.64c4.78-.24,11.54-.54,19.82-.82l-.25.69c-7.66.26-14,.54-18.66.77Zm3.39,2.4c-.3-.21-.59-.43-.89-.63,4.16-.2,9.38-.42,15.46-.63l-.26.69c-5.54.19-10.36.39-14.31.57Zm3.33,2.42c-.28-.22-.58-.43-.87-.64,3.24-.15,7-.3,11.13-.45l-.25.7c-3.69.12-7,.26-10,.39Zm3.24,2.43c-.27-.22-.56-.43-.84-.65l6.88-.27-.26.69-5.78.23Zm3.11,2.44-.81-.65,2.74-.1c-.1.23-.19.47-.28.69l-1.65.06Zm-20-14.46-.42-.28s.37-.18,1-.44c4.56-.25,14.17-.74,27.22-1.16l-.25.69c-13.5.44-23.28,1-27.53,1.19Z"/><path class="cls-2" d="M140.12,131.89c-1,1.36-2.07,10.35-2.07,10.35l10-1.78s-2.07-1.86-2.45-3.07a5.57,5.57,0,0,1-.29-2.72,1,1,0,0,1,.52-.53h0a11,11,0,0,0,1.63.29,4.77,4.77,0,0,0,2.53,1.74c1.25,0,2.15-3.44,2-7.68s-1.25-7.68-2.5-7.68c-.7,0-2.18,1.07-3.3,2.78-2.28.85-7.57,3.6-7.49,6.16a3,3,0,0,0,1.45,2.14Z"/><path class="cls-2" d="M291.32,121.06c-4.12,0-7.41,4.65-7.37,10.38s3.41,10.39,7.52,10.39,7.41-4.65,7.37-10.39-3.41-10.38-7.52-10.38Z"/><path class="cls-2" d="M289.08,124.19c-2.4,0-10.1,4.44-10.1,8.72s7.7,6.81,10.1,6.81,4.34-3.48,4.34-7.77-1.94-7.76-4.34-7.76Z"/><path class="cls-2" d="M284.54,125c-2.72,1.58-6.41,4.59-6.41,7.91a4.44,4.44,0,0,0,.38,1.8h0c.08.22-.24.56-.36.68a9.11,9.11,0,0,0-.73.79l-1.31,1.53q-1.83,2.16-3.64,4.33c-1.82,2.19-3.64,4.37-5.45,6.57a2.87,2.87,0,0,0-.57.46,1.77,1.77,0,0,0-.06,2.39,2.6,2.6,0,0,0,1.89.77A14.3,14.3,0,0,0,271,152a25.11,25.11,0,0,0,3.19-.77c.88-.27,1.77-.57,2.62-.92a9.55,9.55,0,0,0,1.89-.95,1.64,1.64,0,0,0,.79-1.45,2.25,2.25,0,0,0-.33-.94,1.45,1.45,0,0,1-.12-.22c.19-.37.41-.75.62-1.12.41-.7.83-1.4,1.25-2.1s.71-1.17,1.08-1.75c.26-.39.53-.82.82-1.18a3.08,3.08,0,0,1,1.21-1.06,1.51,1.51,0,0,1,.79.05c.43.16.87.31,1.31.44a7.2,7.2,0,0,0,5.38,2.65,6.45,6.45,0,0,0,1.58-.2,8.25,8.25,0,0,0,4.83-3.92,13.88,13.88,0,0,0,1.81-7.12,14,14,0,0,0-1.95-7.18,8.31,8.31,0,0,0-5-3.88,6.52,6.52,0,0,0-1.45-.17c-3.08,0-5.45,2.18-6.78,4.79Z"/><path class="cls-2" d="M285.19,125.61c1.32-2.74,3.57-4.55,6.13-4.55,4.11,0,7.47,4.65,7.52,10.38s-3.26,10.39-7.37,10.39a6.42,6.42,0,0,1-4.9-2.55,16.08,16.08,0,0,1-1.88-.64l.36.14h0c-1.25-.37-2,.08-2.94,1.29a74,74,0,0,0-3.93,6.42c-.35.7,1.12,1.37,0,2.17a25,25,0,0,1-7.35,2.5c-2.39.38-3.58.32-4-.51s.7-1.38.7-1.38S278,136.71,278.72,136a1.44,1.44,0,0,0,.58-1.61h0a3.63,3.63,0,0,1-.32-1.49c0-2.79,3.27-5.65,6.21-7.3ZM283.27,138l.1.05-.1-.05Zm.32.15.12.06-.12-.06Zm.13.07.14.07-.14-.07Zm.18.08.12.06-.12-.06Zm.15.07.15.06-.15-.06Zm.16.07.31.13-.31-.13Zm.32.14.15.06-.15-.06Z"/><path class="cls-2" d="M285.05,138.78c-1.25-.37-2,.08-2.94,1.29a74,74,0,0,0-3.93,6.42c-.35.7,1.12,1.37,0,2.17a25,25,0,0,1-7.35,2.5c-2.39.38-3.58.32-4-.51s.7-1.38.7-1.38S278,136.71,278.72,136a1.44,1.44,0,0,0,.58-1.61h0c.87,2,3.4,3.5,5.75,4.39Z"/><path class="cls-11" d="M292.11,121.6a6.09,6.09,0,0,1,3.32,2.14,11.59,11.59,0,0,1,2.62,6.78,11,11,0,0,1-.48,4.31,10.2,10.2,0,0,0-.19-3.8c-.51-1.15-2,.51-2.49-.42s-1.08,1.63-1.08,1.63a11.4,11.4,0,0,0-.93-5.59c-1.28-2.72-3-3.2-4.16-3a3.28,3.28,0,0,0-1.62.67l-1,.25s2.69-3.73,6-3Z"/><path class="cls-11" d="M289.39,124.73a4.26,4.26,0,0,1,2.78,3.14,13,13,0,0,1,.64,4.4c0,1.51-.25,1.35-.67.16s-.76-.22-2.2-.06-6.9.8-7.83.77-.89-.23-1.44-.8-1.37.35-1.37.35,3.48-7.35,10.09-8Z"/><path class="cls-11" d="M279.71,136.39s-9.36,11.51-10.06,12.69.07.86.86.64,5.21-1.33,6.58-1.76,1,0,0,.58a27.86,27.86,0,0,1-7.47,2.14c-2.08.09-2.24-.48-1.41-1.54s10.35-12.33,10.83-12.81,1-.51.7.06Z"/><path class="cls-2" d="M149.46,120.81c-1.24,0-4.85,3.31-4.72,7.55s4,7.81,5.21,7.81,2.15-3.44,2-7.68-1.25-7.68-2.5-7.68Z"/><path class="cls-2" d="M147.1,123.33c-.89,0-8.52,3.35-8.43,6.42s7.89,4.68,8.78,4.68,1.55-2.49,1.45-5.55-.9-5.55-1.8-5.55Z"/><path class="cls-2" d="M140.29,131.73c-1,.48-2.24,10.51-2.24,10.51l10-1.78s-2.07-1.86-2.45-3.07a5.57,5.57,0,0,1-.29-2.72,1,1,0,0,1,.52-.53c-.32-.59-3.77-3.22-5.5-2.41Z"/><path class="cls-11" d="M149.62,121.35c.89.25,1.43,2.39,1.69,4.69a10.56,10.56,0,0,1,.09,3.29c-.09,1.06-.25-.31-.48-1s-.57.86-.89.1-.83.29-.83.29a17.8,17.8,0,0,0-.7-4.54c-.61-1.53-1.34-1.34-1.34-1.34s1.4-1.6,2.46-1.47Z"/><path class="cls-11" d="M147.22,123.84c1,.25,1.25,3.52,1.25,5.43s-.32.06-.48-.45-.51.64-.9.26-1.05-.22-3.86,0-3.26,1.18-3.45.48a.53.53,0,0,0-.77-.42s.57-1.37,3.29-3.09,4.06-2.27,4.92-2.24Z"/><path class="cls-11" d="M140.29,133c-.58,1-1.35,6.36-1.47,7.86s1.47-3.61,1.88-5.18,2.14-3.23,2.08-1.82.06,1,1.05.64.77-.8-1-1.66-2.43-.61-2.55.16Z"/><path class="cls-2" d="M143.89,154.5s-22.9,10.63-33.33,16.77-14.62,10.12-14.62,10.12a438.38,438.38,0,0,1,47.95-26.89Z"/></svg>