<svg xmlns="http://www.w3.org/2000/svg" xmlns:xlink="http://www.w3.org/1999/xlink" width="800px" height="800px" viewBox="0 0 800 800" enable-background="new 0 0 800 800" x="0px" y="0px"><rect x="0" y="0" width="800" height="800" fill="#ffffff"/><g transform="translate(29, 29)"><g transform="translate(237.04 0) scale(0.0585573 0.0585573)"><g style="fill: rgb(0, 0, 0);"><path d="M250,0c138.077,0,250,111.93,250,250c0,138.077-111.923,250-250,250C111.93,500,0,388.077,0,250C0,111.93,111.93,0,250,0z"/></g></g><g transform="translate(266.67 0) scale(0.0585573 0.0585573)"><g style="fill: rgb(0, 0, 0);"><path d="M250,0c138.077,0,250,111.93,250,250c0,138.077-111.923,250-250,250C111.93,500,0,388.077,0,250C0,111.93,111.93,0,250,0z"/></g></g><g transform="translate(325.93 0) scale(0.0585573 0.0585573)"><g style="fill: rgb(0, 0, 0);"><path d="M250,0c138.077,0,250,111.93,250,250c0,138.077-111.923,250-250,250C111.93,500,0,388.077,0,250C0,111.93,111.93,0,250,0z"/></g></g><g transform="translate(385.19 0) scale(0.0585573 0.0585573)"><g style="fill: rgb(0, 0, 0);"><path d="M250,0c138.077,0,250,111.93,250,250c0,138.077-111.923,250-250,250C111.93,500,0,388.077,0,250C0,111.93,111.93,0,250,0z"/></g></g><g transform="translate(414.82 0) scale(0.0585573 0.0585573)"><g style="fill: rgb(0, 0, 0);"><path d="M250,0c138.077,0,250,111.93,250,250c0,138.077-111.923,250-250,250C111.93,500,0,388.077,0,250C0,111.93,111.93,0,250,0z"/></g></g><g transform="translate(474.08 0) scale(0.0585573 0.0585573)"><g style="fill: rgb(0, 0, 0);"><path d="M250,0c138.077,0,250,111.93,250,250c0,138.077-111.923,250-250,250C111.93,500,0,388.077,0,250C0,111.93,111.93,0,250,0z"/></g></g><g transform="translate(237.04 29.63) scale(0.0585573 0.0585573)"><g style="fill: rgb(0, 0, 0);"><path d="M250,0c138.077,0,250,111.93,250,250c0,138.077-111.923,250-250,250C111.93,500,0,388.077,0,250C0,111.93,111.93,0,250,0z"/></g></g><g transform="translate(296.3 29.63) scale(0.0585573 0.0585573)"><g style="fill: rgb(0, 0, 0);"><path d="M250,0c138.077,0,250,111.93,250,250c0,138.077-111.923,250-250,250C111.93,500,0,388.077,0,250C0,111.93,111.93,0,250,0z"/></g></g><g transform="translate(355.56 29.63) scale(0.0585573 0.0585573)"><g style="fill: rgb(0, 0, 0);"><path d="M250,0c138.077,0,250,111.93,250,250c0,138.077-111.923,250-250,250C111.93,500,0,388.077,0,250C0,111.93,111.93,0,250,0z"/></g></g><g transform="translate(385.19 29.63) scale(0.0585573 0.0585573)"><g style="fill: rgb(0, 0, 0);"><path d="M250,0c138.077,0,250,111.93,250,250c0,138.077-111.923,250-250,250C111.93,500,0,388.077,0,250C0,111.93,111.93,0,250,0z"/></g></g><g transform="translate(414.82 29.63) scale(0.0585573 0.0585573)"><g style="fill: rgb(0, 0, 0);"><path d="M250,0c138.077,0,250,111.93,250,250c0,138.077-111.923,250-250,250C111.93,500,0,388.077,0,250C0,111.93,111.93,0,250,0z"/></g></g><g transform="translate(474.08 29.63) scale(0.0585573 0.0585573)"><g style="fill: rgb(0, 0, 0);"><path d="M250,0c138.077,0,250,111.93,250,250c0,138.077-111.923,250-250,250C111.93,500,0,388.077,0,250C0,111.93,111.93,0,250,0z"/></g></g><g transform="translate(237.04 59.26) scale(0.0585573 0.0585573)"><g style="fill: rgb(0, 0, 0);"><path d="M250,0c138.077,0,250,111.93,250,250c0,138.077-111.923,250-250,250C111.93,500,0,388.077,0,250C0,111.93,111.93,0,250,0z"/></g></g><g transform="translate(266.67 59.26) scale(0.0585573 0.0585573)"><g style="fill: rgb(0, 0, 0);"><path d="M250,0c138.077,0,250,111.93,250,250c0,138.077-111.923,250-250,250C111.93,500,0,388.077,0,250C0,111.93,111.93,0,250,0z"/></g></g><g transform="translate(296.3 59.26) scale(0.0585573 0.0585573)"><g style="fill: rgb(0, 0, 0);"><path d="M250,0c138.077,0,250,111.93,250,250c0,138.077-111.923,250-250,250C111.93,500,0,388.077,0,250C0,111.93,111.93,0,250,0z"/></g></g><g transform="translate(355.56 59.26) scale(0.0585573 0.0585573)"><g style="fill: rgb(0, 0, 0);"><path d="M250,0c138.077,0,250,111.93,250,250c0,138.077-111.923,250-250,250C111.93,500,0,388.077,0,250C0,111.93,111.93,0,250,0z"/></g></g><g transform="translate(414.82 59.26) scale(0.0585573 0.0585573)"><g style="fill: rgb(0, 0, 0);"><path d="M250,0c138.077,0,250,111.93,250,250c0,138.077-111.923,250-250,250C111.93,500,0,388.077,0,250C0,111.93,111.93,0,250,0z"/></g></g><g transform="translate(237.04 88.89) scale(0.0585573 0.0585573)"><g style="fill: rgb(0, 0, 0);"><path d="M250,0c138.077,0,250,111.93,250,250c0,138.077-111.923,250-250,250C111.93,500,0,388.077,0,250C0,111.93,111.93,0,250,0z"/></g></g><g transform="translate(266.67 88.89) scale(0.0585573 0.0585573)"><g style="fill: rgb(0, 0, 0);"><path d="M250,0c138.077,0,250,111.93,250,250c0,138.077-111.923,250-250,250C111.93,500,0,388.077,0,250C0,111.93,111.93,0,250,0z"/></g></g><g transform="translate(296.3 88.89) scale(0.0585573 0.0585573)"><g style="fill: rgb(0, 0, 0);"><path d="M250,0c138.077,0,250,111.93,250,250c0,138.077-111.923,250-250,250C111.93,500,0,388.077,0,250C0,111.93,111.93,0,250,0z"/></g></g><g transform="translate(325.93 88.89) scale(0.0585573 0.0585573)"><g style="fill: rgb(0, 0, 0);"><path d="M250,0c138.077,0,250,111.93,250,250c0,138.077-111.923,250-250,250C111.93,500,0,388.077,0,250C0,111.93,111.93,0,250,0z"/></g></g><g transform="translate(355.56 88.89) scale(0.0585573 0.0585573)"><g style="fill: rgb(0, 0, 0);"><path d="M250,0c138.077,0,250,111.93,250,250c0,138.077-111.923,250-250,250C111.93,500,0,388.077,0,250C0,111.93,111.93,0,250,0z"/></g></g><g transform="translate(385.19 88.89) scale(0.0585573 0.0585573)"><g style="fill: rgb(0, 0, 0);"><path d="M250,0c138.077,0,250,111.93,250,250c0,138.077-111.923,250-250,250C111.93,500,0,388.077,0,250C0,111.93,111.93,0,250,0z"/></g></g><g transform="translate(414.82 88.89) scale(0.0585573 0.0585573)"><g style="fill: rgb(0, 0, 0);"><path d="M250,0c138.077,0,250,111.93,250,250c0,138.077-111.923,250-250,250C111.93,500,0,388.077,0,250C0,111.93,111.93,0,250,0z"/></g></g><g transform="translate(444.45 88.89) scale(0.0585573 0.0585573)"><g style="fill: rgb(0, 0, 0);"><path d="M250,0c138.077,0,250,111.93,250,250c0,138.077-111.923,250-250,250C111.93,500,0,388.077,0,250C0,111.93,111.93,0,250,0z"/></g></g><g transform="translate(266.67 118.52) scale(0.0585573 0.0585573)"><g style="fill: rgb(0, 0, 0);"><path d="M250,0c138.077,0,250,111.93,250,250c0,138.077-111.923,250-250,250C111.93,500,0,388.077,0,250C0,111.93,111.93,0,250,0z"/></g></g><g transform="translate(385.19 118.52) scale(0.0585573 0.0585573)"><g style="fill: rgb(0, 0, 0);"><path d="M250,0c138.077,0,250,111.93,250,250c0,138.077-111.923,250-250,250C111.93,500,0,388.077,0,250C0,111.93,111.93,0,250,0z"/></g></g><g transform="translate(474.08 118.52) scale(0.0585573 0.0585573)"><g style="fill: rgb(0, 0, 0);"><path d="M250,0c138.077,0,250,111.93,250,250c0,138.077-111.923,250-250,250C111.93,500,0,388.077,0,250C0,111.93,111.93,0,250,0z"/></g></g><g transform="translate(237.04 148.15) scale(0.0585573 0.0585573)"><g style="fill: rgb(0, 0, 0);"><path d="M250,0c138.077,0,250,111.93,250,250c0,138.077-111.923,250-250,250C111.93,500,0,388.077,0,250C0,111.93,111.93,0,250,0z"/></g></g><g transform="translate(266.67 148.15) scale(0.0585573 0.0585573)"><g style="fill: rgb(0, 0, 0);"><path d="M250,0c138.077,0,250,111.93,250,250c0,138.077-111.923,250-250,250C111.93,500,0,388.077,0,250C0,111.93,111.93,0,250,0z"/></g></g><g transform="translate(296.3 148.15) scale(0.0585573 0.0585573)"><g style="fill: rgb(0, 0, 0);"><path d="M250,0c138.077,0,250,111.93,250,250c0,138.077-111.923,250-250,250C111.93,500,0,388.077,0,250C0,111.93,111.93,0,250,0z"/></g></g><g transform="translate(355.56 148.15) scale(0.0585573 0.0585573)"><g style="fill: rgb(0, 0, 0);"><path d="M250,0c138.077,0,250,111.93,250,250c0,138.077-111.923,250-250,250C111.93,500,0,388.077,0,250C0,111.93,111.93,0,250,0z"/></g></g><g transform="translate(237.04 177.78) scale(0.0585573 0.0585573)"><g style="fill: rgb(0, 0, 0);"><path d="M250,0c138.077,0,250,111.93,250,250c0,138.077-111.923,250-250,250C111.93,500,0,388.077,0,250C0,111.93,111.93,0,250,0z"/></g></g><g transform="translate(296.3 177.78) scale(0.0585573 0.0585573)"><g style="fill: rgb(0, 0, 0);"><path d="M250,0c138.077,0,250,111.93,250,250c0,138.077-111.923,250-250,250C111.93,500,0,388.077,0,250C0,111.93,111.93,0,250,0z"/></g></g><g transform="translate(355.56 177.78) scale(0.0585573 0.0585573)"><g style="fill: rgb(0, 0, 0);"><path d="M250,0c138.077,0,250,111.93,250,250c0,138.077-111.923,250-250,250C111.93,500,0,388.077,0,250C0,111.93,111.93,0,250,0z"/></g></g><g transform="translate(414.82 177.78) scale(0.0585573 0.0585573)"><g style="fill: rgb(0, 0, 0);"><path d="M250,0c138.077,0,250,111.93,250,250c0,138.077-111.923,250-250,250C111.93,500,0,388.077,0,250C0,111.93,111.93,0,250,0z"/></g></g><g transform="translate(474.08 177.78) scale(0.0585573 0.0585573)"><g style="fill: rgb(0, 0, 0);"><path d="M250,0c138.077,0,250,111.93,250,250c0,138.077-111.923,250-250,250C111.93,500,0,388.077,0,250C0,111.93,111.93,0,250,0z"/></g></g><g transform="translate(296.3 207.41) scale(0.0585573 0.0585573)"><g style="fill: rgb(0, 0, 0);"><path d="M250,0c138.077,0,250,111.93,250,250c0,138.077-111.923,250-250,250C111.93,500,0,388.077,0,250C0,111.93,111.93,0,250,0z"/></g></g><g transform="translate(414.82 207.41) scale(0.0585573 0.0585573)"><g style="fill: rgb(0, 0, 0);"><path d="M250,0c138.077,0,250,111.93,250,250c0,138.077-111.923,250-250,250C111.93,500,0,388.077,0,250C0,111.93,111.93,0,250,0z"/></g></g><g transform="translate(444.45 207.41) scale(0.0585573 0.0585573)"><g style="fill: rgb(0, 0, 0);"><path d="M250,0c138.077,0,250,111.93,250,250c0,138.077-111.923,250-250,250C111.93,500,0,388.077,0,250C0,111.93,111.93,0,250,0z"/></g></g><g transform="translate(474.08 207.41) scale(0.0585573 0.0585573)"><g style="fill: rgb(0, 0, 0);"><path d="M250,0c138.077,0,250,111.93,250,250c0,138.077-111.923,250-250,250C111.93,500,0,388.077,0,250C0,111.93,111.93,0,250,0z"/></g></g><g transform="translate(0 237.04) scale(0.0585573 0.0585573)"><g style="fill: rgb(0, 0, 0);"><path d="M250,0c138.077,0,250,111.93,250,250c0,138.077-111.923,250-250,250C111.93,500,0,388.077,0,250C0,111.93,111.93,0,250,0z"/></g></g><g transform="translate(29.63 237.04) scale(0.0585573 0.0585573)"><g style="fill: rgb(0, 0, 0);"><path d="M250,0c138.077,0,250,111.93,250,250c0,138.077-111.923,250-250,250C111.93,500,0,388.077,0,250C0,111.93,111.93,0,250,0z"/></g></g><g transform="translate(118.52 237.04) scale(0.0585573 0.0585573)"><g style="fill: rgb(0, 0, 0);"><path d="M250,0c138.077,0,250,111.93,250,250c0,138.077-111.923,250-250,250C111.93,500,0,388.077,0,250C0,111.93,111.93,0,250,0z"/></g></g><g transform="translate(148.15 237.04) scale(0.0585573 0.0585573)"><g style="fill: rgb(0, 0, 0);"><path d="M250,0c138.077,0,250,111.93,250,250c0,138.077-111.923,250-250,250C111.93,500,0,388.077,0,250C0,111.93,111.93,0,250,0z"/></g></g><g transform="translate(177.78 237.04) scale(0.0585573 0.0585573)"><g style="fill: rgb(0, 0, 0);"><path d="M250,0c138.077,0,250,111.93,250,250c0,138.077-111.923,250-250,250C111.93,500,0,388.077,0,250C0,111.93,111.93,0,250,0z"/></g></g><g transform="translate(296.3 237.04) scale(0.0585573 0.0585573)"><g style="fill: rgb(0, 0, 0);"><path d="M250,0c138.077,0,250,111.93,250,250c0,138.077-111.923,250-250,250C111.93,500,0,388.077,0,250C0,111.93,111.93,0,250,0z"/></g></g><g transform="translate(325.93 237.04) scale(0.0585573 0.0585573)"><g style="fill: rgb(0, 0, 0);"><path d="M250,0c138.077,0,250,111.93,250,250c0,138.077-111.923,250-250,250C111.93,500,0,388.077,0,250C0,111.93,111.93,0,250,0z"/></g></g><g transform="translate(355.56 237.04) scale(0.0585573 0.0585573)"><g style="fill: rgb(0, 0, 0);"><path d="M250,0c138.077,0,250,111.93,250,250c0,138.077-111.923,250-250,250C111.93,500,0,388.077,0,250C0,111.93,111.93,0,250,0z"/></g></g><g transform="translate(385.19 237.04) scale(0.0585573 0.0585573)"><g style="fill: rgb(0, 0, 0);"><path d="M250,0c138.077,0,250,111.93,250,250c0,138.077-111.923,250-250,250C111.93,500,0,388.077,0,250C0,111.93,111.93,0,250,0z"/></g></g><g transform="translate(444.45 237.04) scale(0.0585573 0.0585573)"><g style="fill: rgb(0, 0, 0);"><path d="M250,0c138.077,0,250,111.93,250,250c0,138.077-111.923,250-250,250C111.93,500,0,388.077,0,250C0,111.93,111.93,0,250,0z"/></g></g><g transform="translate(562.97 237.04) scale(0.0585573 0.0585573)"><g style="fill: rgb(0, 0, 0);"><path d="M250,0c138.077,0,250,111.93,250,250c0,138.077-111.923,250-250,250C111.93,500,0,388.077,0,250C0,111.93,111.93,0,250,0z"/></g></g><g transform="translate(622.23 237.04) scale(0.0585573 0.0585573)"><g style="fill: rgb(0, 0, 0);"><path d="M250,0c138.077,0,250,111.93,250,250c0,138.077-111.923,250-250,250C111.93,500,0,388.077,0,250C0,111.93,111.93,0,250,0z"/></g></g><g transform="translate(651.86 237.04) scale(0.0585573 0.0585573)"><g style="fill: rgb(0, 0, 0);"><path d="M250,0c138.077,0,250,111.93,250,250c0,138.077-111.923,250-250,250C111.93,500,0,388.077,0,250C0,111.93,111.93,0,250,0z"/></g></g><g transform="translate(681.49 237.04) scale(0.0585573 0.0585573)"><g style="fill: rgb(0, 0, 0);"><path d="M250,0c138.077,0,250,111.93,250,250c0,138.077-111.923,250-250,250C111.93,500,0,388.077,0,250C0,111.93,111.93,0,250,0z"/></g></g><g transform="translate(711.12 237.04) scale(0.0585573 0.0585573)"><g style="fill: rgb(0, 0, 0);"><path d="M250,0c138.077,0,250,111.93,250,250c0,138.077-111.923,250-250,250C111.93,500,0,388.077,0,250C0,111.93,111.93,0,250,0z"/></g></g><g transform="translate(59.26 266.67) scale(0.0585573 0.0585573)"><g style="fill: rgb(0, 0, 0);"><path d="M250,0c138.077,0,250,111.93,250,250c0,138.077-111.923,250-250,250C111.93,500,0,388.077,0,250C0,111.93,111.93,0,250,0z"/></g></g><g transform="translate(88.89 266.67) scale(0.0585573 0.0585573)"><g style="fill: rgb(0, 0, 0);"><path d="M250,0c138.077,0,250,111.93,250,250c0,138.077-111.923,250-250,250C111.93,500,0,388.077,0,250C0,111.93,111.93,0,250,0z"/></g></g><g transform="translate(148.15 266.67) scale(0.0585573 0.0585573)"><g style="fill: rgb(0, 0, 0);"><path d="M250,0c138.077,0,250,111.93,250,250c0,138.077-111.923,250-250,250C111.93,500,0,388.077,0,250C0,111.93,111.93,0,250,0z"/></g></g><g transform="translate(237.04 266.67) scale(0.0585573 0.0585573)"><g style="fill: rgb(0, 0, 0);"><path d="M250,0c138.077,0,250,111.93,250,250c0,138.077-111.923,250-250,250C111.93,500,0,388.077,0,250C0,111.93,111.93,0,250,0z"/></g></g><g transform="translate(325.93 266.67) scale(0.0585573 0.0585573)"><g style="fill: rgb(0, 0, 0);"><path d="M250,0c138.077,0,250,111.93,250,250c0,138.077-111.923,250-250,250C111.93,500,0,388.077,0,250C0,111.93,111.93,0,250,0z"/></g></g><g transform="translate(385.19 266.67) scale(0.0585573 0.0585573)"><g style="fill: rgb(0, 0, 0);"><path d="M250,0c138.077,0,250,111.93,250,250c0,138.077-111.923,250-250,250C111.93,500,0,388.077,0,250C0,111.93,111.93,0,250,0z"/></g></g><g transform="translate(444.45 266.67) scale(0.0585573 0.0585573)"><g style="fill: rgb(0, 0, 0);"><path d="M250,0c138.077,0,250,111.93,250,250c0,138.077-111.923,250-250,250C111.93,500,0,388.077,0,250C0,111.93,111.93,0,250,0z"/></g></g><g transform="translate(474.08 266.67) scale(0.0585573 0.0585573)"><g style="fill: rgb(0, 0, 0);"><path d="M250,0c138.077,0,250,111.93,250,250c0,138.077-111.923,250-250,250C111.93,500,0,388.077,0,250C0,111.93,111.93,0,250,0z"/></g></g><g transform="translate(562.97 266.67) scale(0.0585573 0.0585573)"><g style="fill: rgb(0, 0, 0);"><path d="M250,0c138.077,0,250,111.93,250,250c0,138.077-111.923,250-250,250C111.93,500,0,388.077,0,250C0,111.93,111.93,0,250,0z"/></g></g><g transform="translate(592.6 266.67) scale(0.0585573 0.0585573)"><g style="fill: rgb(0, 0, 0);"><path d="M250,0c138.077,0,250,111.93,250,250c0,138.077-111.923,250-250,250C111.93,500,0,388.077,0,250C0,111.93,111.93,0,250,0z"/></g></g><g transform="translate(622.23 266.67) scale(0.0585573 0.0585573)"><g style="fill: rgb(0, 0, 0);"><path d="M250,0c138.077,0,250,111.93,250,250c0,138.077-111.923,250-250,250C111.93,500,0,388.077,0,250C0,111.93,111.93,0,250,0z"/></g></g><g transform="translate(681.49 266.67) scale(0.0585573 0.0585573)"><g style="fill: rgb(0, 0, 0);"><path d="M250,0c138.077,0,250,111.93,250,250c0,138.077-111.923,250-250,250C111.93,500,0,388.077,0,250C0,111.93,111.93,0,250,0z"/></g></g><g transform="translate(29.63 296.3) scale(0.0585573 0.0585573)"><g style="fill: rgb(0, 0, 0);"><path d="M250,0c138.077,0,250,111.93,250,250c0,138.077-111.923,250-250,250C111.93,500,0,388.077,0,250C0,111.93,111.93,0,250,0z"/></g></g><g transform="translate(88.89 296.3) scale(0.0585573 0.0585573)"><g style="fill: rgb(0, 0, 0);"><path d="M250,0c138.077,0,250,111.93,250,250c0,138.077-111.923,250-250,250C111.93,500,0,388.077,0,250C0,111.93,111.93,0,250,0z"/></g></g><g transform="translate(118.52 296.3) scale(0.0585573 0.0585573)"><g style="fill: rgb(0, 0, 0);"><path d="M250,0c138.077,0,250,111.93,250,250c0,138.077-111.923,250-250,250C111.93,500,0,388.077,0,250C0,111.93,111.93,0,250,0z"/></g></g><g transform="translate(148.15 296.3) scale(0.0585573 0.0585573)"><g style="fill: rgb(0, 0, 0);"><path d="M250,0c138.077,0,250,111.93,250,250c0,138.077-111.923,250-250,250C111.93,500,0,388.077,0,250C0,111.93,111.93,0,250,0z"/></g></g><g transform="translate(177.78 296.3) scale(0.0585573 0.0585573)"><g style="fill: rgb(0, 0, 0);"><path d="M250,0c138.077,0,250,111.93,250,250c0,138.077-111.923,250-250,250C111.93,500,0,388.077,0,250C0,111.93,111.93,0,250,0z"/></g></g><g transform="translate(207.41 296.3) scale(0.0585573 0.0585573)"><g style="fill: rgb(0, 0, 0);"><path d="M250,0c138.077,0,250,111.93,250,250c0,138.077-111.923,250-250,250C111.93,500,0,388.077,0,250C0,111.93,111.93,0,250,0z"/></g></g><g transform="translate(237.04 296.3) scale(0.0585573 0.0585573)"><g style="fill: rgb(0, 0, 0);"><path d="M250,0c138.077,0,250,111.93,250,250c0,138.077-111.923,250-250,250C111.93,500,0,388.077,0,250C0,111.93,111.93,0,250,0z"/></g></g><g transform="translate(266.67 296.3) scale(0.0585573 0.0585573)"><g style="fill: rgb(0, 0, 0);"><path d="M250,0c138.077,0,250,111.93,250,250c0,138.077-111.923,250-250,250C111.93,500,0,388.077,0,250C0,111.93,111.93,0,250,0z"/></g></g><g transform="translate(296.3 296.3) scale(0.0585573 0.0585573)"><g style="fill: rgb(0, 0, 0);"><path d="M250,0c138.077,0,250,111.93,250,250c0,138.077-111.923,250-250,250C111.93,500,0,388.077,0,250C0,111.93,111.93,0,250,0z"/></g></g><g transform="translate(325.93 296.3) scale(0.0585573 0.0585573)"><g style="fill: rgb(0, 0, 0);"><path d="M250,0c138.077,0,250,111.93,250,250c0,138.077-111.923,250-250,250C111.93,500,0,388.077,0,250C0,111.93,111.93,0,250,0z"/></g></g><g transform="translate(385.19 296.3) scale(0.0585573 0.0585573)"><g style="fill: rgb(0, 0, 0);"><path d="M250,0c138.077,0,250,111.93,250,250c0,138.077-111.923,250-250,250C111.93,500,0,388.077,0,250C0,111.93,111.93,0,250,0z"/></g></g><g transform="translate(444.45 296.3) scale(0.0585573 0.0585573)"><g style="fill: rgb(0, 0, 0);"><path d="M250,0c138.077,0,250,111.93,250,250c0,138.077-111.923,250-250,250C111.93,500,0,388.077,0,250C0,111.93,111.93,0,250,0z"/></g></g><g transform="translate(474.08 296.3) scale(0.0585573 0.0585573)"><g style="fill: rgb(0, 0, 0);"><path d="M250,0c138.077,0,250,111.93,250,250c0,138.077-111.923,250-250,250C111.93,500,0,388.077,0,250C0,111.93,111.93,0,250,0z"/></g></g><g transform="translate(533.34 296.3) scale(0.0585573 0.0585573)"><g style="fill: rgb(0, 0, 0);"><path d="M250,0c138.077,0,250,111.93,250,250c0,138.077-111.923,250-250,250C111.93,500,0,388.077,0,250C0,111.93,111.93,0,250,0z"/></g></g><g transform="translate(622.23 296.3) scale(0.0585573 0.0585573)"><g style="fill: rgb(0, 0, 0);"><path d="M250,0c138.077,0,250,111.93,250,250c0,138.077-111.923,250-250,250C111.93,500,0,388.077,0,250C0,111.93,111.93,0,250,0z"/></g></g><g transform="translate(651.86 296.3) scale(0.0585573 0.0585573)"><g style="fill: rgb(0, 0, 0);"><path d="M250,0c138.077,0,250,111.93,250,250c0,138.077-111.923,250-250,250C111.93,500,0,388.077,0,250C0,111.93,111.93,0,250,0z"/></g></g><g transform="translate(29.63 325.93) scale(0.0585573 0.0585573)"><g style="fill: rgb(0, 0, 0);"><path d="M250,0c138.077,0,250,111.93,250,250c0,138.077-111.923,250-250,250C111.93,500,0,388.077,0,250C0,111.93,111.93,0,250,0z"/></g></g><g transform="translate(59.26 325.93) scale(0.0585573 0.0585573)"><g style="fill: rgb(0, 0, 0);"><path d="M250,0c138.077,0,250,111.93,250,250c0,138.077-111.923,250-250,250C111.93,500,0,388.077,0,250C0,111.93,111.93,0,250,0z"/></g></g><g transform="translate(118.52 325.93) scale(0.0585573 0.0585573)"><g style="fill: rgb(0, 0, 0);"><path d="M250,0c138.077,0,250,111.93,250,250c0,138.077-111.923,250-250,250C111.93,500,0,388.077,0,250C0,111.93,111.93,0,250,0z"/></g></g><g transform="translate(148.15 325.93) scale(0.0585573 0.0585573)"><g style="fill: rgb(0, 0, 0);"><path d="M250,0c138.077,0,250,111.93,250,250c0,138.077-111.923,250-250,250C111.93,500,0,388.077,0,250C0,111.93,111.93,0,250,0z"/></g></g><g transform="translate(266.67 325.93) scale(0.0585573 0.0585573)"><g style="fill: rgb(0, 0, 0);"><path d="M250,0c138.077,0,250,111.93,250,250c0,138.077-111.923,250-250,250C111.93,500,0,388.077,0,250C0,111.93,111.93,0,250,0z"/></g></g><g transform="translate(355.56 325.93) scale(0.0585573 0.0585573)"><g style="fill: rgb(0, 0, 0);"><path d="M250,0c138.077,0,250,111.93,250,250c0,138.077-111.923,250-250,250C111.93,500,0,388.077,0,250C0,111.93,111.93,0,250,0z"/></g></g><g transform="translate(474.08 325.93) scale(0.0585573 0.0585573)"><g style="fill: rgb(0, 0, 0);"><path d="M250,0c138.077,0,250,111.93,250,250c0,138.077-111.923,250-250,250C111.93,500,0,388.077,0,250C0,111.93,111.93,0,250,0z"/></g></g><g transform="translate(503.71 325.93) scale(0.0585573 0.0585573)"><g style="fill: rgb(0, 0, 0);"><path d="M250,0c138.077,0,250,111.93,250,250c0,138.077-111.923,250-250,250C111.93,500,0,388.077,0,250C0,111.93,111.93,0,250,0z"/></g></g><g transform="translate(533.34 325.93) scale(0.0585573 0.0585573)"><g style="fill: rgb(0, 0, 0);"><path d="M250,0c138.077,0,250,111.93,250,250c0,138.077-111.923,250-250,250C111.93,500,0,388.077,0,250C0,111.93,111.93,0,250,0z"/></g></g><g transform="translate(562.97 325.93) scale(0.0585573 0.0585573)"><g style="fill: rgb(0, 0, 0);"><path d="M250,0c138.077,0,250,111.93,250,250c0,138.077-111.923,250-250,250C111.93,500,0,388.077,0,250C0,111.93,111.93,0,250,0z"/></g></g><g transform="translate(651.86 325.93) scale(0.0585573 0.0585573)"><g style="fill: rgb(0, 0, 0);"><path d="M250,0c138.077,0,250,111.93,250,250c0,138.077-111.923,250-250,250C111.93,500,0,388.077,0,250C0,111.93,111.93,0,250,0z"/></g></g><g transform="translate(681.49 325.93) scale(0.0585573 0.0585573)"><g style="fill: rgb(0, 0, 0);"><path d="M250,0c138.077,0,250,111.93,250,250c0,138.077-111.923,250-250,250C111.93,500,0,388.077,0,250C0,111.93,111.93,0,250,0z"/></g></g><g transform="translate(29.63 355.56) scale(0.0585573 0.0585573)"><g style="fill: rgb(0, 0, 0);"><path d="M250,0c138.077,0,250,111.93,250,250c0,138.077-111.923,250-250,250C111.93,500,0,388.077,0,250C0,111.93,111.93,0,250,0z"/></g></g><g transform="translate(118.52 355.56) scale(0.0585573 0.0585573)"><g style="fill: rgb(0, 0, 0);"><path d="M250,0c138.077,0,250,111.93,250,250c0,138.077-111.923,250-250,250C111.93,500,0,388.077,0,250C0,111.93,111.93,0,250,0z"/></g></g><g transform="translate(148.15 355.56) scale(0.0585573 0.0585573)"><g style="fill: rgb(0, 0, 0);"><path d="M250,0c138.077,0,250,111.93,250,250c0,138.077-111.923,250-250,250C111.93,500,0,388.077,0,250C0,111.93,111.93,0,250,0z"/></g></g><g transform="translate(177.78 355.56) scale(0.0585573 0.0585573)"><g style="fill: rgb(0, 0, 0);"><path d="M250,0c138.077,0,250,111.93,250,250c0,138.077-111.923,250-250,250C111.93,500,0,388.077,0,250C0,111.93,111.93,0,250,0z"/></g></g><g transform="translate(237.04 355.56) scale(0.0585573 0.0585573)"><g style="fill: rgb(0, 0, 0);"><path d="M250,0c138.077,0,250,111.93,250,250c0,138.077-111.923,250-250,250C111.93,500,0,388.077,0,250C0,111.93,111.93,0,250,0z"/></g></g><g transform="translate(325.93 355.56) scale(0.0585573 0.0585573)"><g style="fill: rgb(0, 0, 0);"><path d="M250,0c138.077,0,250,111.93,250,250c0,138.077-111.923,250-250,250C111.93,500,0,388.077,0,250C0,111.93,111.93,0,250,0z"/></g></g><g transform="translate(355.56 355.56) scale(0.0585573 0.0585573)"><g style="fill: rgb(0, 0, 0);"><path d="M250,0c138.077,0,250,111.93,250,250c0,138.077-111.923,250-250,250C111.93,500,0,388.077,0,250C0,111.93,111.93,0,250,0z"/></g></g><g transform="translate(444.45 355.56) scale(0.0585573 0.0585573)"><g style="fill: rgb(0, 0, 0);"><path d="M250,0c138.077,0,250,111.93,250,250c0,138.077-111.923,250-250,250C111.93,500,0,388.077,0,250C0,111.93,111.93,0,250,0z"/></g></g><g transform="translate(474.08 355.56) scale(0.0585573 0.0585573)"><g style="fill: rgb(0, 0, 0);"><path d="M250,0c138.077,0,250,111.93,250,250c0,138.077-111.923,250-250,250C111.93,500,0,388.077,0,250C0,111.93,111.93,0,250,0z"/></g></g><g transform="translate(503.71 355.56) scale(0.0585573 0.0585573)"><g style="fill: rgb(0, 0, 0);"><path d="M250,0c138.077,0,250,111.93,250,250c0,138.077-111.923,250-250,250C111.93,500,0,388.077,0,250C0,111.93,111.93,0,250,0z"/></g></g><g transform="translate(533.34 355.56) scale(0.0585573 0.0585573)"><g style="fill: rgb(0, 0, 0);"><path d="M250,0c138.077,0,250,111.93,250,250c0,138.077-111.923,250-250,250C111.93,500,0,388.077,0,250C0,111.93,111.93,0,250,0z"/></g></g><g transform="translate(622.23 355.56) scale(0.0585573 0.0585573)"><g style="fill: rgb(0, 0, 0);"><path d="M250,0c138.077,0,250,111.93,250,250c0,138.077-111.923,250-250,250C111.93,500,0,388.077,0,250C0,111.93,111.93,0,250,0z"/></g></g><g transform="translate(651.86 355.56) scale(0.0585573 0.0585573)"><g style="fill: rgb(0, 0, 0);"><path d="M250,0c138.077,0,250,111.93,250,250c0,138.077-111.923,250-250,250C111.93,500,0,388.077,0,250C0,111.93,111.93,0,250,0z"/></g></g><g transform="translate(681.49 355.56) scale(0.0585573 0.0585573)"><g style="fill: rgb(0, 0, 0);"><path d="M250,0c138.077,0,250,111.93,250,250c0,138.077-111.923,250-250,250C111.93,500,0,388.077,0,250C0,111.93,111.93,0,250,0z"/></g></g><g transform="translate(711.12 355.56) scale(0.0585573 0.0585573)"><g style="fill: rgb(0, 0, 0);"><path d="M250,0c138.077,0,250,111.93,250,250c0,138.077-111.923,250-250,250C111.93,500,0,388.077,0,250C0,111.93,111.93,0,250,0z"/></g></g><g transform="translate(0 385.19) scale(0.0585573 0.0585573)"><g style="fill: rgb(0, 0, 0);"><path d="M250,0c138.077,0,250,111.93,250,250c0,138.077-111.923,250-250,250C111.93,500,0,388.077,0,250C0,111.93,111.93,0,250,0z"/></g></g><g transform="translate(29.63 385.19) scale(0.0585573 0.0585573)"><g style="fill: rgb(0, 0, 0);"><path d="M250,0c138.077,0,250,111.93,250,250c0,138.077-111.923,250-250,250C111.93,500,0,388.077,0,250C0,111.93,111.93,0,250,0z"/></g></g><g transform="translate(88.89 385.19) scale(0.0585573 0.0585573)"><g style="fill: rgb(0, 0, 0);"><path d="M250,0c138.077,0,250,111.93,250,250c0,138.077-111.923,250-250,250C111.93,500,0,388.077,0,250C0,111.93,111.93,0,250,0z"/></g></g><g transform="translate(148.15 385.19) scale(0.0585573 0.0585573)"><g style="fill: rgb(0, 0, 0);"><path d="M250,0c138.077,0,250,111.93,250,250c0,138.077-111.923,250-250,250C111.93,500,0,388.077,0,250C0,111.93,111.93,0,250,0z"/></g></g><g transform="translate(207.41 385.19) scale(0.0585573 0.0585573)"><g style="fill: rgb(0, 0, 0);"><path d="M250,0c138.077,0,250,111.93,250,250c0,138.077-111.923,250-250,250C111.93,500,0,388.077,0,250C0,111.93,111.93,0,250,0z"/></g></g><g transform="translate(237.04 385.19) scale(0.0585573 0.0585573)"><g style="fill: rgb(0, 0, 0);"><path d="M250,0c138.077,0,250,111.93,250,250c0,138.077-111.923,250-250,250C111.93,500,0,388.077,0,250C0,111.93,111.93,0,250,0z"/></g></g><g transform="translate(266.67 385.19) scale(0.0585573 0.0585573)"><g style="fill: rgb(0, 0, 0);"><path d="M250,0c138.077,0,250,111.93,250,250c0,138.077-111.923,250-250,250C111.93,500,0,388.077,0,250C0,111.93,111.93,0,250,0z"/></g></g><g transform="translate(296.3 385.19) scale(0.0585573 0.0585573)"><g style="fill: rgb(0, 0, 0);"><path d="M250,0c138.077,0,250,111.93,250,250c0,138.077-111.923,250-250,250C111.93,500,0,388.077,0,250C0,111.93,111.93,0,250,0z"/></g></g><g transform="translate(385.19 385.19) scale(0.0585573 0.0585573)"><g style="fill: rgb(0, 0, 0);"><path d="M250,0c138.077,0,250,111.93,250,250c0,138.077-111.923,250-250,250C111.93,500,0,388.077,0,250C0,111.93,111.93,0,250,0z"/></g></g><g transform="translate(474.08 385.19) scale(0.0585573 0.0585573)"><g style="fill: rgb(0, 0, 0);"><path d="M250,0c138.077,0,250,111.93,250,250c0,138.077-111.923,250-250,250C111.93,500,0,388.077,0,250C0,111.93,111.93,0,250,0z"/></g></g><g transform="translate(592.6 385.19) scale(0.0585573 0.0585573)"><g style="fill: rgb(0, 0, 0);"><path d="M250,0c138.077,0,250,111.93,250,250c0,138.077-111.923,250-250,250C111.93,500,0,388.077,0,250C0,111.93,111.93,0,250,0z"/></g></g><g transform="translate(681.49 385.19) scale(0.0585573 0.0585573)"><g style="fill: rgb(0, 0, 0);"><path d="M250,0c138.077,0,250,111.93,250,250c0,138.077-111.923,250-250,250C111.93,500,0,388.077,0,250C0,111.93,111.93,0,250,0z"/></g></g><g transform="translate(177.78 414.82) scale(0.0585573 0.0585573)"><g style="fill: rgb(0, 0, 0);"><path d="M250,0c138.077,0,250,111.93,250,250c0,138.077-111.923,250-250,250C111.93,500,0,388.077,0,250C0,111.93,111.93,0,250,0z"/></g></g><g transform="translate(266.67 414.82) scale(0.0585573 0.0585573)"><g style="fill: rgb(0, 0, 0);"><path d="M250,0c138.077,0,250,111.93,250,250c0,138.077-111.923,250-250,250C111.93,500,0,388.077,0,250C0,111.93,111.93,0,250,0z"/></g></g><g transform="translate(325.93 414.82) scale(0.0585573 0.0585573)"><g style="fill: rgb(0, 0, 0);"><path d="M250,0c138.077,0,250,111.93,250,250c0,138.077-111.923,250-250,250C111.93,500,0,388.077,0,250C0,111.93,111.93,0,250,0z"/></g></g><g transform="translate(414.82 414.82) scale(0.0585573 0.0585573)"><g style="fill: rgb(0, 0, 0);"><path d="M250,0c138.077,0,250,111.93,250,250c0,138.077-111.923,250-250,250C111.93,500,0,388.077,0,250C0,111.93,111.93,0,250,0z"/></g></g><g transform="translate(444.45 414.82) scale(0.0585573 0.0585573)"><g style="fill: rgb(0, 0, 0);"><path d="M250,0c138.077,0,250,111.93,250,250c0,138.077-111.923,250-250,250C111.93,500,0,388.077,0,250C0,111.93,111.93,0,250,0z"/></g></g><g transform="translate(533.34 414.82) scale(0.0585573 0.0585573)"><g style="fill: rgb(0, 0, 0);"><path d="M250,0c138.077,0,250,111.93,250,250c0,138.077-111.923,250-250,250C111.93,500,0,388.077,0,250C0,111.93,111.93,0,250,0z"/></g></g><g transform="translate(562.97 414.82) scale(0.0585573 0.0585573)"><g style="fill: rgb(0, 0, 0);"><path d="M250,0c138.077,0,250,111.93,250,250c0,138.077-111.923,250-250,250C111.93,500,0,388.077,0,250C0,111.93,111.93,0,250,0z"/></g></g><g transform="translate(592.6 414.82) scale(0.0585573 0.0585573)"><g style="fill: rgb(0, 0, 0);"><path d="M250,0c138.077,0,250,111.93,250,250c0,138.077-111.923,250-250,250C111.93,500,0,388.077,0,250C0,111.93,111.93,0,250,0z"/></g></g><g transform="translate(622.23 414.82) scale(0.0585573 0.0585573)"><g style="fill: rgb(0, 0, 0);"><path d="M250,0c138.077,0,250,111.93,250,250c0,138.077-111.923,250-250,250C111.93,500,0,388.077,0,250C0,111.93,111.93,0,250,0z"/></g></g><g transform="translate(651.86 414.82) scale(0.0585573 0.0585573)"><g style="fill: rgb(0, 0, 0);"><path d="M250,0c138.077,0,250,111.93,250,250c0,138.077-111.923,250-250,250C111.93,500,0,388.077,0,250C0,111.93,111.93,0,250,0z"/></g></g><g transform="translate(59.26 444.45) scale(0.0585573 0.0585573)"><g style="fill: rgb(0, 0, 0);"><path d="M250,0c138.077,0,250,111.93,250,250c0,138.077-111.923,250-250,250C111.93,500,0,388.077,0,250C0,111.93,111.93,0,250,0z"/></g></g><g transform="translate(118.52 444.45) scale(0.0585573 0.0585573)"><g style="fill: rgb(0, 0, 0);"><path d="M250,0c138.077,0,250,111.93,250,250c0,138.077-111.923,250-250,250C111.93,500,0,388.077,0,250C0,111.93,111.93,0,250,0z"/></g></g><g transform="translate(266.67 444.45) scale(0.0585573 0.0585573)"><g style="fill: rgb(0, 0, 0);"><path d="M250,0c138.077,0,250,111.93,250,250c0,138.077-111.923,250-250,250C111.93,500,0,388.077,0,250C0,111.93,111.93,0,250,0z"/></g></g><g transform="translate(325.93 444.45) scale(0.0585573 0.0585573)"><g style="fill: rgb(0, 0, 0);"><path d="M250,0c138.077,0,250,111.93,250,250c0,138.077-111.923,250-250,250C111.93,500,0,388.077,0,250C0,111.93,111.93,0,250,0z"/></g></g><g transform="translate(355.56 444.45) scale(0.0585573 0.0585573)"><g style="fill: rgb(0, 0, 0);"><path d="M250,0c138.077,0,250,111.93,250,250c0,138.077-111.923,250-250,250C111.93,500,0,388.077,0,250C0,111.93,111.93,0,250,0z"/></g></g><g transform="translate(414.82 444.45) scale(0.0585573 0.0585573)"><g style="fill: rgb(0, 0, 0);"><path d="M250,0c138.077,0,250,111.93,250,250c0,138.077-111.923,250-250,250C111.93,500,0,388.077,0,250C0,111.93,111.93,0,250,0z"/></g></g><g transform="translate(474.08 444.45) scale(0.0585573 0.0585573)"><g style="fill: rgb(0, 0, 0);"><path d="M250,0c138.077,0,250,111.93,250,250c0,138.077-111.923,250-250,250C111.93,500,0,388.077,0,250C0,111.93,111.93,0,250,0z"/></g></g><g transform="translate(562.97 444.45) scale(0.0585573 0.0585573)"><g style="fill: rgb(0, 0, 0);"><path d="M250,0c138.077,0,250,111.93,250,250c0,138.077-111.923,250-250,250C111.93,500,0,388.077,0,250C0,111.93,111.93,0,250,0z"/></g></g><g transform="translate(592.6 444.45) scale(0.0585573 0.0585573)"><g style="fill: rgb(0, 0, 0);"><path d="M250,0c138.077,0,250,111.93,250,250c0,138.077-111.923,250-250,250C111.93,500,0,388.077,0,250C0,111.93,111.93,0,250,0z"/></g></g><g transform="translate(651.86 444.45) scale(0.0585573 0.0585573)"><g style="fill: rgb(0, 0, 0);"><path d="M250,0c138.077,0,250,111.93,250,250c0,138.077-111.923,250-250,250C111.93,500,0,388.077,0,250C0,111.93,111.93,0,250,0z"/></g></g><g transform="translate(681.49 444.45) scale(0.0585573 0.0585573)"><g style="fill: rgb(0, 0, 0);"><path d="M250,0c138.077,0,250,111.93,250,250c0,138.077-111.923,250-250,250C111.93,500,0,388.077,0,250C0,111.93,111.93,0,250,0z"/></g></g><g transform="translate(0 474.08) scale(0.0585573 0.0585573)"><g style="fill: rgb(0, 0, 0);"><path d="M250,0c138.077,0,250,111.93,250,250c0,138.077-111.923,250-250,250C111.93,500,0,388.077,0,250C0,111.93,111.93,0,250,0z"/></g></g><g transform="translate(29.63 474.08) scale(0.0585573 0.0585573)"><g style="fill: rgb(0, 0, 0);"><path d="M250,0c138.077,0,250,111.93,250,250c0,138.077-111.923,250-250,250C111.93,500,0,388.077,0,250C0,111.93,111.93,0,250,0z"/></g></g><g transform="translate(88.89 474.08) scale(0.0585573 0.0585573)"><g style="fill: rgb(0, 0, 0);"><path d="M250,0c138.077,0,250,111.93,250,250c0,138.077-111.923,250-250,250C111.93,500,0,388.077,0,250C0,111.93,111.93,0,250,0z"/></g></g><g transform="translate(118.52 474.08) scale(0.0585573 0.0585573)"><g style="fill: rgb(0, 0, 0);"><path d="M250,0c138.077,0,250,111.93,250,250c0,138.077-111.923,250-250,250C111.93,500,0,388.077,0,250C0,111.93,111.93,0,250,0z"/></g></g><g transform="translate(177.78 474.08) scale(0.0585573 0.0585573)"><g style="fill: rgb(0, 0, 0);"><path d="M250,0c138.077,0,250,111.93,250,250c0,138.077-111.923,250-250,250C111.93,500,0,388.077,0,250C0,111.93,111.93,0,250,0z"/></g></g><g transform="translate(207.41 474.08) scale(0.0585573 0.0585573)"><g style="fill: rgb(0, 0, 0);"><path d="M250,0c138.077,0,250,111.93,250,250c0,138.077-111.923,250-250,250C111.93,500,0,388.077,0,250C0,111.93,111.93,0,250,0z"/></g></g><g transform="translate(237.04 474.08) scale(0.0585573 0.0585573)"><g style="fill: rgb(0, 0, 0);"><path d="M250,0c138.077,0,250,111.93,250,250c0,138.077-111.923,250-250,250C111.93,500,0,388.077,0,250C0,111.93,111.93,0,250,0z"/></g></g><g transform="translate(325.93 474.08) scale(0.0585573 0.0585573)"><g style="fill: rgb(0, 0, 0);"><path d="M250,0c138.077,0,250,111.93,250,250c0,138.077-111.923,250-250,250C111.93,500,0,388.077,0,250C0,111.93,111.93,0,250,0z"/></g></g><g transform="translate(355.56 474.08) scale(0.0585573 0.0585573)"><g style="fill: rgb(0, 0, 0);"><path d="M250,0c138.077,0,250,111.93,250,250c0,138.077-111.923,250-250,250C111.93,500,0,388.077,0,250C0,111.93,111.93,0,250,0z"/></g></g><g transform="translate(444.45 474.08) scale(0.0585573 0.0585573)"><g style="fill: rgb(0, 0, 0);"><path d="M250,0c138.077,0,250,111.93,250,250c0,138.077-111.923,250-250,250C111.93,500,0,388.077,0,250C0,111.93,111.93,0,250,0z"/></g></g><g transform="translate(474.08 474.08) scale(0.0585573 0.0585573)"><g style="fill: rgb(0, 0, 0);"><path d="M250,0c138.077,0,250,111.93,250,250c0,138.077-111.923,250-250,250C111.93,500,0,388.077,0,250C0,111.93,111.93,0,250,0z"/></g></g><g transform="translate(503.71 474.08) scale(0.0585573 0.0585573)"><g style="fill: rgb(0, 0, 0);"><path d="M250,0c138.077,0,250,111.93,250,250c0,138.077-111.923,250-250,250C111.93,500,0,388.077,0,250C0,111.93,111.93,0,250,0z"/></g></g><g transform="translate(533.34 474.08) scale(0.0585573 0.0585573)"><g style="fill: rgb(0, 0, 0);"><path d="M250,0c138.077,0,250,111.93,250,250c0,138.077-111.923,250-250,250C111.93,500,0,388.077,0,250C0,111.93,111.93,0,250,0z"/></g></g><g transform="translate(562.97 474.08) scale(0.0585573 0.0585573)"><g style="fill: rgb(0, 0, 0);"><path d="M250,0c138.077,0,250,111.93,250,250c0,138.077-111.923,250-250,250C111.93,500,0,388.077,0,250C0,111.93,111.93,0,250,0z"/></g></g><g transform="translate(592.6 474.08) scale(0.0585573 0.0585573)"><g style="fill: rgb(0, 0, 0);"><path d="M250,0c138.077,0,250,111.93,250,250c0,138.077-111.923,250-250,250C111.93,500,0,388.077,0,250C0,111.93,111.93,0,250,0z"/></g></g><g transform="translate(622.23 474.08) scale(0.0585573 0.0585573)"><g style="fill: rgb(0, 0, 0);"><path d="M250,0c138.077,0,250,111.93,250,250c0,138.077-111.923,250-250,250C111.93,500,0,388.077,0,250C0,111.93,111.93,0,250,0z"/></g></g><g transform="translate(651.86 474.08) scale(0.0585573 0.0585573)"><g style="fill: rgb(0, 0, 0);"><path d="M250,0c138.077,0,250,111.93,250,250c0,138.077-111.923,250-250,250C111.93,500,0,388.077,0,250C0,111.93,111.93,0,250,0z"/></g></g><g transform="translate(237.04 503.71) scale(0.0585573 0.0585573)"><g style="fill: rgb(0, 0, 0);"><path d="M250,0c138.077,0,250,111.93,250,250c0,138.077-111.923,250-250,250C111.93,500,0,388.077,0,250C0,111.93,111.93,0,250,0z"/></g></g><g transform="translate(266.67 503.71) scale(0.0585573 0.0585573)"><g style="fill: rgb(0, 0, 0);"><path d="M250,0c138.077,0,250,111.93,250,250c0,138.077-111.923,250-250,250C111.93,500,0,388.077,0,250C0,111.93,111.93,0,250,0z"/></g></g><g transform="translate(296.3 503.71) scale(0.0585573 0.0585573)"><g style="fill: rgb(0, 0, 0);"><path d="M250,0c138.077,0,250,111.93,250,250c0,138.077-111.923,250-250,250C111.93,500,0,388.077,0,250C0,111.93,111.93,0,250,0z"/></g></g><g transform="translate(325.93 503.71) scale(0.0585573 0.0585573)"><g style="fill: rgb(0, 0, 0);"><path d="M250,0c138.077,0,250,111.93,250,250c0,138.077-111.923,250-250,250C111.93,500,0,388.077,0,250C0,111.93,111.93,0,250,0z"/></g></g><g transform="translate(385.19 503.71) scale(0.0585573 0.0585573)"><g style="fill: rgb(0, 0, 0);"><path d="M250,0c138.077,0,250,111.93,250,250c0,138.077-111.923,250-250,250C111.93,500,0,388.077,0,250C0,111.93,111.93,0,250,0z"/></g></g><g transform="translate(474.08 503.71) scale(0.0585573 0.0585573)"><g style="fill: rgb(0, 0, 0);"><path d="M250,0c138.077,0,250,111.93,250,250c0,138.077-111.923,250-250,250C111.93,500,0,388.077,0,250C0,111.93,111.93,0,250,0z"/></g></g><g transform="translate(592.6 503.71) scale(0.0585573 0.0585573)"><g style="fill: rgb(0, 0, 0);"><path d="M250,0c138.077,0,250,111.93,250,250c0,138.077-111.923,250-250,250C111.93,500,0,388.077,0,250C0,111.93,111.93,0,250,0z"/></g></g><g transform="translate(266.67 533.34) scale(0.0585573 0.0585573)"><g style="fill: rgb(0, 0, 0);"><path d="M250,0c138.077,0,250,111.93,250,250c0,138.077-111.923,250-250,250C111.93,500,0,388.077,0,250C0,111.93,111.93,0,250,0z"/></g></g><g transform="translate(296.3 533.34) scale(0.0585573 0.0585573)"><g style="fill: rgb(0, 0, 0);"><path d="M250,0c138.077,0,250,111.93,250,250c0,138.077-111.923,250-250,250C111.93,500,0,388.077,0,250C0,111.93,111.93,0,250,0z"/></g></g><g transform="translate(325.93 533.34) scale(0.0585573 0.0585573)"><g style="fill: rgb(0, 0, 0);"><path d="M250,0c138.077,0,250,111.93,250,250c0,138.077-111.923,250-250,250C111.93,500,0,388.077,0,250C0,111.93,111.93,0,250,0z"/></g></g><g transform="translate(385.19 533.34) scale(0.0585573 0.0585573)"><g style="fill: rgb(0, 0, 0);"><path d="M250,0c138.077,0,250,111.93,250,250c0,138.077-111.923,250-250,250C111.93,500,0,388.077,0,250C0,111.93,111.93,0,250,0z"/></g></g><g transform="translate(474.08 533.34) scale(0.0585573 0.0585573)"><g style="fill: rgb(0, 0, 0);"><path d="M250,0c138.077,0,250,111.93,250,250c0,138.077-111.923,250-250,250C111.93,500,0,388.077,0,250C0,111.93,111.93,0,250,0z"/></g></g><g transform="translate(533.34 533.34) scale(0.0585573 0.0585573)"><g style="fill: rgb(0, 0, 0);"><path d="M250,0c138.077,0,250,111.93,250,250c0,138.077-111.923,250-250,250C111.93,500,0,388.077,0,250C0,111.93,111.93,0,250,0z"/></g></g><g transform="translate(592.6 533.34) scale(0.0585573 0.0585573)"><g style="fill: rgb(0, 0, 0);"><path d="M250,0c138.077,0,250,111.93,250,250c0,138.077-111.923,250-250,250C111.93,500,0,388.077,0,250C0,111.93,111.93,0,250,0z"/></g></g><g transform="translate(237.04 562.97) scale(0.0585573 0.0585573)"><g style="fill: rgb(0, 0, 0);"><path d="M250,0c138.077,0,250,111.93,250,250c0,138.077-111.923,250-250,250C111.93,500,0,388.077,0,250C0,111.93,111.93,0,250,0z"/></g></g><g transform="translate(266.67 562.97) scale(0.0585573 0.0585573)"><g style="fill: rgb(0, 0, 0);"><path d="M250,0c138.077,0,250,111.93,250,250c0,138.077-111.923,250-250,250C111.93,500,0,388.077,0,250C0,111.93,111.93,0,250,0z"/></g></g><g transform="translate(444.45 562.97) scale(0.0585573 0.0585573)"><g style="fill: rgb(0, 0, 0);"><path d="M250,0c138.077,0,250,111.93,250,250c0,138.077-111.923,250-250,250C111.93,500,0,388.077,0,250C0,111.93,111.93,0,250,0z"/></g></g><g transform="translate(474.08 562.97) scale(0.0585573 0.0585573)"><g style="fill: rgb(0, 0, 0);"><path d="M250,0c138.077,0,250,111.93,250,250c0,138.077-111.923,250-250,250C111.93,500,0,388.077,0,250C0,111.93,111.93,0,250,0z"/></g></g><g transform="translate(592.6 562.97) scale(0.0585573 0.0585573)"><g style="fill: rgb(0, 0, 0);"><path d="M250,0c138.077,0,250,111.93,250,250c0,138.077-111.923,250-250,250C111.93,500,0,388.077,0,250C0,111.93,111.93,0,250,0z"/></g></g><g transform="translate(622.23 562.97) scale(0.0585573 0.0585573)"><g style="fill: rgb(0, 0, 0);"><path d="M250,0c138.077,0,250,111.93,250,250c0,138.077-111.923,250-250,250C111.93,500,0,388.077,0,250C0,111.93,111.93,0,250,0z"/></g></g><g transform="translate(651.86 562.97) scale(0.0585573 0.0585573)"><g style="fill: rgb(0, 0, 0);"><path d="M250,0c138.077,0,250,111.93,250,250c0,138.077-111.923,250-250,250C111.93,500,0,388.077,0,250C0,111.93,111.93,0,250,0z"/></g></g><g transform="translate(681.49 562.97) scale(0.0585573 0.0585573)"><g style="fill: rgb(0, 0, 0);"><path d="M250,0c138.077,0,250,111.93,250,250c0,138.077-111.923,250-250,250C111.93,500,0,388.077,0,250C0,111.93,111.93,0,250,0z"/></g></g><g transform="translate(711.12 562.97) scale(0.0585573 0.0585573)"><g style="fill: rgb(0, 0, 0);"><path d="M250,0c138.077,0,250,111.93,250,250c0,138.077-111.923,250-250,250C111.93,500,0,388.077,0,250C0,111.93,111.93,0,250,0z"/></g></g><g transform="translate(237.04 592.6) scale(0.0585573 0.0585573)"><g style="fill: rgb(0, 0, 0);"><path d="M250,0c138.077,0,250,111.93,250,250c0,138.077-111.923,250-250,250C111.93,500,0,388.077,0,250C0,111.93,111.93,0,250,0z"/></g></g><g transform="translate(266.67 592.6) scale(0.0585573 0.0585573)"><g style="fill: rgb(0, 0, 0);"><path d="M250,0c138.077,0,250,111.93,250,250c0,138.077-111.923,250-250,250C111.93,500,0,388.077,0,250C0,111.93,111.93,0,250,0z"/></g></g><g transform="translate(296.3 592.6) scale(0.0585573 0.0585573)"><g style="fill: rgb(0, 0, 0);"><path d="M250,0c138.077,0,250,111.93,250,250c0,138.077-111.923,250-250,250C111.93,500,0,388.077,0,250C0,111.93,111.93,0,250,0z"/></g></g><g transform="translate(355.56 592.6) scale(0.0585573 0.0585573)"><g style="fill: rgb(0, 0, 0);"><path d="M250,0c138.077,0,250,111.93,250,250c0,138.077-111.923,250-250,250C111.93,500,0,388.077,0,250C0,111.93,111.93,0,250,0z"/></g></g><g transform="translate(474.08 592.6) scale(0.0585573 0.0585573)"><g style="fill: rgb(0, 0, 0);"><path d="M250,0c138.077,0,250,111.93,250,250c0,138.077-111.923,250-250,250C111.93,500,0,388.077,0,250C0,111.93,111.93,0,250,0z"/></g></g><g transform="translate(503.71 592.6) scale(0.0585573 0.0585573)"><g style="fill: rgb(0, 0, 0);"><path d="M250,0c138.077,0,250,111.93,250,250c0,138.077-111.923,250-250,250C111.93,500,0,388.077,0,250C0,111.93,111.93,0,250,0z"/></g></g><g transform="translate(533.34 592.6) scale(0.0585573 0.0585573)"><g style="fill: rgb(0, 0, 0);"><path d="M250,0c138.077,0,250,111.93,250,250c0,138.077-111.923,250-250,250C111.93,500,0,388.077,0,250C0,111.93,111.93,0,250,0z"/></g></g><g transform="translate(562.97 592.6) scale(0.0585573 0.0585573)"><g style="fill: rgb(0, 0, 0);"><path d="M250,0c138.077,0,250,111.93,250,250c0,138.077-111.923,250-250,250C111.93,500,0,388.077,0,250C0,111.93,111.93,0,250,0z"/></g></g><g transform="translate(592.6 592.6) scale(0.0585573 0.0585573)"><g style="fill: rgb(0, 0, 0);"><path d="M250,0c138.077,0,250,111.93,250,250c0,138.077-111.923,250-250,250C111.93,500,0,388.077,0,250C0,111.93,111.93,0,250,0z"/></g></g><g transform="translate(622.23 592.6) scale(0.0585573 0.0585573)"><g style="fill: rgb(0, 0, 0);"><path d="M250,0c138.077,0,250,111.93,250,250c0,138.077-111.923,250-250,250C111.93,500,0,388.077,0,250C0,111.93,111.93,0,250,0z"/></g></g><g transform="translate(651.86 592.6) scale(0.0585573 0.0585573)"><g style="fill: rgb(0, 0, 0);"><path d="M250,0c138.077,0,250,111.93,250,250c0,138.077-111.923,250-250,250C111.93,500,0,388.077,0,250C0,111.93,111.93,0,250,0z"/></g></g><g transform="translate(681.49 592.6) scale(0.0585573 0.0585573)"><g style="fill: rgb(0, 0, 0);"><path d="M250,0c138.077,0,250,111.93,250,250c0,138.077-111.923,250-250,250C111.93,500,0,388.077,0,250C0,111.93,111.93,0,250,0z"/></g></g><g transform="translate(266.67 622.23) scale(0.0585573 0.0585573)"><g style="fill: rgb(0, 0, 0);"><path d="M250,0c138.077,0,250,111.93,250,250c0,138.077-111.923,250-250,250C111.93,500,0,388.077,0,250C0,111.93,111.93,0,250,0z"/></g></g><g transform="translate(296.3 622.23) scale(0.0585573 0.0585573)"><g style="fill: rgb(0, 0, 0);"><path d="M250,0c138.077,0,250,111.93,250,250c0,138.077-111.923,250-250,250C111.93,500,0,388.077,0,250C0,111.93,111.93,0,250,0z"/></g></g><g transform="translate(385.19 622.23) scale(0.0585573 0.0585573)"><g style="fill: rgb(0, 0, 0);"><path d="M250,0c138.077,0,250,111.93,250,250c0,138.077-111.923,250-250,250C111.93,500,0,388.077,0,250C0,111.93,111.93,0,250,0z"/></g></g><g transform="translate(414.82 622.23) scale(0.0585573 0.0585573)"><g style="fill: rgb(0, 0, 0);"><path d="M250,0c138.077,0,250,111.93,250,250c0,138.077-111.923,250-250,250C111.93,500,0,388.077,0,250C0,111.93,111.93,0,250,0z"/></g></g><g transform="translate(444.45 622.23) scale(0.0585573 0.0585573)"><g style="fill: rgb(0, 0, 0);"><path d="M250,0c138.077,0,250,111.93,250,250c0,138.077-111.923,250-250,250C111.93,500,0,388.077,0,250C0,111.93,111.93,0,250,0z"/></g></g><g transform="translate(474.08 622.23) scale(0.0585573 0.0585573)"><g style="fill: rgb(0, 0, 0);"><path d="M250,0c138.077,0,250,111.93,250,250c0,138.077-111.923,250-250,250C111.93,500,0,388.077,0,250C0,111.93,111.93,0,250,0z"/></g></g><g transform="translate(503.71 622.23) scale(0.0585573 0.0585573)"><g style="fill: rgb(0, 0, 0);"><path d="M250,0c138.077,0,250,111.93,250,250c0,138.077-111.923,250-250,250C111.93,500,0,388.077,0,250C0,111.93,111.93,0,250,0z"/></g></g><g transform="translate(533.34 622.23) scale(0.0585573 0.0585573)"><g style="fill: rgb(0, 0, 0);"><path d="M250,0c138.077,0,250,111.93,250,250c0,138.077-111.923,250-250,250C111.93,500,0,388.077,0,250C0,111.93,111.93,0,250,0z"/></g></g><g transform="translate(562.97 622.23) scale(0.0585573 0.0585573)"><g style="fill: rgb(0, 0, 0);"><path d="M250,0c138.077,0,250,111.93,250,250c0,138.077-111.923,250-250,250C111.93,500,0,388.077,0,250C0,111.93,111.93,0,250,0z"/></g></g><g transform="translate(651.86 622.23) scale(0.0585573 0.0585573)"><g style="fill: rgb(0, 0, 0);"><path d="M250,0c138.077,0,250,111.93,250,250c0,138.077-111.923,250-250,250C111.93,500,0,388.077,0,250C0,111.93,111.93,0,250,0z"/></g></g><g transform="translate(681.49 622.23) scale(0.0585573 0.0585573)"><g style="fill: rgb(0, 0, 0);"><path d="M250,0c138.077,0,250,111.93,250,250c0,138.077-111.923,250-250,250C111.93,500,0,388.077,0,250C0,111.93,111.93,0,250,0z"/></g></g><g transform="translate(711.12 622.23) scale(0.0585573 0.0585573)"><g style="fill: rgb(0, 0, 0);"><path d="M250,0c138.077,0,250,111.93,250,250c0,138.077-111.923,250-250,250C111.93,500,0,388.077,0,250C0,111.93,111.93,0,250,0z"/></g></g><g transform="translate(266.67 651.86) scale(0.0585573 0.0585573)"><g style="fill: rgb(0, 0, 0);"><path d="M250,0c138.077,0,250,111.93,250,250c0,138.077-111.923,250-250,250C111.93,500,0,388.077,0,250C0,111.93,111.93,0,250,0z"/></g></g><g transform="translate(325.93 651.86) scale(0.0585573 0.0585573)"><g style="fill: rgb(0, 0, 0);"><path d="M250,0c138.077,0,250,111.93,250,250c0,138.077-111.923,250-250,250C111.93,500,0,388.077,0,250C0,111.93,111.93,0,250,0z"/></g></g><g transform="translate(385.19 651.86) scale(0.0585573 0.0585573)"><g style="fill: rgb(0, 0, 0);"><path d="M250,0c138.077,0,250,111.93,250,250c0,138.077-111.923,250-250,250C111.93,500,0,388.077,0,250C0,111.93,111.93,0,250,0z"/></g></g><g transform="translate(414.82 651.86) scale(0.0585573 0.0585573)"><g style="fill: rgb(0, 0, 0);"><path d="M250,0c138.077,0,250,111.93,250,250c0,138.077-111.923,250-250,250C111.93,500,0,388.077,0,250C0,111.93,111.93,0,250,0z"/></g></g><g transform="translate(503.71 651.86) scale(0.0585573 0.0585573)"><g style="fill: rgb(0, 0, 0);"><path d="M250,0c138.077,0,250,111.93,250,250c0,138.077-111.923,250-250,250C111.93,500,0,388.077,0,250C0,111.93,111.93,0,250,0z"/></g></g><g transform="translate(533.34 651.86) scale(0.0585573 0.0585573)"><g style="fill: rgb(0, 0, 0);"><path d="M250,0c138.077,0,250,111.93,250,250c0,138.077-111.923,250-250,250C111.93,500,0,388.077,0,250C0,111.93,111.93,0,250,0z"/></g></g><g transform="translate(622.23 651.86) scale(0.0585573 0.0585573)"><g style="fill: rgb(0, 0, 0);"><path d="M250,0c138.077,0,250,111.93,250,250c0,138.077-111.923,250-250,250C111.93,500,0,388.077,0,250C0,111.93,111.93,0,250,0z"/></g></g><g transform="translate(681.49 651.86) scale(0.0585573 0.0585573)"><g style="fill: rgb(0, 0, 0);"><path d="M250,0c138.077,0,250,111.93,250,250c0,138.077-111.923,250-250,250C111.93,500,0,388.077,0,250C0,111.93,111.93,0,250,0z"/></g></g><g transform="translate(237.04 681.49) scale(0.0585573 0.0585573)"><g style="fill: rgb(0, 0, 0);"><path d="M250,0c138.077,0,250,111.93,250,250c0,138.077-111.923,250-250,250C111.93,500,0,388.077,0,250C0,111.93,111.93,0,250,0z"/></g></g><g transform="translate(266.67 681.49) scale(0.0585573 0.0585573)"><g style="fill: rgb(0, 0, 0);"><path d="M250,0c138.077,0,250,111.93,250,250c0,138.077-111.923,250-250,250C111.93,500,0,388.077,0,250C0,111.93,111.93,0,250,0z"/></g></g><g transform="translate(325.93 681.49) scale(0.0585573 0.0585573)"><g style="fill: rgb(0, 0, 0);"><path d="M250,0c138.077,0,250,111.93,250,250c0,138.077-111.923,250-250,250C111.93,500,0,388.077,0,250C0,111.93,111.93,0,250,0z"/></g></g><g transform="translate(414.82 681.49) scale(0.0585573 0.0585573)"><g style="fill: rgb(0, 0, 0);"><path d="M250,0c138.077,0,250,111.93,250,250c0,138.077-111.923,250-250,250C111.93,500,0,388.077,0,250C0,111.93,111.93,0,250,0z"/></g></g><g transform="translate(444.45 681.49) scale(0.0585573 0.0585573)"><g style="fill: rgb(0, 0, 0);"><path d="M250,0c138.077,0,250,111.93,250,250c0,138.077-111.923,250-250,250C111.93,500,0,388.077,0,250C0,111.93,111.93,0,250,0z"/></g></g><g transform="translate(562.97 681.49) scale(0.0585573 0.0585573)"><g style="fill: rgb(0, 0, 0);"><path d="M250,0c138.077,0,250,111.93,250,250c0,138.077-111.923,250-250,250C111.93,500,0,388.077,0,250C0,111.93,111.93,0,250,0z"/></g></g><g transform="translate(592.6 681.49) scale(0.0585573 0.0585573)"><g style="fill: rgb(0, 0, 0);"><path d="M250,0c138.077,0,250,111.93,250,250c0,138.077-111.923,250-250,250C111.93,500,0,388.077,0,250C0,111.93,111.93,0,250,0z"/></g></g><g transform="translate(622.23 681.49) scale(0.0585573 0.0585573)"><g style="fill: rgb(0, 0, 0);"><path d="M250,0c138.077,0,250,111.93,250,250c0,138.077-111.923,250-250,250C111.93,500,0,388.077,0,250C0,111.93,111.93,0,250,0z"/></g></g><g transform="translate(651.86 681.49) scale(0.0585573 0.0585573)"><g style="fill: rgb(0, 0, 0);"><path d="M250,0c138.077,0,250,111.93,250,250c0,138.077-111.923,250-250,250C111.93,500,0,388.077,0,250C0,111.93,111.93,0,250,0z"/></g></g><g transform="translate(681.49 681.49) scale(0.0585573 0.0585573)"><g style="fill: rgb(0, 0, 0);"><path d="M250,0c138.077,0,250,111.93,250,250c0,138.077-111.923,250-250,250C111.93,500,0,388.077,0,250C0,111.93,111.93,0,250,0z"/></g></g><g transform="translate(237.04 711.12) scale(0.0585573 0.0585573)"><g style="fill: rgb(0, 0, 0);"><path d="M250,0c138.077,0,250,111.93,250,250c0,138.077-111.923,250-250,250C111.93,500,0,388.077,0,250C0,111.93,111.93,0,250,0z"/></g></g><g transform="translate(296.3 711.12) scale(0.0585573 0.0585573)"><g style="fill: rgb(0, 0, 0);"><path d="M250,0c138.077,0,250,111.93,250,250c0,138.077-111.923,250-250,250C111.93,500,0,388.077,0,250C0,111.93,111.93,0,250,0z"/></g></g><g transform="translate(325.93 711.12) scale(0.0585573 0.0585573)"><g style="fill: rgb(0, 0, 0);"><path d="M250,0c138.077,0,250,111.93,250,250c0,138.077-111.923,250-250,250C111.93,500,0,388.077,0,250C0,111.93,111.93,0,250,0z"/></g></g><g transform="translate(385.19 711.12) scale(0.0585573 0.0585573)"><g style="fill: rgb(0, 0, 0);"><path d="M250,0c138.077,0,250,111.93,250,250c0,138.077-111.923,250-250,250C111.93,500,0,388.077,0,250C0,111.93,111.93,0,250,0z"/></g></g><g transform="translate(503.71 711.12) scale(0.0585573 0.0585573)"><g style="fill: rgb(0, 0, 0);"><path d="M250,0c138.077,0,250,111.93,250,250c0,138.077-111.923,250-250,250C111.93,500,0,388.077,0,250C0,111.93,111.93,0,250,0z"/></g></g><g transform="translate(533.34 711.12) scale(0.0585573 0.0585573)"><g style="fill: rgb(0, 0, 0);"><path d="M250,0c138.077,0,250,111.93,250,250c0,138.077-111.923,250-250,250C111.93,500,0,388.077,0,250C0,111.93,111.93,0,250,0z"/></g></g><g transform="translate(651.86 711.12) scale(0.0585573 0.0585573)"><g style="fill: rgb(0, 0, 0);"><path d="M250,0c138.077,0,250,111.93,250,250c0,138.077-111.923,250-250,250C111.93,500,0,388.077,0,250C0,111.93,111.93,0,250,0z"/></g></g><g transform="translate(681.49 711.12) scale(0.0585573 0.0585573)"><g style="fill: rgb(0, 0, 0);"><path d="M250,0c138.077,0,250,111.93,250,250c0,138.077-111.923,250-250,250C111.93,500,0,388.077,0,250C0,111.93,111.93,0,250,0z"/></g></g><g transform="translate(711.12 711.12) scale(0.0585573 0.0585573)"><g style="fill: rgb(0, 0, 0);"><path d="M250,0c138.077,0,250,111.93,250,250c0,138.077-111.923,250-250,250C111.93,500,0,388.077,0,250C0,111.93,111.93,0,250,0z"/></g></g><g transform="translate(0 0) scale(2.03343 2.03343)"><g style="fill: rgb(0, 0, 0);"><g><path style="fill:none;" d="M51,16c-19.299,0-35,15.701-35,35s15.701,35,35,35s35-15.701,35-35S70.299,16,51,16z"/><path d="M51,1C23.387,1,1,23.387,1,51s22.387,50,50,50s50-22.387,50-50S78.613,1,51,1z M51,86c-19.299,0-35-15.701-35-35   s15.701-35,35-35s35,15.701,35,35S70.299,86,51,86z"/></g></g></g><g transform="translate(59.26 59.26) scale(0.871471 0.871471)"><g style="fill: rgb(0, 0, 0);"><circle cx="50" cy="50" r="50"/></g></g><g transform="translate(533.34 0) scale(2.03343 2.03343)"><g style="fill: rgb(0, 0, 0);"><g><path style="fill:none;" d="M51,16c-19.299,0-35,15.701-35,35s15.701,35,35,35s35-15.701,35-35S70.299,16,51,16z"/><path d="M51,1C23.387,1,1,23.387,1,51s22.387,50,50,50s50-22.387,50-50S78.613,1,51,1z M51,86c-19.299,0-35-15.701-35-35   s15.701-35,35-35s35,15.701,35,35S70.299,86,51,86z"/></g></g></g><g transform="translate(592.6 59.26) scale(0.871471 0.871471)"><g style="fill: rgb(0, 0, 0);"><circle cx="50" cy="50" r="50"/></g></g><g transform="translate(0 533.34) scale(2.03343 2.03343)"><g style="fill: rgb(0, 0, 0);"><g><path style="fill:none;" d="M51,16c-19.299,0-35,15.701-35,35s15.701,35,35,35s35-15.701,35-35S70.299,16,51,16z"/><path d="M51,1C23.387,1,1,23.387,1,51s22.387,50,50,50s50-22.387,50-50S78.613,1,51,1z M51,86c-19.299,0-35-15.701-35-35   s15.701-35,35-35s35,15.701,35,35S70.299,86,51,86z"/></g></g></g><g transform="translate(59.26 592.6) scale(0.871471 0.871471)"><g style="fill: rgb(0, 0, 0);"><circle cx="50" cy="50" r="50"/></g></g></g></svg>