<?xml version="1.0" standalone="no"?><!DOCTYPE svg PUBLIC "-//W3C//DTD SVG 1.1//EN" "http://www.w3.org/Graphics/SVG/1.1/DTD/svg11.dtd"><svg t="1635672322011" class="icon" viewBox="0 0 1024 1024" version="1.1" xmlns="http://www.w3.org/2000/svg" p-id="3962" xmlns:xlink="http://www.w3.org/1999/xlink" width="200" height="200"><defs><style type="text/css"></style></defs><path d="M965.710769 392.113231h-39.227077v-2.048H487.581538V585.255385h275.692308a292.627692 292.627692 0 0 1-275.692308 195.032615 292.548923 292.548923 0 1 1 0-585.176615 290.658462 290.658462 0 0 1 194.166154 74.043077l137.846154-137.846154A485.218462 485.218462 0 0 0 487.581538 0a487.581538 487.581538 0 1 0 0 975.241846 487.581538 487.581538 0 0 0 478.129231-583.128615z" fill="#FFC107" p-id="3963"></path><path d="M56.162462 260.726154L216.457846 378.092308A292.391385 292.391385 0 0 1 487.581538 195.032615a290.658462 290.658462 0 0 1 194.166154 74.043077l137.846154-137.846154A485.218462 485.218462 0 0 0 487.581538 0 487.345231 487.345231 0 0 0 56.162462 260.726154z" fill="#F72824" p-id="3964"></path><path d="M487.581538 975.241846a485.612308 485.612308 0 0 0 326.971077-126.582154L663.630769 720.974769a290.579692 290.579692 0 0 1-176.049231 59.234462A292.312615 292.312615 0 0 1 212.676923 586.436923L53.484308 708.923077a487.187692 487.187692 0 0 0 434.09723 266.318769z" fill="#00A645" p-id="3965"></path><path d="M965.710769 392.113231h-39.227077v-2.048H487.581538V585.255385h275.692308a293.888 293.888 0 0 1-99.721846 135.798153l151.000615 127.684924c-10.633846 9.609846 160.689231-117.208615 160.689231-361.078154 0-32.610462-3.308308-64.590769-9.531077-95.468308z" fill="#1D84F5" p-id="3966"></path></svg>