<?xml version="1.0" encoding="UTF-8"?>
<svg xmlns="http://www.w3.org/2000/svg" xmlns:xlink="http://www.w3.org/1999/xlink" width="138pt" height="149pt" viewBox="0 0 138 149" version="1.1">
<defs>
<clipPath id="clip1">
  <path d="M 0 0.128906 L 138 0.128906 L 138 148.871094 L 0 148.871094 Z M 0 0.128906 "/>
</clipPath>
</defs>
<g id="surface1">
<path style=" stroke:none;fill-rule:nonzero;fill:rgb(99.607843%,40.784314%,32.54902%);fill-opacity:1;" d="M 131.859375 65.988281 C 134.421875 72.445312 135.757812 79.320312 135.796875 86.261719 C 135.796875 119.464844 105.898438 146.378906 68.992188 146.378906 C 32.089844 146.378906 2.179688 119.464844 2.179688 86.234375 C 2.179688 53.003906 32.078125 24.070312 68.96875 24.070312 C 90.835938 24.070312 113.308594 34.921875 125.378906 53.421875 C 128.003906 57.371094 130.203125 61.582031 131.9375 65.988281 Z M 131.859375 65.988281 "/>
<path style=" stroke:none;fill-rule:nonzero;fill:rgb(74.509804%,88.627451%,58.039216%);fill-opacity:1;" d="M 67.472656 21.550781 C 50.574219 41.601562 49.644531 63.207031 68.050781 74.664062 C 69.039062 75.300781 70.3125 75.300781 71.300781 74.664062 C 92.9375 60.117188 80.484375 31.804688 67.472656 21.589844 Z M 67.472656 21.550781 "/>
<path style=" stroke:none;fill-rule:nonzero;fill:rgb(74.509804%,88.627451%,58.039216%);fill-opacity:1;" d="M 68.375 22.671875 C 82.140625 45.035156 101.816406 54.429688 119.972656 45.230469 C 121.261719 44.574219 121.90625 43.105469 121.507812 41.71875 C 114.832031 18.394531 86.375 15.472656 68.375 22.671875 Z M 66.421875 23.15625 C 41.035156 15.964844 20.335938 21.851562 13.261719 40.871094 C 12.765625 42.167969 13.253906 43.636719 14.429688 44.382812 C 35.304688 57.167969 58.078125 40.574219 66.421875 23.15625 Z M 66.421875 23.15625 "/>
<path style=" stroke:none;fill-rule:nonzero;fill:rgb(51.764706%,66.666667%,32.156863%);fill-opacity:1;" d="M 64.847656 22.882812 C 63.242188 17.597656 60.714844 12.632812 57.382812 8.21875 C 57.105469 7.847656 57.019531 7.371094 57.148438 6.925781 C 57.277344 6.484375 57.605469 6.125 58.039062 5.960938 L 66.617188 2.828125 C 67.242188 2.601562 67.9375 2.8125 68.324219 3.351562 C 70.054688 5.777344 74.097656 12.980469 69.058594 22.347656 C 68.933594 22.601562 68.722656 22.808594 68.46875 22.933594 L 66.90625 23.742188 C 66.523438 23.953125 66.0625 23.980469 65.65625 23.8125 C 65.25 23.644531 64.941406 23.300781 64.820312 22.882812 Z M 64.847656 22.882812 "/>
<path style=" stroke:none;fill-rule:nonzero;fill:rgb(63.137255%,28.235294%,16.078431%);fill-opacity:1;" d="M 114.042969 102.804688 C 107.578125 117.546875 98.394531 130.855469 88.710938 143.707031 C 115.972656 136.125 135.769531 113.253906 135.769531 86.300781 C 135.726562 79.359375 134.390625 72.484375 131.835938 66.027344 C 130.125 61.625 127.949219 57.414062 125.351562 53.460938 C 123.738281 50.988281 121.9375 48.640625 119.960938 46.441406 C 125.207031 65.007812 121.730469 85.164062 114.019531 102.871094 Z M 114.042969 102.804688 "/>
<g clip-path="url(#clip1)" clip-rule="nonzero">
<path style=" stroke:none;fill-rule:nonzero;fill:rgb(0%,0%,0%);fill-opacity:1;" d="M 134.039062 65.152344 C 133.796875 64.375 133.140625 63.792969 132.339844 63.636719 C 131.535156 63.484375 130.710938 63.785156 130.195312 64.417969 C 129.679688 65.050781 129.558594 65.914062 129.878906 66.664062 C 132.296875 72.910156 133.535156 79.542969 133.539062 86.234375 C 133.539062 118.171875 104.574219 144.148438 68.953125 144.148438 C 33.335938 144.148438 4.394531 118.1875 4.394531 86.234375 C 4.417969 78.367188 6.140625 70.59375 9.445312 63.441406 C 11.851562 58.210938 14.992188 53.34375 18.773438 48.988281 C 22.367188 50.371094 26.175781 51.136719 30.03125 51.246094 C 38.429688 50.910156 46.503906 47.921875 53.078125 42.710938 C 53.40625 42.449219 53.75 42.203125 54.078125 41.929688 C 52.339844 46.914062 51.886719 52.25 52.765625 57.453125 C 54.285156 65.675781 59.785156 72.628906 68.652344 77.558594 C 68.984375 77.742188 69.359375 77.84375 69.742188 77.847656 C 70.140625 77.847656 70.535156 77.742188 70.882812 77.546875 C 79.683594 72.328125 84.644531 64.722656 85.234375 55.652344 C 85.464844 51.152344 84.789062 46.648438 83.242188 42.410156 C 90.390625 47.984375 98.132812 50.929688 106.027344 51.007812 C 110.339844 50.964844 114.601562 50.078125 118.570312 48.398438 C 120.765625 50.84375 122.757812 53.460938 124.527344 56.226562 C 125.183594 57.257812 126.554688 57.566406 127.589844 56.914062 C 128.625 56.261719 128.933594 54.898438 128.277344 53.867188 C 126.597656 51.238281 124.730469 48.730469 122.691406 46.363281 L 123.226562 46.050781 C 124.042969 45.570312 124.460938 44.625 124.265625 43.703125 C 122.632812 35.167969 117.546875 27.671875 110.199219 22.972656 C 103.273438 18.792969 95.289062 16.664062 87.191406 16.839844 C 82.375 16.835938 77.582031 17.480469 72.941406 18.757812 C 74.011719 15.09375 73.980469 11.199219 72.851562 7.550781 C 72.105469 5.164062 70.890625 2.949219 69.28125 1.027344 C 68.6875 0.367188 67.75 0.125 66.90625 0.414062 L 55.375 4.617188 C 54.6875 4.863281 54.167969 5.433594 53.984375 6.136719 C 53.800781 6.839844 53.976562 7.589844 54.457031 8.136719 C 57.363281 11.597656 59.683594 15.5 61.332031 19.699219 C 56.554688 18.648438 51.675781 18.105469 46.78125 18.082031 C 37.757812 18.082031 30.054688 20.128906 23.835938 24.160156 C 17.308594 28.472656 12.570312 34.988281 10.496094 42.503906 C 10.222656 43.410156 10.554688 44.386719 11.320312 44.941406 C 12.394531 45.722656 13.511719 46.441406 14.667969 47.09375 C 10.964844 51.527344 7.875 56.433594 5.484375 61.683594 C 1.890625 69.402344 0.0195312 77.804688 0 86.3125 C 0 103 7.203125 118.683594 20.296875 130.476562 C 33.699219 142.339844 51.0625 148.816406 69.007812 148.648438 C 86.953125 148.816406 104.320312 142.339844 117.730469 130.476562 C 130.851562 118.628906 138 102.949219 138 86.261719 C 137.996094 79.046875 136.664062 71.890625 134.0625 65.152344 Z M 80.773438 55.339844 C 80.300781 62.648438 76.5625 68.597656 69.664062 73.058594 C 62.550781 68.804688 58.328125 63.300781 57.09375 56.660156 C 55.46875 47.839844 59.140625 37.519531 67.746094 26.757812 C 74.988281 33.28125 81.46875 44.617188 80.773438 55.339844 Z M 107.785156 26.636719 C 113.703125 30.339844 117.9375 36.191406 119.59375 42.945312 C 115.449219 45.21875 110.800781 46.425781 106.066406 46.457031 C 99.347656 46.28125 92.855469 44 87.519531 39.933594 C 81.425781 35.484375 76.214844 29.953125 72.15625 23.613281 C 76.992188 22.039062 82.050781 21.246094 87.136719 21.261719 C 94.382812 21.089844 101.53125 22.976562 107.734375 26.703125 Z M 59.757812 7.667969 L 66.84375 5.058594 C 69.890625 9.789062 70.089844 15.796875 67.367188 20.714844 L 67.105469 20.964844 L 66.59375 20.820312 C 64.988281 16.121094 62.683594 11.6875 59.757812 7.667969 Z M 46.742188 22.398438 C 52.21875 22.453125 57.667969 23.167969 62.972656 24.523438 C 62.988281 24.609375 63.015625 24.695312 63.050781 24.773438 C 56.660156 36.058594 43.871094 46.703125 30.054688 46.703125 C 24.753906 46.679688 19.574219 45.113281 15.152344 42.203125 C 19.679688 29.417969 30.816406 22.398438 46.742188 22.398438 Z M 46.742188 22.398438 "/>
</g>
<path style=" stroke:none;fill-rule:nonzero;fill:rgb(27.058824%,0%,0%);fill-opacity:1;" d="M 72.535156 121.460938 L 98.867188 102.503906 L 101.398438 82.726562 L 81.71875 78.8125 L 55.375 97.730469 Z M 78.910156 99.074219 C 76.539062 95.820312 77.257812 91.269531 80.519531 88.902344 C 83.785156 86.53125 88.359375 87.230469 90.753906 90.46875 C 93.148438 93.707031 92.457031 98.261719 89.210938 100.652344 C 85.921875 103.007812 81.339844 102.273438 78.964844 99.007812 Z M 78.910156 99.074219 "/>
<path style=" stroke:none;fill-rule:nonzero;fill:rgb(27.058824%,0%,0%);fill-opacity:1;" d="M 49.644531 101.800781 L 66.800781 125.464844 L 78.714844 116.933594 L 61.542969 93.28125 Z M 49.644531 101.800781 "/>
<path style=" stroke:none;fill-rule:nonzero;fill:rgb(27.058824%,0%,0%);fill-opacity:1;" d="M 53.789062 112.09375 L 58.078125 118.003906 L 46.179688 126.535156 L 41.890625 120.613281 Z M 53.789062 112.09375 "/>
<path style=" stroke:none;fill-rule:nonzero;fill:rgb(27.058824%,0%,0%);fill-opacity:1;" d="M 79.871094 116.007812 L 77.96875 127.632812 L 65.226562 137.117188 L 67.183594 125.089844 Z M 62.644531 92.523438 L 49.996094 101.65625 L 37.886719 99.699219 L 51.007812 90.671875 Z M 62.644531 92.523438 "/>
</g>
</svg>
