<svg xmlns="http://www.w3.org/2000/svg" xmlns:xlink="http://www.w3.org/1999/xlink" width="700px" height="700px" viewBox="0 0 700 700" enable-background="new 0 0 700 700" x="0px" y="0px"><rect x="0" y="0" width="700" height="700" fill="#ffffff"/><g transform="translate(25, 25)"><g transform="translate(207.408 0) scale(0.25926 0.25926)"><g style="fill: rgb(76, 178, 75);"><rect width="100" height="100"/></g></g><g transform="translate(233.334 0) scale(0.25926 0.25926)"><g style="fill: rgb(76, 178, 75);"><rect width="100" height="100"/></g></g><g transform="translate(259.26 0) scale(0.25926 0.25926)"><g style="fill: rgb(76, 178, 75);"><rect width="100" height="100"/></g></g><g transform="translate(311.112 0) scale(0.25926 0.25926)"><g style="fill: rgb(76, 178, 75);"><rect width="100" height="100"/></g></g><g transform="translate(362.964 0) scale(0.25926 0.25926)"><g style="fill: rgb(76, 178, 75);"><rect width="100" height="100"/></g></g><g transform="translate(388.89 0) scale(0.25926 0.25926)"><g style="fill: rgb(76, 178, 75);"><rect width="100" height="100"/></g></g><g transform="translate(414.816 0) scale(0.25926 0.25926)"><g style="fill: rgb(76, 178, 75);"><rect width="100" height="100"/></g></g><g transform="translate(207.408 25.926) scale(0.25926 0.25926)"><g style="fill: rgb(76, 178, 75);"><rect width="100" height="100"/></g></g><g transform="translate(233.334 25.926) scale(0.25926 0.25926)"><g style="fill: rgb(76, 178, 75);"><rect width="100" height="100"/></g></g><g transform="translate(259.26 25.926) scale(0.25926 0.25926)"><g style="fill: rgb(76, 178, 75);"><rect width="100" height="100"/></g></g><g transform="translate(337.038 25.926) scale(0.25926 0.25926)"><g style="fill: rgb(76, 178, 75);"><rect width="100" height="100"/></g></g><g transform="translate(414.816 25.926) scale(0.25926 0.25926)"><g style="fill: rgb(76, 178, 75);"><rect width="100" height="100"/></g></g><g transform="translate(207.408 51.852) scale(0.25926 0.25926)"><g style="fill: rgb(76, 178, 75);"><rect width="100" height="100"/></g></g><g transform="translate(259.26 51.852) scale(0.25926 0.25926)"><g style="fill: rgb(76, 178, 75);"><rect width="100" height="100"/></g></g><g transform="translate(285.186 51.852) scale(0.25926 0.25926)"><g style="fill: rgb(76, 178, 75);"><rect width="100" height="100"/></g></g><g transform="translate(388.89 51.852) scale(0.25926 0.25926)"><g style="fill: rgb(76, 178, 75);"><rect width="100" height="100"/></g></g><g transform="translate(414.816 51.852) scale(0.25926 0.25926)"><g style="fill: rgb(76, 178, 75);"><rect width="100" height="100"/></g></g><g transform="translate(207.408 77.778) scale(0.25926 0.25926)"><g style="fill: rgb(76, 178, 75);"><rect width="100" height="100"/></g></g><g transform="translate(233.334 77.778) scale(0.25926 0.25926)"><g style="fill: rgb(76, 178, 75);"><rect width="100" height="100"/></g></g><g transform="translate(285.186 77.778) scale(0.25926 0.25926)"><g style="fill: rgb(76, 178, 75);"><rect width="100" height="100"/></g></g><g transform="translate(337.038 77.778) scale(0.25926 0.25926)"><g style="fill: rgb(76, 178, 75);"><rect width="100" height="100"/></g></g><g transform="translate(362.964 77.778) scale(0.25926 0.25926)"><g style="fill: rgb(76, 178, 75);"><rect width="100" height="100"/></g></g><g transform="translate(414.816 77.778) scale(0.25926 0.25926)"><g style="fill: rgb(76, 178, 75);"><rect width="100" height="100"/></g></g><g transform="translate(362.964 103.704) scale(0.25926 0.25926)"><g style="fill: rgb(76, 178, 75);"><rect width="100" height="100"/></g></g><g transform="translate(388.89 103.704) scale(0.25926 0.25926)"><g style="fill: rgb(76, 178, 75);"><rect width="100" height="100"/></g></g><g transform="translate(414.816 103.704) scale(0.25926 0.25926)"><g style="fill: rgb(76, 178, 75);"><rect width="100" height="100"/></g></g><g transform="translate(207.408 129.63) scale(0.25926 0.25926)"><g style="fill: rgb(76, 178, 75);"><rect width="100" height="100"/></g></g><g transform="translate(285.186 129.63) scale(0.25926 0.25926)"><g style="fill: rgb(76, 178, 75);"><rect width="100" height="100"/></g></g><g transform="translate(311.112 129.63) scale(0.25926 0.25926)"><g style="fill: rgb(76, 178, 75);"><rect width="100" height="100"/></g></g><g transform="translate(414.816 129.63) scale(0.25926 0.25926)"><g style="fill: rgb(76, 178, 75);"><rect width="100" height="100"/></g></g><g transform="translate(207.408 155.556) scale(0.25926 0.25926)"><g style="fill: rgb(76, 178, 75);"><rect width="100" height="100"/></g></g><g transform="translate(259.26 155.556) scale(0.25926 0.25926)"><g style="fill: rgb(76, 178, 75);"><rect width="100" height="100"/></g></g><g transform="translate(311.112 155.556) scale(0.25926 0.25926)"><g style="fill: rgb(76, 178, 75);"><rect width="100" height="100"/></g></g><g transform="translate(362.964 155.556) scale(0.25926 0.25926)"><g style="fill: rgb(76, 178, 75);"><rect width="100" height="100"/></g></g><g transform="translate(414.816 155.556) scale(0.25926 0.25926)"><g style="fill: rgb(76, 178, 75);"><rect width="100" height="100"/></g></g><g transform="translate(233.334 181.482) scale(0.25926 0.25926)"><g style="fill: rgb(76, 178, 75);"><rect width="100" height="100"/></g></g><g transform="translate(311.112 181.482) scale(0.25926 0.25926)"><g style="fill: rgb(76, 178, 75);"><rect width="100" height="100"/></g></g><g transform="translate(362.964 181.482) scale(0.25926 0.25926)"><g style="fill: rgb(76, 178, 75);"><rect width="100" height="100"/></g></g><g transform="translate(414.816 181.482) scale(0.25926 0.25926)"><g style="fill: rgb(76, 178, 75);"><rect width="100" height="100"/></g></g><g transform="translate(0 207.408) scale(0.25926 0.25926)"><g style="fill: rgb(76, 178, 75);"><rect width="100" height="100"/></g></g><g transform="translate(25.926 207.408) scale(0.25926 0.25926)"><g style="fill: rgb(76, 178, 75);"><rect width="100" height="100"/></g></g><g transform="translate(103.704 207.408) scale(0.25926 0.25926)"><g style="fill: rgb(76, 178, 75);"><rect width="100" height="100"/></g></g><g transform="translate(129.63 207.408) scale(0.25926 0.25926)"><g style="fill: rgb(76, 178, 75);"><rect width="100" height="100"/></g></g><g transform="translate(155.556 207.408) scale(0.25926 0.25926)"><g style="fill: rgb(76, 178, 75);"><rect width="100" height="100"/></g></g><g transform="translate(285.186 207.408) scale(0.25926 0.25926)"><g style="fill: rgb(76, 178, 75);"><rect width="100" height="100"/></g></g><g transform="translate(337.038 207.408) scale(0.25926 0.25926)"><g style="fill: rgb(76, 178, 75);"><rect width="100" height="100"/></g></g><g transform="translate(414.816 207.408) scale(0.25926 0.25926)"><g style="fill: rgb(76, 178, 75);"><rect width="100" height="100"/></g></g><g transform="translate(492.594 207.408) scale(0.25926 0.25926)"><g style="fill: rgb(76, 178, 75);"><rect width="100" height="100"/></g></g><g transform="translate(544.446 207.408) scale(0.25926 0.25926)"><g style="fill: rgb(76, 178, 75);"><rect width="100" height="100"/></g></g><g transform="translate(570.372 207.408) scale(0.25926 0.25926)"><g style="fill: rgb(76, 178, 75);"><rect width="100" height="100"/></g></g><g transform="translate(596.298 207.408) scale(0.25926 0.25926)"><g style="fill: rgb(76, 178, 75);"><rect width="100" height="100"/></g></g><g transform="translate(622.224 207.408) scale(0.25926 0.25926)"><g style="fill: rgb(76, 178, 75);"><rect width="100" height="100"/></g></g><g transform="translate(25.926 233.334) scale(0.25926 0.25926)"><g style="fill: rgb(76, 178, 75);"><rect width="100" height="100"/></g></g><g transform="translate(51.852 233.334) scale(0.25926 0.25926)"><g style="fill: rgb(76, 178, 75);"><rect width="100" height="100"/></g></g><g transform="translate(77.778 233.334) scale(0.25926 0.25926)"><g style="fill: rgb(76, 178, 75);"><rect width="100" height="100"/></g></g><g transform="translate(207.408 233.334) scale(0.25926 0.25926)"><g style="fill: rgb(76, 178, 75);"><rect width="100" height="100"/></g></g><g transform="translate(233.334 233.334) scale(0.25926 0.25926)"><g style="fill: rgb(76, 178, 75);"><rect width="100" height="100"/></g></g><g transform="translate(259.26 233.334) scale(0.25926 0.25926)"><g style="fill: rgb(76, 178, 75);"><rect width="100" height="100"/></g></g><g transform="translate(311.112 233.334) scale(0.25926 0.25926)"><g style="fill: rgb(76, 178, 75);"><rect width="100" height="100"/></g></g><g transform="translate(388.89 233.334) scale(0.25926 0.25926)"><g style="fill: rgb(76, 178, 75);"><rect width="100" height="100"/></g></g><g transform="translate(414.816 233.334) scale(0.25926 0.25926)"><g style="fill: rgb(76, 178, 75);"><rect width="100" height="100"/></g></g><g transform="translate(492.594 233.334) scale(0.25926 0.25926)"><g style="fill: rgb(76, 178, 75);"><rect width="100" height="100"/></g></g><g transform="translate(518.52 233.334) scale(0.25926 0.25926)"><g style="fill: rgb(76, 178, 75);"><rect width="100" height="100"/></g></g><g transform="translate(544.446 233.334) scale(0.25926 0.25926)"><g style="fill: rgb(76, 178, 75);"><rect width="100" height="100"/></g></g><g transform="translate(596.298 233.334) scale(0.25926 0.25926)"><g style="fill: rgb(76, 178, 75);"><rect width="100" height="100"/></g></g><g transform="translate(103.704 259.26) scale(0.25926 0.25926)"><g style="fill: rgb(76, 178, 75);"><rect width="100" height="100"/></g></g><g transform="translate(129.63 259.26) scale(0.25926 0.25926)"><g style="fill: rgb(76, 178, 75);"><rect width="100" height="100"/></g></g><g transform="translate(155.556 259.26) scale(0.25926 0.25926)"><g style="fill: rgb(76, 178, 75);"><rect width="100" height="100"/></g></g><g transform="translate(181.482 259.26) scale(0.25926 0.25926)"><g style="fill: rgb(76, 178, 75);"><rect width="100" height="100"/></g></g><g transform="translate(285.186 259.26) scale(0.25926 0.25926)"><g style="fill: rgb(76, 178, 75);"><rect width="100" height="100"/></g></g><g transform="translate(311.112 259.26) scale(0.25926 0.25926)"><g style="fill: rgb(76, 178, 75);"><rect width="100" height="100"/></g></g><g transform="translate(337.038 259.26) scale(0.25926 0.25926)"><g style="fill: rgb(76, 178, 75);"><rect width="100" height="100"/></g></g><g transform="translate(362.964 259.26) scale(0.25926 0.25926)"><g style="fill: rgb(76, 178, 75);"><rect width="100" height="100"/></g></g><g transform="translate(388.89 259.26) scale(0.25926 0.25926)"><g style="fill: rgb(76, 178, 75);"><rect width="100" height="100"/></g></g><g transform="translate(414.816 259.26) scale(0.25926 0.25926)"><g style="fill: rgb(76, 178, 75);"><rect width="100" height="100"/></g></g><g transform="translate(466.668 259.26) scale(0.25926 0.25926)"><g style="fill: rgb(76, 178, 75);"><rect width="100" height="100"/></g></g><g transform="translate(544.446 259.26) scale(0.25926 0.25926)"><g style="fill: rgb(76, 178, 75);"><rect width="100" height="100"/></g></g><g transform="translate(570.372 259.26) scale(0.25926 0.25926)"><g style="fill: rgb(76, 178, 75);"><rect width="100" height="100"/></g></g><g transform="translate(77.778 285.186) scale(0.25926 0.25926)"><g style="fill: rgb(76, 178, 75);"><rect width="100" height="100"/></g></g><g transform="translate(103.704 285.186) scale(0.25926 0.25926)"><g style="fill: rgb(76, 178, 75);"><rect width="100" height="100"/></g></g><g transform="translate(129.63 285.186) scale(0.25926 0.25926)"><g style="fill: rgb(76, 178, 75);"><rect width="100" height="100"/></g></g><g transform="translate(181.482 285.186) scale(0.25926 0.25926)"><g style="fill: rgb(76, 178, 75);"><rect width="100" height="100"/></g></g><g transform="translate(259.26 285.186) scale(0.25926 0.25926)"><g style="fill: rgb(76, 178, 75);"><rect width="100" height="100"/></g></g><g transform="translate(285.186 285.186) scale(0.25926 0.25926)"><g style="fill: rgb(76, 178, 75);"><rect width="100" height="100"/></g></g><g transform="translate(362.964 285.186) scale(0.25926 0.25926)"><g style="fill: rgb(76, 178, 75);"><rect width="100" height="100"/></g></g><g transform="translate(388.89 285.186) scale(0.25926 0.25926)"><g style="fill: rgb(76, 178, 75);"><rect width="100" height="100"/></g></g><g transform="translate(414.816 285.186) scale(0.25926 0.25926)"><g style="fill: rgb(76, 178, 75);"><rect width="100" height="100"/></g></g><g transform="translate(440.742 285.186) scale(0.25926 0.25926)"><g style="fill: rgb(76, 178, 75);"><rect width="100" height="100"/></g></g><g transform="translate(466.668 285.186) scale(0.25926 0.25926)"><g style="fill: rgb(76, 178, 75);"><rect width="100" height="100"/></g></g><g transform="translate(492.594 285.186) scale(0.25926 0.25926)"><g style="fill: rgb(76, 178, 75);"><rect width="100" height="100"/></g></g><g transform="translate(570.372 285.186) scale(0.25926 0.25926)"><g style="fill: rgb(76, 178, 75);"><rect width="100" height="100"/></g></g><g transform="translate(596.298 285.186) scale(0.25926 0.25926)"><g style="fill: rgb(76, 178, 75);"><rect width="100" height="100"/></g></g><g transform="translate(0 311.112) scale(0.25926 0.25926)"><g style="fill: rgb(76, 178, 75);"><rect width="100" height="100"/></g></g><g transform="translate(25.926 311.112) scale(0.25926 0.25926)"><g style="fill: rgb(76, 178, 75);"><rect width="100" height="100"/></g></g><g transform="translate(51.852 311.112) scale(0.25926 0.25926)"><g style="fill: rgb(76, 178, 75);"><rect width="100" height="100"/></g></g><g transform="translate(103.704 311.112) scale(0.25926 0.25926)"><g style="fill: rgb(76, 178, 75);"><rect width="100" height="100"/></g></g><g transform="translate(129.63 311.112) scale(0.25926 0.25926)"><g style="fill: rgb(76, 178, 75);"><rect width="100" height="100"/></g></g><g transform="translate(155.556 311.112) scale(0.25926 0.25926)"><g style="fill: rgb(76, 178, 75);"><rect width="100" height="100"/></g></g><g transform="translate(259.26 311.112) scale(0.25926 0.25926)"><g style="fill: rgb(76, 178, 75);"><rect width="100" height="100"/></g></g><g transform="translate(311.112 311.112) scale(0.25926 0.25926)"><g style="fill: rgb(76, 178, 75);"><rect width="100" height="100"/></g></g><g transform="translate(414.816 311.112) scale(0.25926 0.25926)"><g style="fill: rgb(76, 178, 75);"><rect width="100" height="100"/></g></g><g transform="translate(440.742 311.112) scale(0.25926 0.25926)"><g style="fill: rgb(76, 178, 75);"><rect width="100" height="100"/></g></g><g transform="translate(466.668 311.112) scale(0.25926 0.25926)"><g style="fill: rgb(76, 178, 75);"><rect width="100" height="100"/></g></g><g transform="translate(544.446 311.112) scale(0.25926 0.25926)"><g style="fill: rgb(76, 178, 75);"><rect width="100" height="100"/></g></g><g transform="translate(570.372 311.112) scale(0.25926 0.25926)"><g style="fill: rgb(76, 178, 75);"><rect width="100" height="100"/></g></g><g transform="translate(596.298 311.112) scale(0.25926 0.25926)"><g style="fill: rgb(76, 178, 75);"><rect width="100" height="100"/></g></g><g transform="translate(622.224 311.112) scale(0.25926 0.25926)"><g style="fill: rgb(76, 178, 75);"><rect width="100" height="100"/></g></g><g transform="translate(0 337.038) scale(0.25926 0.25926)"><g style="fill: rgb(76, 178, 75);"><rect width="100" height="100"/></g></g><g transform="translate(77.778 337.038) scale(0.25926 0.25926)"><g style="fill: rgb(76, 178, 75);"><rect width="100" height="100"/></g></g><g transform="translate(103.704 337.038) scale(0.25926 0.25926)"><g style="fill: rgb(76, 178, 75);"><rect width="100" height="100"/></g></g><g transform="translate(207.408 337.038) scale(0.25926 0.25926)"><g style="fill: rgb(76, 178, 75);"><rect width="100" height="100"/></g></g><g transform="translate(233.334 337.038) scale(0.25926 0.25926)"><g style="fill: rgb(76, 178, 75);"><rect width="100" height="100"/></g></g><g transform="translate(362.964 337.038) scale(0.25926 0.25926)"><g style="fill: rgb(76, 178, 75);"><rect width="100" height="100"/></g></g><g transform="translate(388.89 337.038) scale(0.25926 0.25926)"><g style="fill: rgb(76, 178, 75);"><rect width="100" height="100"/></g></g><g transform="translate(414.816 337.038) scale(0.25926 0.25926)"><g style="fill: rgb(76, 178, 75);"><rect width="100" height="100"/></g></g><g transform="translate(518.52 337.038) scale(0.25926 0.25926)"><g style="fill: rgb(76, 178, 75);"><rect width="100" height="100"/></g></g><g transform="translate(596.298 337.038) scale(0.25926 0.25926)"><g style="fill: rgb(76, 178, 75);"><rect width="100" height="100"/></g></g><g transform="translate(77.778 362.964) scale(0.25926 0.25926)"><g style="fill: rgb(76, 178, 75);"><rect width="100" height="100"/></g></g><g transform="translate(155.556 362.964) scale(0.25926 0.25926)"><g style="fill: rgb(76, 178, 75);"><rect width="100" height="100"/></g></g><g transform="translate(181.482 362.964) scale(0.25926 0.25926)"><g style="fill: rgb(76, 178, 75);"><rect width="100" height="100"/></g></g><g transform="translate(207.408 362.964) scale(0.25926 0.25926)"><g style="fill: rgb(76, 178, 75);"><rect width="100" height="100"/></g></g><g transform="translate(259.26 362.964) scale(0.25926 0.25926)"><g style="fill: rgb(76, 178, 75);"><rect width="100" height="100"/></g></g><g transform="translate(337.038 362.964) scale(0.25926 0.25926)"><g style="fill: rgb(76, 178, 75);"><rect width="100" height="100"/></g></g><g transform="translate(362.964 362.964) scale(0.25926 0.25926)"><g style="fill: rgb(76, 178, 75);"><rect width="100" height="100"/></g></g><g transform="translate(388.89 362.964) scale(0.25926 0.25926)"><g style="fill: rgb(76, 178, 75);"><rect width="100" height="100"/></g></g><g transform="translate(466.668 362.964) scale(0.25926 0.25926)"><g style="fill: rgb(76, 178, 75);"><rect width="100" height="100"/></g></g><g transform="translate(492.594 362.964) scale(0.25926 0.25926)"><g style="fill: rgb(76, 178, 75);"><rect width="100" height="100"/></g></g><g transform="translate(518.52 362.964) scale(0.25926 0.25926)"><g style="fill: rgb(76, 178, 75);"><rect width="100" height="100"/></g></g><g transform="translate(544.446 362.964) scale(0.25926 0.25926)"><g style="fill: rgb(76, 178, 75);"><rect width="100" height="100"/></g></g><g transform="translate(570.372 362.964) scale(0.25926 0.25926)"><g style="fill: rgb(76, 178, 75);"><rect width="100" height="100"/></g></g><g transform="translate(51.852 388.89) scale(0.25926 0.25926)"><g style="fill: rgb(76, 178, 75);"><rect width="100" height="100"/></g></g><g transform="translate(77.778 388.89) scale(0.25926 0.25926)"><g style="fill: rgb(76, 178, 75);"><rect width="100" height="100"/></g></g><g transform="translate(103.704 388.89) scale(0.25926 0.25926)"><g style="fill: rgb(76, 178, 75);"><rect width="100" height="100"/></g></g><g transform="translate(233.334 388.89) scale(0.25926 0.25926)"><g style="fill: rgb(76, 178, 75);"><rect width="100" height="100"/></g></g><g transform="translate(311.112 388.89) scale(0.25926 0.25926)"><g style="fill: rgb(76, 178, 75);"><rect width="100" height="100"/></g></g><g transform="translate(388.89 388.89) scale(0.25926 0.25926)"><g style="fill: rgb(76, 178, 75);"><rect width="100" height="100"/></g></g><g transform="translate(414.816 388.89) scale(0.25926 0.25926)"><g style="fill: rgb(76, 178, 75);"><rect width="100" height="100"/></g></g><g transform="translate(492.594 388.89) scale(0.25926 0.25926)"><g style="fill: rgb(76, 178, 75);"><rect width="100" height="100"/></g></g><g transform="translate(518.52 388.89) scale(0.25926 0.25926)"><g style="fill: rgb(76, 178, 75);"><rect width="100" height="100"/></g></g><g transform="translate(570.372 388.89) scale(0.25926 0.25926)"><g style="fill: rgb(76, 178, 75);"><rect width="100" height="100"/></g></g><g transform="translate(596.298 388.89) scale(0.25926 0.25926)"><g style="fill: rgb(76, 178, 75);"><rect width="100" height="100"/></g></g><g transform="translate(0 414.816) scale(0.25926 0.25926)"><g style="fill: rgb(76, 178, 75);"><rect width="100" height="100"/></g></g><g transform="translate(25.926 414.816) scale(0.25926 0.25926)"><g style="fill: rgb(76, 178, 75);"><rect width="100" height="100"/></g></g><g transform="translate(51.852 414.816) scale(0.25926 0.25926)"><g style="fill: rgb(76, 178, 75);"><rect width="100" height="100"/></g></g><g transform="translate(77.778 414.816) scale(0.25926 0.25926)"><g style="fill: rgb(76, 178, 75);"><rect width="100" height="100"/></g></g><g transform="translate(155.556 414.816) scale(0.25926 0.25926)"><g style="fill: rgb(76, 178, 75);"><rect width="100" height="100"/></g></g><g transform="translate(181.482 414.816) scale(0.25926 0.25926)"><g style="fill: rgb(76, 178, 75);"><rect width="100" height="100"/></g></g><g transform="translate(233.334 414.816) scale(0.25926 0.25926)"><g style="fill: rgb(76, 178, 75);"><rect width="100" height="100"/></g></g><g transform="translate(259.26 414.816) scale(0.25926 0.25926)"><g style="fill: rgb(76, 178, 75);"><rect width="100" height="100"/></g></g><g transform="translate(285.186 414.816) scale(0.25926 0.25926)"><g style="fill: rgb(76, 178, 75);"><rect width="100" height="100"/></g></g><g transform="translate(388.89 414.816) scale(0.25926 0.25926)"><g style="fill: rgb(76, 178, 75);"><rect width="100" height="100"/></g></g><g transform="translate(414.816 414.816) scale(0.25926 0.25926)"><g style="fill: rgb(76, 178, 75);"><rect width="100" height="100"/></g></g><g transform="translate(440.742 414.816) scale(0.25926 0.25926)"><g style="fill: rgb(76, 178, 75);"><rect width="100" height="100"/></g></g><g transform="translate(466.668 414.816) scale(0.25926 0.25926)"><g style="fill: rgb(76, 178, 75);"><rect width="100" height="100"/></g></g><g transform="translate(492.594 414.816) scale(0.25926 0.25926)"><g style="fill: rgb(76, 178, 75);"><rect width="100" height="100"/></g></g><g transform="translate(518.52 414.816) scale(0.25926 0.25926)"><g style="fill: rgb(76, 178, 75);"><rect width="100" height="100"/></g></g><g transform="translate(544.446 414.816) scale(0.25926 0.25926)"><g style="fill: rgb(76, 178, 75);"><rect width="100" height="100"/></g></g><g transform="translate(570.372 414.816) scale(0.25926 0.25926)"><g style="fill: rgb(76, 178, 75);"><rect width="100" height="100"/></g></g><g transform="translate(207.408 440.742) scale(0.25926 0.25926)"><g style="fill: rgb(76, 178, 75);"><rect width="100" height="100"/></g></g><g transform="translate(233.334 440.742) scale(0.25926 0.25926)"><g style="fill: rgb(76, 178, 75);"><rect width="100" height="100"/></g></g><g transform="translate(259.26 440.742) scale(0.25926 0.25926)"><g style="fill: rgb(76, 178, 75);"><rect width="100" height="100"/></g></g><g transform="translate(311.112 440.742) scale(0.25926 0.25926)"><g style="fill: rgb(76, 178, 75);"><rect width="100" height="100"/></g></g><g transform="translate(337.038 440.742) scale(0.25926 0.25926)"><g style="fill: rgb(76, 178, 75);"><rect width="100" height="100"/></g></g><g transform="translate(362.964 440.742) scale(0.25926 0.25926)"><g style="fill: rgb(76, 178, 75);"><rect width="100" height="100"/></g></g><g transform="translate(414.816 440.742) scale(0.25926 0.25926)"><g style="fill: rgb(76, 178, 75);"><rect width="100" height="100"/></g></g><g transform="translate(518.52 440.742) scale(0.25926 0.25926)"><g style="fill: rgb(76, 178, 75);"><rect width="100" height="100"/></g></g><g transform="translate(285.186 466.668) scale(0.25926 0.25926)"><g style="fill: rgb(76, 178, 75);"><rect width="100" height="100"/></g></g><g transform="translate(311.112 466.668) scale(0.25926 0.25926)"><g style="fill: rgb(76, 178, 75);"><rect width="100" height="100"/></g></g><g transform="translate(362.964 466.668) scale(0.25926 0.25926)"><g style="fill: rgb(76, 178, 75);"><rect width="100" height="100"/></g></g><g transform="translate(414.816 466.668) scale(0.25926 0.25926)"><g style="fill: rgb(76, 178, 75);"><rect width="100" height="100"/></g></g><g transform="translate(466.668 466.668) scale(0.25926 0.25926)"><g style="fill: rgb(76, 178, 75);"><rect width="100" height="100"/></g></g><g transform="translate(518.52 466.668) scale(0.25926 0.25926)"><g style="fill: rgb(76, 178, 75);"><rect width="100" height="100"/></g></g><g transform="translate(207.408 492.594) scale(0.25926 0.25926)"><g style="fill: rgb(76, 178, 75);"><rect width="100" height="100"/></g></g><g transform="translate(233.334 492.594) scale(0.25926 0.25926)"><g style="fill: rgb(76, 178, 75);"><rect width="100" height="100"/></g></g><g transform="translate(285.186 492.594) scale(0.25926 0.25926)"><g style="fill: rgb(76, 178, 75);"><rect width="100" height="100"/></g></g><g transform="translate(362.964 492.594) scale(0.25926 0.25926)"><g style="fill: rgb(76, 178, 75);"><rect width="100" height="100"/></g></g><g transform="translate(414.816 492.594) scale(0.25926 0.25926)"><g style="fill: rgb(76, 178, 75);"><rect width="100" height="100"/></g></g><g transform="translate(518.52 492.594) scale(0.25926 0.25926)"><g style="fill: rgb(76, 178, 75);"><rect width="100" height="100"/></g></g><g transform="translate(544.446 492.594) scale(0.25926 0.25926)"><g style="fill: rgb(76, 178, 75);"><rect width="100" height="100"/></g></g><g transform="translate(570.372 492.594) scale(0.25926 0.25926)"><g style="fill: rgb(76, 178, 75);"><rect width="100" height="100"/></g></g><g transform="translate(622.224 492.594) scale(0.25926 0.25926)"><g style="fill: rgb(76, 178, 75);"><rect width="100" height="100"/></g></g><g transform="translate(207.408 518.52) scale(0.25926 0.25926)"><g style="fill: rgb(76, 178, 75);"><rect width="100" height="100"/></g></g><g transform="translate(233.334 518.52) scale(0.25926 0.25926)"><g style="fill: rgb(76, 178, 75);"><rect width="100" height="100"/></g></g><g transform="translate(311.112 518.52) scale(0.25926 0.25926)"><g style="fill: rgb(76, 178, 75);"><rect width="100" height="100"/></g></g><g transform="translate(414.816 518.52) scale(0.25926 0.25926)"><g style="fill: rgb(76, 178, 75);"><rect width="100" height="100"/></g></g><g transform="translate(440.742 518.52) scale(0.25926 0.25926)"><g style="fill: rgb(76, 178, 75);"><rect width="100" height="100"/></g></g><g transform="translate(466.668 518.52) scale(0.25926 0.25926)"><g style="fill: rgb(76, 178, 75);"><rect width="100" height="100"/></g></g><g transform="translate(492.594 518.52) scale(0.25926 0.25926)"><g style="fill: rgb(76, 178, 75);"><rect width="100" height="100"/></g></g><g transform="translate(518.52 518.52) scale(0.25926 0.25926)"><g style="fill: rgb(76, 178, 75);"><rect width="100" height="100"/></g></g><g transform="translate(544.446 518.52) scale(0.25926 0.25926)"><g style="fill: rgb(76, 178, 75);"><rect width="100" height="100"/></g></g><g transform="translate(570.372 518.52) scale(0.25926 0.25926)"><g style="fill: rgb(76, 178, 75);"><rect width="100" height="100"/></g></g><g transform="translate(596.298 518.52) scale(0.25926 0.25926)"><g style="fill: rgb(76, 178, 75);"><rect width="100" height="100"/></g></g><g transform="translate(622.224 518.52) scale(0.25926 0.25926)"><g style="fill: rgb(76, 178, 75);"><rect width="100" height="100"/></g></g><g transform="translate(233.334 544.446) scale(0.25926 0.25926)"><g style="fill: rgb(76, 178, 75);"><rect width="100" height="100"/></g></g><g transform="translate(337.038 544.446) scale(0.25926 0.25926)"><g style="fill: rgb(76, 178, 75);"><rect width="100" height="100"/></g></g><g transform="translate(388.89 544.446) scale(0.25926 0.25926)"><g style="fill: rgb(76, 178, 75);"><rect width="100" height="100"/></g></g><g transform="translate(414.816 544.446) scale(0.25926 0.25926)"><g style="fill: rgb(76, 178, 75);"><rect width="100" height="100"/></g></g><g transform="translate(440.742 544.446) scale(0.25926 0.25926)"><g style="fill: rgb(76, 178, 75);"><rect width="100" height="100"/></g></g><g transform="translate(466.668 544.446) scale(0.25926 0.25926)"><g style="fill: rgb(76, 178, 75);"><rect width="100" height="100"/></g></g><g transform="translate(492.594 544.446) scale(0.25926 0.25926)"><g style="fill: rgb(76, 178, 75);"><rect width="100" height="100"/></g></g><g transform="translate(570.372 544.446) scale(0.25926 0.25926)"><g style="fill: rgb(76, 178, 75);"><rect width="100" height="100"/></g></g><g transform="translate(596.298 544.446) scale(0.25926 0.25926)"><g style="fill: rgb(76, 178, 75);"><rect width="100" height="100"/></g></g><g transform="translate(622.224 544.446) scale(0.25926 0.25926)"><g style="fill: rgb(76, 178, 75);"><rect width="100" height="100"/></g></g><g transform="translate(259.26 570.372) scale(0.25926 0.25926)"><g style="fill: rgb(76, 178, 75);"><rect width="100" height="100"/></g></g><g transform="translate(362.964 570.372) scale(0.25926 0.25926)"><g style="fill: rgb(76, 178, 75);"><rect width="100" height="100"/></g></g><g transform="translate(440.742 570.372) scale(0.25926 0.25926)"><g style="fill: rgb(76, 178, 75);"><rect width="100" height="100"/></g></g><g transform="translate(466.668 570.372) scale(0.25926 0.25926)"><g style="fill: rgb(76, 178, 75);"><rect width="100" height="100"/></g></g><g transform="translate(544.446 570.372) scale(0.25926 0.25926)"><g style="fill: rgb(76, 178, 75);"><rect width="100" height="100"/></g></g><g transform="translate(596.298 570.372) scale(0.25926 0.25926)"><g style="fill: rgb(76, 178, 75);"><rect width="100" height="100"/></g></g><g transform="translate(207.408 596.298) scale(0.25926 0.25926)"><g style="fill: rgb(76, 178, 75);"><rect width="100" height="100"/></g></g><g transform="translate(259.26 596.298) scale(0.25926 0.25926)"><g style="fill: rgb(76, 178, 75);"><rect width="100" height="100"/></g></g><g transform="translate(311.112 596.298) scale(0.25926 0.25926)"><g style="fill: rgb(76, 178, 75);"><rect width="100" height="100"/></g></g><g transform="translate(388.89 596.298) scale(0.25926 0.25926)"><g style="fill: rgb(76, 178, 75);"><rect width="100" height="100"/></g></g><g transform="translate(492.594 596.298) scale(0.25926 0.25926)"><g style="fill: rgb(76, 178, 75);"><rect width="100" height="100"/></g></g><g transform="translate(518.52 596.298) scale(0.25926 0.25926)"><g style="fill: rgb(76, 178, 75);"><rect width="100" height="100"/></g></g><g transform="translate(544.446 596.298) scale(0.25926 0.25926)"><g style="fill: rgb(76, 178, 75);"><rect width="100" height="100"/></g></g><g transform="translate(570.372 596.298) scale(0.25926 0.25926)"><g style="fill: rgb(76, 178, 75);"><rect width="100" height="100"/></g></g><g transform="translate(596.298 596.298) scale(0.25926 0.25926)"><g style="fill: rgb(76, 178, 75);"><rect width="100" height="100"/></g></g><g transform="translate(207.408 622.224) scale(0.25926 0.25926)"><g style="fill: rgb(76, 178, 75);"><rect width="100" height="100"/></g></g><g transform="translate(259.26 622.224) scale(0.25926 0.25926)"><g style="fill: rgb(76, 178, 75);"><rect width="100" height="100"/></g></g><g transform="translate(285.186 622.224) scale(0.25926 0.25926)"><g style="fill: rgb(76, 178, 75);"><rect width="100" height="100"/></g></g><g transform="translate(311.112 622.224) scale(0.25926 0.25926)"><g style="fill: rgb(76, 178, 75);"><rect width="100" height="100"/></g></g><g transform="translate(337.038 622.224) scale(0.25926 0.25926)"><g style="fill: rgb(76, 178, 75);"><rect width="100" height="100"/></g></g><g transform="translate(362.964 622.224) scale(0.25926 0.25926)"><g style="fill: rgb(76, 178, 75);"><rect width="100" height="100"/></g></g><g transform="translate(440.742 622.224) scale(0.25926 0.25926)"><g style="fill: rgb(76, 178, 75);"><rect width="100" height="100"/></g></g><g transform="translate(466.668 622.224) scale(0.25926 0.25926)"><g style="fill: rgb(76, 178, 75);"><rect width="100" height="100"/></g></g><g transform="translate(570.372 622.224) scale(0.25926 0.25926)"><g style="fill: rgb(76, 178, 75);"><rect width="100" height="100"/></g></g><g transform="translate(596.298 622.224) scale(0.25926 0.25926)"><g style="fill: rgb(76, 178, 75);"><rect width="100" height="100"/></g></g><g transform="translate(622.224 622.224) scale(0.25926 0.25926)"><g style="fill: rgb(76, 178, 75);"><rect width="100" height="100"/></g></g><g transform="translate(0 0) scale(1.81482 1.81482)"><g style="fill: rgb(76, 178, 75);"><path d="M85,0H15H0v15v70v15h15h70h15V85V15V0H85z M85,85H15V15h70V85z"/></g></g><g transform="translate(51.852 51.852) scale(0.77778 0.77778)"><g style="fill: rgb(76, 178, 75);"><rect width="100" height="100"/></g></g><g transform="translate(466.668 0) scale(1.81482 1.81482)"><g style="fill: rgb(76, 178, 75);"><path d="M85,0H15H0v15v70v15h15h70h15V85V15V0H85z M85,85H15V15h70V85z"/></g></g><g transform="translate(518.52 51.852) scale(0.77778 0.77778)"><g style="fill: rgb(76, 178, 75);"><rect width="100" height="100"/></g></g><g transform="translate(0 466.668) scale(1.81482 1.81482)"><g style="fill: rgb(76, 178, 75);"><path d="M85,0H15H0v15v70v15h15h70h15V85V15V0H85z M85,85H15V15h70V85z"/></g></g><g transform="translate(51.852 518.52) scale(0.77778 0.77778)"><g style="fill: rgb(76, 178, 75);"><rect width="100" height="100"/></g></g></g></svg>