<svg xmlns="http://www.w3.org/2000/svg" viewBox="0 0 24 24"><path fill="#303C42" d="M2 7h20v3H2z"/><path d="M2 7h20v3H2z" opacity=".1"/><path fill="#303C42" d="M2 14h20v3H2z"/><path d="M2 14h20v3H2z" opacity=".1"/><path fill="#303C42" d="M1 3v4a1 1 0 0 0 1 1h20a1 1 0 0 0 1-1V3a1 1 0 0 0-1-1H2a1 1 0 0 0-1 1z"/><path d="M22 7.75H2a1 1 0 0 1-1-1V7a1 1 0 0 0 1 1h20a1 1 0 0 0 1-1v-.25a1 1 0 0 1-1 1z" opacity=".2"/><path fill="#FFF" d="M22 2H2a1 1 0 0 0-1 1v.25a1 1 0 0 1 1-1h20a1 1 0 0 1 1 1V3a1 1 0 0 0-1-1z" opacity=".1"/><circle cx="19.5" cy="5" r=".5" fill="#69B342"/><circle cx="17.5" cy="5" r=".5" fill="#69B342"/><circle cx="15.5" cy="5" r=".5" fill="#69B342"/><circle cx="5" cy="5" r="1" fill="#C6CDD1"/><linearGradient id="a" x1="4.368" x2="5.487" y1="4.368" y2="5.487" gradientUnits="userSpaceOnUse"><stop offset="0" stop-opacity=".1"/><stop offset="1" stop-opacity="0"/></linearGradient><circle cx="5" cy="5" r="1" fill="url(#a)"/><path fill="#303C42" d="M1 10v4a1 1 0 0 0 1 1h20a1 1 0 0 0 1-1v-4a1 1 0 0 0-1-1H2a1 1 0 0 0-1 1z"/><path d="M22 14.75H2a1 1 0 0 1-1-1V14a1 1 0 0 0 1 1h20a1 1 0 0 0 1-1v-.25a1 1 0 0 1-1 1z" opacity=".2"/><path fill="#FFF" d="M22 9H2a1 1 0 0 0-1 1v.25a1 1 0 0 1 1-1h20a1 1 0 0 1 1 1V10a1 1 0 0 0-1-1z" opacity=".1"/><circle cx="19.5" cy="12" r=".5" fill="#69B342"/><circle cx="17.5" cy="12" r=".5" fill="#69B342"/><circle cx="15.5" cy="12" r=".5" fill="#69B342"/><circle cx="5" cy="12" r="1" fill="#C6CDD1"/><linearGradient id="b" x1="4.368" x2="5.487" y1="11.368" y2="12.487" gradientUnits="userSpaceOnUse"><stop offset="0" stop-opacity=".1"/><stop offset="1" stop-opacity="0"/></linearGradient><circle cx="5" cy="12" r="1" fill="url(#b)"/><path fill="#303C42" d="M1 17v4a1 1 0 0 0 1 1h20a1 1 0 0 0 1-1v-4a1 1 0 0 0-1-1H2a1 1 0 0 0-1 1z"/><path d="M22 21.75H2a1 1 0 0 1-1-1V21a1 1 0 0 0 1 1h20a1 1 0 0 0 1-1v-.25a1 1 0 0 1-1 1z" opacity=".2"/><path fill="#FFF" d="M22 16H2a1 1 0 0 0-1 1v.25a1 1 0 0 1 1-1h20a1 1 0 0 1 1 1V17a1 1 0 0 0-1-1z" opacity=".1"/><circle cx="19.5" cy="19" r=".5" fill="#69B342"/><circle cx="17.5" cy="19" r=".5" fill="#69B342"/><circle cx="15.5" cy="19" r=".5" fill="#69B342"/><circle cx="5" cy="19" r="1" fill="#C6CDD1"/><linearGradient id="c" x1="4.368" x2="5.487" y1="18.368" y2="19.487" gradientUnits="userSpaceOnUse"><stop offset="0" stop-opacity=".1"/><stop offset="1" stop-opacity="0"/></linearGradient><circle cx="5" cy="19" r="1" fill="url(#c)"/><linearGradient id="d" x1="-.568" x2="24.568" y1="6.14" y2="17.86" gradientUnits="userSpaceOnUse"><stop offset="0" stop-color="#FFF" stop-opacity=".2"/><stop offset="1" stop-color="#FFF" stop-opacity="0"/></linearGradient><path fill="url(#d)" d="M23 7V3a1 1 0 0 0-1-1H2a1 1 0 0 0-1 1v4a1 1 0 0 0 1 1v1a1 1 0 0 0-1 1v4a1 1 0 0 0 1 1v1a1 1 0 0 0-1 1v4a1 1 0 0 0 1 1h20a1 1 0 0 0 1-1v-4a1 1 0 0 0-1-1v-1a1 1 0 0 0 1-1v-4a1 1 0 0 0-1-1V8a1 1 0 0 0 1-1z"/></svg>