<svg xmlns="http://www.w3.org/2000/svg" xmlns:xlink="http://www.w3.org/1999/xlink" viewBox="0 0 3456.5 1918.85"><defs><style>.cls-1{isolation:isolate;}.cls-2{fill:#000001;stroke:#231f20;stroke-miterlimit:2.61;stroke-width:0.5px;}.cls-15,.cls-16,.cls-17,.cls-18,.cls-19,.cls-20,.cls-3,.cls-4,.cls-5,.cls-6,.cls-7,.cls-8{mix-blend-mode:screen;}.cls-3{fill:url(#radial-gradient);}.cls-4{fill:url(#radial-gradient-2);}.cls-5{fill:url(#radial-gradient-3);}.cls-6{fill:url(#radial-gradient-4);}.cls-7{fill:url(#radial-gradient-5);}.cls-8{fill:url(#radial-gradient-6);}.cls-10,.cls-11,.cls-12,.cls-13,.cls-14,.cls-9{fill-rule:evenodd;}.cls-9{fill:url(#GradientFill_1);}.cls-10{fill:url(#GradientFill_1-2);}.cls-11{fill:url(#GradientFill_2);}.cls-12{fill:url(#GradientFill_2-2);}.cls-13{fill:url(#GradientFill_3);}.cls-14{fill:url(#GradientFill_4);}.cls-15{fill:url(#radial-gradient-7);}.cls-16{fill:url(#radial-gradient-8);}.cls-17{fill:url(#radial-gradient-9);}.cls-18{fill:url(#radial-gradient-10);}.cls-19{fill:url(#radial-gradient-11);}.cls-20{fill:url(#radial-gradient-12);}.cls-21{fill:#fff;stroke:#000;stroke-miterlimit:10;}</style><radialGradient id="radial-gradient" cx="1687.31" cy="918.02" r="219.26" gradientTransform="translate(1143.34 -924.23) rotate(45)" gradientUnits="userSpaceOnUse"><stop offset="0" stop-color="#804f24"/><stop offset="0.23" stop-color="#543418"/><stop offset="0.45" stop-color="#301d0d"/><stop offset="0.66" stop-color="#150d06"/><stop offset="0.85" stop-color="#060302"/><stop offset="1"/></radialGradient><radialGradient id="radial-gradient-2" cx="-186.97" cy="-1391.07" r="68.8" gradientTransform="matrix(0.28, -2.83, 0.28, 2.83, 2102.96, 4310.65)" gradientUnits="userSpaceOnUse"><stop offset="0.09" stop-color="#fff"/><stop offset="0.1" stop-color="#fffcf7"/><stop offset="0.1" stop-color="#fff5e2"/><stop offset="0.11" stop-color="#ffeabe"/><stop offset="0.12" stop-color="#ffda8e"/><stop offset="0.13" stop-color="#ffc54f"/><stop offset="0.15" stop-color="#ffac04"/><stop offset="0.15" stop-color="#ffab00"/><stop offset="0.16" stop-color="#df9500"/><stop offset="0.18" stop-color="#a97200"/><stop offset="0.19" stop-color="#7f5500"/><stop offset="0.21" stop-color="#604100"/><stop offset="0.22" stop-color="#4e3400"/><stop offset="0.23" stop-color="#473000"/><stop offset="0.32" stop-color="#342300"/><stop offset="0.46" stop-color="#1d1400"/><stop offset="0.61" stop-color="#0d0900"/><stop offset="0.78" stop-color="#030200"/><stop offset="1"/></radialGradient><radialGradient id="radial-gradient-3" cx="-3056.09" cy="-4407.39" r="68.8" gradientTransform="matrix(-2.83, -0.28, 2.83, -0.28, 5487.04, -1165.27)" xlink:href="#radial-gradient-2"/><radialGradient id="radial-gradient-4" cx="926.81" cy="-535.41" r="39.42" gradientTransform="matrix(2.2, -1.8, -1.8, 2.2, -1335.86, 3752.66)" xlink:href="#radial-gradient-2"/><radialGradient id="radial-gradient-5" cx="-1836.72" cy="-2994.85" r="39.42" gradientTransform="matrix(-1.8, -2.2, 2.2, 1.8, 4929.06, 2273.55)" xlink:href="#radial-gradient-2"/><radialGradient id="radial-gradient-6" cx="1432.07" cy="826.11" r="57.58" gradientTransform="translate(233.13 79)" xlink:href="#radial-gradient-2"/><linearGradient id="GradientFill_1" x1="2347.91" y1="558.95" x2="1189.25" y2="1311.4" gradientUnits="userSpaceOnUse"><stop offset="0" stop-color="#a26b2e"/><stop offset="0.1" stop-color="#b6802e"/><stop offset="0.25" stop-color="#e3ab2c"/><stop offset="0.39" stop-color="#fff6af"/><stop offset="0.45" stop-color="#dda62c"/><stop offset="0.65" stop-color="#b0742a"/><stop offset="0.75" stop-color="#9c5b27"/><stop offset="0.91" stop-color="#f2ba2d"/><stop offset="1" stop-color="#ffda72"/></linearGradient><linearGradient id="GradientFill_1-2" x1="973.41" y1="1141.68" x2="2417.65" y2="688.5" xlink:href="#GradientFill_1"/><linearGradient id="GradientFill_2" x1="1489.1" y1="540.02" x2="1489.1" y2="685.41" gradientUnits="userSpaceOnUse"><stop offset="0" stop-color="#fff"/><stop offset="1"/></linearGradient><linearGradient id="GradientFill_2-2" x1="1937.93" y1="512.22" x2="1937.93" y2="708.93" xlink:href="#GradientFill_2"/><linearGradient id="GradientFill_3" x1="2505.72" y1="919.14" x2="788.84" y2="904.17" gradientUnits="userSpaceOnUse"><stop offset="0" stop-color="#58595b"/><stop offset="0.15" stop-color="#808184"/><stop offset="0.32" stop-color="#d0d2d3"/><stop offset="0.54" stop-color="#929497"/><stop offset="0.67" stop-color="#808184"/><stop offset="1" stop-color="#d0d2d3"/></linearGradient><linearGradient id="GradientFill_4" x1="887.23" y1="897.01" x2="2283.4" y2="935.49" gradientUnits="userSpaceOnUse"><stop offset="0" stop-color="#58595b"/><stop offset="0.15" stop-color="#808184"/><stop offset="0.32" stop-color="#f6f8f9"/><stop offset="0.54" stop-color="#929497"/><stop offset="0.67" stop-color="#808184"/><stop offset="1" stop-color="#d0d2d3"/></linearGradient><radialGradient id="radial-gradient-7" cx="1382.96" cy="525.86" r="219.26" gradientTransform="translate(776.9 -823.88) rotate(45)" xlink:href="#radial-gradient"/><radialGradient id="radial-gradient-8" cx="-666.23" cy="-2008.98" r="68.8" xlink:href="#radial-gradient-2"/><radialGradient id="radial-gradient-9" cx="-2295.44" cy="-3754.34" r="68.8" gradientTransform="matrix(-2.83, -0.28, 2.83, -0.28, 5487.04, -1165.27)" xlink:href="#radial-gradient-2"/><radialGradient id="radial-gradient-10" cx="50.05" cy="-1434.12" r="39.42" gradientTransform="matrix(2.2, -1.8, -1.8, 2.2, -1335.86, 3752.66)" xlink:href="#radial-gradient-2"/><radialGradient id="radial-gradient-11" cx="-1637.74" cy="-2970" r="39.42" gradientTransform="matrix(-1.8, -2.2, 2.2, 1.8, 4929.06, 2273.55)" xlink:href="#radial-gradient-2"/><radialGradient id="radial-gradient-12" cx="1127.72" cy="433.95" r="57.58" gradientTransform="translate(233.13 79)" xlink:href="#radial-gradient-2"/></defs><g class="cls-1"><g id="Layer_1" data-name="Layer 1"><rect class="cls-2" x="0.25" y="0.25" width="3456" height="1918.35"/><circle class="cls-3" cx="1687.31" cy="918.02" r="219.26" transform="translate(-154.94 1461.99) rotate(-45)"/><path class="cls-4" d="M1684.29,710.53c10.51,107.4,10.51,281.76,0,389.23s-27.65,107.34-38.13,0-10.6-281.83-.07-389.23S1673.77,603.12,1684.29,710.53Z"/><path class="cls-5" d="M1470.6,886c107.39-10.49,281.75-10.49,389.22,0s107.34,27.67,0,38.14-281.81,10.6-389.21.07S1363.19,896.55,1470.6,886Z"/><path class="cls-6" d="M1751.78,834c-39.26,47.76-109.91,118.41-157.71,157.7s-54.7,32.28-15.44-15.45S1688.52,857.8,1736.3,818.55,1791,786.24,1751.78,834Z"/><path class="cls-7" d="M1594.08,818.54c47.78,39.26,118.43,109.91,157.72,157.71s32.28,54.7-15.46,15.45S1617.86,881.8,1578.61,834,1546.31,779.3,1594.08,818.54Z"/><path class="cls-8" d="M1722.78,905.13a57.58,57.58,0,1,1-57.59-57.6A57.61,57.61,0,0,1,1722.78,905.13Z"/><path class="cls-9" d="M2273.69,741.32,2140.15,613.73c-112.25-110.27-27,43.33,28.36,97.77C2289.69,830.78,2222,762,2328,762l464.58,28.94c17.22,1.07,33.74,5.22,49.52,9.86,1.64,6.65,6.49,6.68-8.79,25.64L2827,840.53c117.71,7.23,40.92,24.12,69.19,101.19l6.78-87.67c2.8-9,5.67-.79,8.3,4.83,16.45,35.22,9.05,109.55-5.8,119-23.45,14.91-9.25,1.62-19.47-22.68.94,51.17,20.41,29.46,3,89.77-6.19,21.51-24,28.66-24.17,11.18.33-51.39,1.47-134.9-14.54-172.47-28.36-32.47-656.12-52.16-800.93-52.92-350.31-1.85-635.45-13.18-995,2.14L669.54,852.06c-52,68.06-8.49,160.55-33.14,195.93-12.37-16.57-15-46.46-7.5-63.94-53.58-2.11-40.26-33.34-40-89.63l40.18-5.22c-8.16,3.15-33.21-63.08,33.05-59.91-18.67-7.8-27.65-9.72-5-19.24,65.39-27.53,315.64-70.11,341.45-64.06,17,4,38.38,22.67,89,19.45,54.66-3.47,100.56-68.32,114.12-99.83,11-25.55,3-39.71-9.61-50.23-23.37-19.51-22.58-19.4-42.32-3.26L1027.25,712.27c9.87-19.37,127.62-138.35,150.13-150.06,109.9-57.13,329.55-61.29,460.69-61,95.22.19,350,3.66,420,21.93,35.39,9.23,196.21,180.65,215.67,218.21Zm-145.94,58-3.26-17.6c-9.72-82.37,32.42-3.12-55.8-116.35C2034.11,621,2019.56,593,1947.18,581.7c-235.27-34.47-208.84-15-188,198.27l-78.35-2C1679,598,1716,555.11,1531.45,571.11c-119,10.32-220.26,54.93-237.47,199.26l-346.8,18.44Z"/><path class="cls-10" d="M2143.45,610.25l90.41,86.38c-21.83-25.59-50.58-56.78-78.92-85.46-42.14-42.64-83-79.49-98.12-83.42-27-7-82.36-11.9-145.41-15.19-98.54-5.14-215.47-6.48-273.34-6.59-65.45-.13-153,.85-237.86,9-84.48,8.09-166.27,23.28-220.61,51.53-10.47,5.44-43.25,35.9-75.45,68.09-14.23,14.22-28.31,28.73-40.25,41.54l82.84-67.71h0l1.11-.91h0c10.11-8.28,15.19-12.43,22.1-11.9,6.55.51,12.4,5.39,24.1,15.16h0l1.12.93h0c7,5.82,12.69,12.73,15.2,21.91s1.71,20-4.26,33.91c-8.16,19-27.76,49.73-53.87,72.57-18.62,16.29-40.63,28.65-64.35,30.15-38.19,2.42-60.22-7.2-76.13-14.15-5.46-2.39-10.15-4.44-14.32-5.42-13.38-3.13-92.17,7.83-172.16,22.84C757.22,786.26,688.6,802,659,814.46c-7.45,3.13-10.92,2.95-10.68,3.52s4.68,2.38,11.07,5h0l4.58,1.89-2.05,9.22c-21.79-1-32.42,5.81-36.77,14.79-2.64,5.46-3.13,11.83-2.44,17.76a41.77,41.77,0,0,0,4.64,15.14c.64,1.11-.2,2.43-.25,2.86l1.39-.18,2.33,9.22a6,6,0,0,1-2.19.42l-35,4.55c-.14,8.68-.53,16.6-.89,23.91-1.78,35.56-2.75,55.17,36.34,56.71l7,.27L633.31,986c-3.52,8.15-4.59,19.42-3.28,30.59a68.42,68.42,0,0,0,6.05,21.66c5.09-13.6,4-33.62,2.76-56.35-2.25-41.27-5-91.05,26.88-132.7l1.36-1.77,2.23-.11,384.85-19.16h0c261.66-11.14,484-8.18,720.69-5,88.56,1.18,179.14,2.39,274.48,2.89,89.3.47,361.93,8.12,564.63,21.52,127.53,8.42,228,19.45,239.89,33l.8,1.28c15.84,37.16,15.3,116.9,15,169l0,5.42c0,2.65.46,4.23,1.15,4.87a.69.69,0,0,0,.53.14,5.89,5.89,0,0,0,2.65-1.07c3.88-2.47,8-8.19,10.43-16.45h0c9.87-34.28,7.42-40.56,3.69-50.08-2.91-7.45-6.52-16.65-6.91-38.3l9.2-1.94a64.4,64.4,0,0,1,4.86,23.66c.1,2.14.17,3.68.19,3.72h0c.77,1.21,1.07-2.86,7.44-6.91,6.56-4.17,11.48-25.7,12.67-50.19,1.08-22.15-1.18-46.27-8.35-62.11l-6.23,80.56-9.3,1.3c-11.22-30.6-6.62-52-3.34-67.24a85,85,0,0,0,2-11.58c.68-11.19-9-15.89-63.62-19.24l-6.93-.43,2.83-6.32,6.31-14.13.64-1.05c10.85-13.46,10.16-15.19,9.11-17.83v0l-.35-.88c-7-2-14.14-3.92-21.45-5.47a171,171,0,0,0-24.58-3.5L2328,766.77h0c-37.19,0-52.09,8.68-61.69,14.26-20.66,12-21.34,12.43-101.14-66.11-28.29-27.85-64.35-81.37-78.46-113.11-4.13-9.29-6.47-17-6.36-22.11.2-8.57,4.56-12.09,14.2-8.61,8.74,3.15,24.33,15,48.93,39.16ZM2127.71,804.1,947.14,793.6l-.21-9.58,342.79-18.22c9.39-71.41,39.42-118.53,82-149.2,43.16-31.07,99-45.05,159.29-50.28,121.56-10.54,150.12,4.14,155.47,65.82,1.58,18.27.94,40.94.15,68.59-.6,21.17-1.29,45.31-1.11,72.6l68.3,1.72c-1.77-17.77-3.62-34.67-5.32-50.19-5.51-50.33-9.45-86.29-5.77-111.41,8.6-58.72,54.69-58.54,205.11-36.5l0,0c67.31,10.48,86,34.92,115.07,73.09,3.3,4.32,6.78,8.88,9.49,12.35,27.06,34.74,41.91,51.38,49.65,60.06,4.64,5.2,6.89,7.72,8,10.11,1.62,3.37,1,5,0,8.27-1.36,4-4.15,12.29-.86,40.28h0l-1.55,23Zm1.54-23,3.22,17.31,1.05,5.71-5.81,0Z"/><path class="cls-11" d="M1312.36,770.05c6.89-92.87,57.55-182.63,272.07-187.81,29.43-.71,81.22-2,81.4,54l-4.75,138.33Z"/><path class="cls-12" d="M2114.55,770.05c-.88-11.89,3.13-26.71-5.05-35.34-103.12-109-79.72-142.18-267-152.47-29.38-1.62-81.21-2-81.39,54l4.75,138.33Z"/><path class="cls-13" d="M693.13,944.07c447-48.75,919.42-12.46,1389.58-4l46.92.76c202.92,2.82,406.51-.19,608.44-18.65-189.47,2-379.46-7.18-568.59-17.78l-39.61-2.25C1596.19,871.63,1047.45,828.83,693.13,944.07Z"/><path class="cls-14" d="M765.48,930.26c314.22-27.83,640-17.2,968.07-6.49,116.4,3.79,233.1,7.61,349.3,9.71l46.9.75c101.32,1.42,202.85,1.37,304.26-1.34q65.46-1.74,130.87-5.07-55.78-1.14-111.53-3.16c-95.23-3.38-189.95-8.34-284.34-13.63l-39.62-2.24c-39.44-2.26-77.38-4.49-115.3-6.72C1552.58,875,1091.07,847.86,765.48,930.26Z"/><circle class="cls-15" cx="1382.96" cy="525.86" r="219.26" transform="translate(33.22 1131.92) rotate(-45)"/><path class="cls-16" d="M1379.94,318.37c10.51,107.4,10.51,281.76,0,389.23s-27.66,107.34-38.14,0-10.59-281.83-.06-389.23S1369.41,211,1379.94,318.37Z"/><path class="cls-17" d="M1166.24,493.85c107.4-10.5,281.75-10.5,389.23,0s107.33,27.67,0,38.14-281.81,10.6-389.22.07S1058.83,504.39,1166.24,493.85Z"/><path class="cls-18" d="M1447.42,441.86c-39.25,47.77-109.91,118.42-157.7,157.71s-54.7,32.28-15.45-15.45S1384.16,465.64,1432,426.39,1486.67,394.08,1447.42,441.86Z"/><path class="cls-19" d="M1289.73,426.38c47.78,39.26,118.43,109.91,157.71,157.7s32.28,54.71-15.45,15.46-118.49-109.9-157.74-157.68S1242,387.13,1289.73,426.38Z"/><path class="cls-20" d="M1418.42,513a57.58,57.58,0,1,1-57.59-57.59A57.61,57.61,0,0,1,1418.42,513Z"/><path class="cls-21" d="M1004,1070q-15.25-5.25-16-5.25-4.24,0-4.25,5.25a16.58,16.58,0,0,0,2.5,7.75l3.5,6.5q11,19.26,11,38,0,24.26-18.37,43T936.77,1184a76.39,76.39,0,0,1-32.75-7.5v-68.25q18,11.51,23.25,11.5A2.43,2.43,0,0,0,930,1117q0-1.5-5.25-10.5Q913,1086.27,913,1065.27q0-26,18.63-45.5t44.12-19.5q11.75,0,28.25,5.5Zm-9.25-12.75v-44.75a56.82,56.82,0,0,0-19-3q-21.75,0-37.62,16.75t-15.88,39q0,18.26,10.5,36.75,6.5,11.25,6.5,15a11.08,11.08,0,0,1-3.75,8.62A13.67,13.67,0,0,1,926,1129a24.21,24.21,0,0,1-12.75-4v45.5a54.85,54.85,0,0,0,23,5,53.79,53.79,0,0,0,39-15.88q16.25-15.87,16.25-37.62,0-16-9.75-33.25l-3.5-6.25q-4-6.75-4-12.75a13.59,13.59,0,0,1,4.13-10.38,13,13,0,0,1,9.12-3.87C988.69,1055.52,991.1,1056.11,994.77,1057.27Z"/><path class="cls-21" d="M1205.77,1114.52q0,33.75-16.38,51.62T1142,1184q-31,0-49.5-18.63T1074,1116V1005h65.25v109.5c0,3.5.16,5.25.5,5.25q.75,0,.75-5.25V1005h65.25Zm-9.25,0V1014.27h-46.75v100.25q0,14.25-10.25,14.25-9.51,0-9.5-14.25V1014.27h-46.75V1116q0,26.51,16,42.62t42.75,16.13q26.49,0,40.5-15.5T1196.52,1114.52Z"/><path class="cls-21" d="M1414.26,1180.27H1349v-110.5q0-5.25-.75-5.25c-.34,0-.5,1.75-.5,5.25v110.5h-65.25v-112q0-30.75,18.5-49.38t49.5-18.62q31,0,47.37,17.87t16.38,51.63ZM1405,1171V1069.77q0-29.25-14-44.75t-40.5-15.5q-26.76,0-42.75,16.12t-16,42.63V1171h46.75V1069.77q0-14.25,9.5-14.25,10.24,0,10.25,14.25V1171Z"/><path class="cls-21" d="M1671.75,1083c1.84,0,2.75.34,2.75,1q0,11.51-7.75,34t-20.5,37a81.41,81.41,0,0,1-30.12,21.75Q1598.75,1184,1577,1184q-41.74,0-69.25-27.38t-27.5-68.62a97.38,97.38,0,0,1,12.88-49.25,92.41,92.41,0,0,1,35.5-35.25,102.93,102.93,0,0,1,84.25-6.75,83.65,83.65,0,0,1,29,18.37q12.87,12.37,22.62,33.13t9.75,30c0,1-.66,1.59-2,1.75l-23,1.75a5.51,5.51,0,0,0-1.25.12c-.33.09-.41.17-.25.25a1.07,1.07,0,0,0,.5.13h1Zm-7.5,7.75-51.75-1.5q-4,36.51-36.25,36.5-15.49,0-25.62-10.75t-10.13-27q0-17,10.38-28t26.12-11q25,0,33.75,27.5l53-3.75q-7.5-35.25-30.5-54t-55-18.75q-37.5,0-63.12,25.37T1489.5,1088q0,37.26,24.88,62t62.62,24.75q36.26,0,59-21.63T1664.25,1090.77Zm-61-2.5q0-12.49-7.37-21.25a23.6,23.6,0,0,0-18.88-8.75,25.46,25.46,0,0,0-19.5,8.37q-7.74,8.38-7.75,21.38,0,12.26,7.5,20.37a24.74,24.74,0,0,0,19,8.13q12.26,0,19.63-8.13T1603.25,1088.27Z"/><path class="cls-21" d="M1872,1184h-65v-40.75c0-1-.34-1.5-1-1.5h-1.25V1184H1739.5V1070.27q0-33.49,18.12-51.75t51.38-18.25q32,0,47.5,16.75t15.5,51.5Zm-9.25-9.25V1068.52q0-30-13.13-44.5t-40.62-14.5q-28.76,0-44.5,15.87t-15.75,44.88v104.5h46.75v-42.25h13.25v-41H1795.5v-19.75q0-16.24,11-16.25,5.25,0,7.5,3.62t2.25,12.63v103Zm-55-94v-9a48.84,48.84,0,0,0-.25-6.5,1.4,1.4,0,0,0-1.5-1.25,1.59,1.59,0,0,0-1.62,1.37,31.23,31.23,0,0,0-.38,6.38V1083h2.25Q1807.75,1083,1807.75,1080.77Z"/><path class="cls-21" d="M2100.5,1180.27h-69L2019,1152c-.5-.83-.84-1.25-1-1.25-.34,0-.5.84-.5,2.5v27h-65V1005h68.75q32,0,50.25,16.87t18.25,44.63q0,25.26-19,42.5Zm-13.75-9.25-27-64.75q20.74-16,20.75-39.75,0-23.49-15.88-37.88t-43.37-14.37h-59.5V1171h46.5v-114.5h8.25q17,0,17,11,0,12.75-14.75,12.75H2015v40.25l22.5,50.5Zm-69.25-100a15.11,15.11,0,0,0,5.25-.63c1-.41,1.5-1.37,1.5-2.87,0-1.16-2.25-1.75-6.75-1.75Z"/><path class="cls-21" d="M2243.24,1180.27h-21.75q-29.74,0-46.5-17.25t-16.75-48V1005h65.25v102.75c0,3.84.58,6.25,1.75,7.25s3.25,1.5,6.25,1.5h11.75ZM2234,1171v-45.25h-2.5q-10,0-13.62-3.38t-3.63-14.62v-93.5h-46.75V1115q0,26.25,14.38,41.12t39.62,14.88Z"/><path class="cls-21" d="M2412.49,1180.27h-45.75q-30.25,0-46.38-14.75t-16.12-42.5v-61.25q0-27,15.37-41.88T2363,1005h49.5v63.75h-1.75c-.84,0-1.25.84-1.25,2.5v44c0,1.17.5,1.75,1.5,1.75h1.5Zm-9.25-9.25v-44.75H2372q-8.5,0-10.88-1.63t-2.37-6.37q0-4.5,2.5-6.25c1.66-1.16,4.58-1.75,8.75-1.75h30.25v-35h-25.5q-7,0-10.13-1.63t-3.12-6.37q0-7.74,12-7.75h29.75v-45.25H2363q-23.5,0-36.5,12.5t-13,35V1123q0,23.25,13.75,35.62t39.5,12.38Z"/></g></g></svg>