<svg id="图层_1" data-name="图层 1" xmlns="http://www.w3.org/2000/svg" viewBox="0 0 1462.49 394.29"><defs><style>.cls-1{fill:#fff;}.cls-2{fill:#f67a3c;}</style></defs><path class="cls-1" d="M817.12,66.14v242H765.56v-242Z"/><path class="cls-1" d="M924.62,223.8v84.37H873.06v-242h83.28q90.31,0,90.32,76.56,0,37.2-27.27,59.61t-68.2,21.49Zm0-117.66v78.13H947q45.46,0,45.47-39.54,0-38.58-45-38.59Z"/><path class="cls-1" d="M1225.41,308.17h-142v-242h51.56V266h90.47Z"/><path class="cls-1" d="M1422.12,299.42q-26.4,13-68.9,13-54.69,0-86.8-32.73t-32.11-87.27q0-57.34,35.86-93.83t92.58-36.48q35.46,0,59.37,9.22v49.84q-24.52-14.37-55.62-14.37-35.48,0-56.72,22.65t-21.25,59.22q0,35.63,20.16,57.35t54.53,21.71q32.34,0,58.9-15.62Z"/><path class="cls-2" d="M260.18,308.17H203.93L185.8,252.7h-88L80,308.17H24.08l88.6-242H173.3Zm-86.57-95.31L146.11,129q-2.66-8-3.75-21.09H141a89.37,89.37,0,0,1-4.22,20.47l-27.66,84.53Z"/><path class="cls-2" d="M506,308.17H453.15L350.65,151.61a182.27,182.27,0,0,1-11.57-19.69h-.78q1.41,12.51,1.41,38.6V308.17H290.8v-242h56.25L445.8,218.33q9.84,15.15,12,19.22h.78q-1.56-8.75-1.56-33.44v-138H506Z"/><path class="cls-2" d="M742.05,66.14,663,221.77v86.4H611.43V222.7L534.55,66.14h58.91l40.62,92.5q1.26,2.82,5.79,19.06h.62a83.19,83.19,0,0,1,5.16-18.59l41.72-93Z"/></svg>